ISO-10303-21;
HEADER;
/* Generated by software containing ST-Developer
 * from STEP Tools, Inc. (www.steptools.com) 
 */

FILE_DESCRIPTION(
/* description */ (''),
/* implementation_level */ '2;1');

FILE_NAME(
/* name */ 
'C:/Users/shane/Desktop/Workhorse XL Files/Gantry/Gantry Plate Idler .
step',
/* time_stamp */ '2018-08-26T15:15:18-05:00',
/* author */ ('shane77304'),
/* organization */ (''),
/* preprocessor_version */ 'ST-DEVELOPER v17',
/* originating_system */ 'Autodesk Translation Framework v7.1.0.215',
/* authorisation */ '');

FILE_SCHEMA (('AUTOMOTIVE_DESIGN { 1 0 10303 214 3 1 1 }'));
ENDSEC;

DATA;
#10=MECHANICAL_DESIGN_GEOMETRIC_PRESENTATION_REPRESENTATION('',(#13),#1197);
#11=SHAPE_REPRESENTATION_RELATIONSHIP('SRR','None',#1204,#12);
#12=ADVANCED_BREP_SHAPE_REPRESENTATION('',(#14),#1196);
#13=STYLED_ITEM('',(#1213),#14);
#14=MANIFOLD_SOLID_BREP('Body1',#705);
#15=FACE_BOUND('',#136,.T.);
#16=FACE_BOUND('',#137,.T.);
#17=FACE_BOUND('',#138,.T.);
#18=FACE_BOUND('',#139,.T.);
#19=FACE_BOUND('',#140,.T.);
#20=FACE_BOUND('',#141,.T.);
#21=FACE_BOUND('',#142,.T.);
#22=FACE_BOUND('',#143,.T.);
#23=FACE_BOUND('',#144,.T.);
#24=FACE_BOUND('',#145,.T.);
#25=FACE_BOUND('',#146,.T.);
#26=FACE_BOUND('',#147,.T.);
#27=FACE_BOUND('',#148,.T.);
#28=FACE_BOUND('',#149,.T.);
#29=FACE_BOUND('',#150,.T.);
#30=FACE_BOUND('',#151,.T.);
#31=FACE_BOUND('',#152,.T.);
#32=FACE_BOUND('',#153,.T.);
#33=FACE_BOUND('',#154,.T.);
#34=FACE_BOUND('',#155,.T.);
#35=FACE_BOUND('',#156,.T.);
#36=FACE_BOUND('',#157,.T.);
#37=FACE_BOUND('',#158,.T.);
#38=FACE_BOUND('',#159,.T.);
#39=FACE_BOUND('',#160,.T.);
#40=FACE_BOUND('',#161,.T.);
#41=FACE_BOUND('',#163,.T.);
#42=FACE_BOUND('',#164,.T.);
#43=FACE_BOUND('',#165,.T.);
#44=FACE_BOUND('',#166,.T.);
#45=FACE_BOUND('',#167,.T.);
#46=FACE_BOUND('',#168,.T.);
#47=FACE_BOUND('',#169,.T.);
#48=FACE_BOUND('',#170,.T.);
#49=FACE_BOUND('',#171,.T.);
#50=FACE_BOUND('',#172,.T.);
#51=FACE_BOUND('',#173,.T.);
#52=FACE_BOUND('',#174,.T.);
#53=FACE_BOUND('',#175,.T.);
#54=FACE_BOUND('',#176,.T.);
#55=FACE_BOUND('',#177,.T.);
#56=FACE_BOUND('',#178,.T.);
#57=FACE_BOUND('',#179,.T.);
#58=FACE_BOUND('',#180,.T.);
#59=FACE_BOUND('',#181,.T.);
#60=FACE_BOUND('',#182,.T.);
#61=FACE_BOUND('',#183,.T.);
#62=FACE_BOUND('',#184,.T.);
#63=FACE_BOUND('',#185,.T.);
#64=FACE_BOUND('',#186,.T.);
#65=FACE_BOUND('',#187,.T.);
#66=FACE_BOUND('',#188,.T.);
#67=PLANE('',#797);
#68=PLANE('',#798);
#69=PLANE('',#799);
#70=PLANE('',#800);
#71=PLANE('',#801);
#72=PLANE('',#802);
#73=FACE_OUTER_BOUND('',#105,.T.);
#74=FACE_OUTER_BOUND('',#106,.T.);
#75=FACE_OUTER_BOUND('',#107,.T.);
#76=FACE_OUTER_BOUND('',#108,.T.);
#77=FACE_OUTER_BOUND('',#109,.T.);
#78=FACE_OUTER_BOUND('',#110,.T.);
#79=FACE_OUTER_BOUND('',#111,.T.);
#80=FACE_OUTER_BOUND('',#112,.T.);
#81=FACE_OUTER_BOUND('',#113,.T.);
#82=FACE_OUTER_BOUND('',#114,.T.);
#83=FACE_OUTER_BOUND('',#115,.T.);
#84=FACE_OUTER_BOUND('',#116,.T.);
#85=FACE_OUTER_BOUND('',#117,.T.);
#86=FACE_OUTER_BOUND('',#118,.T.);
#87=FACE_OUTER_BOUND('',#119,.T.);
#88=FACE_OUTER_BOUND('',#120,.T.);
#89=FACE_OUTER_BOUND('',#121,.T.);
#90=FACE_OUTER_BOUND('',#122,.T.);
#91=FACE_OUTER_BOUND('',#123,.T.);
#92=FACE_OUTER_BOUND('',#124,.T.);
#93=FACE_OUTER_BOUND('',#125,.T.);
#94=FACE_OUTER_BOUND('',#126,.T.);
#95=FACE_OUTER_BOUND('',#127,.T.);
#96=FACE_OUTER_BOUND('',#128,.T.);
#97=FACE_OUTER_BOUND('',#129,.T.);
#98=FACE_OUTER_BOUND('',#130,.T.);
#99=FACE_OUTER_BOUND('',#131,.T.);
#100=FACE_OUTER_BOUND('',#132,.T.);
#101=FACE_OUTER_BOUND('',#133,.T.);
#102=FACE_OUTER_BOUND('',#134,.T.);
#103=FACE_OUTER_BOUND('',#135,.T.);
#104=FACE_OUTER_BOUND('',#162,.T.);
#105=EDGE_LOOP('',(#467,#468,#469,#470));
#106=EDGE_LOOP('',(#471,#472,#473,#474));
#107=EDGE_LOOP('',(#475,#476,#477,#478));
#108=EDGE_LOOP('',(#479,#480,#481,#482));
#109=EDGE_LOOP('',(#483,#484,#485,#486));
#110=EDGE_LOOP('',(#487,#488,#489,#490));
#111=EDGE_LOOP('',(#491,#492,#493,#494));
#112=EDGE_LOOP('',(#495,#496,#497,#498));
#113=EDGE_LOOP('',(#499,#500,#501,#502));
#114=EDGE_LOOP('',(#503,#504,#505,#506));
#115=EDGE_LOOP('',(#507,#508,#509,#510));
#116=EDGE_LOOP('',(#511,#512,#513,#514));
#117=EDGE_LOOP('',(#515,#516,#517,#518));
#118=EDGE_LOOP('',(#519,#520,#521,#522));
#119=EDGE_LOOP('',(#523,#524,#525,#526));
#120=EDGE_LOOP('',(#527,#528,#529,#530));
#121=EDGE_LOOP('',(#531,#532,#533,#534));
#122=EDGE_LOOP('',(#535,#536,#537,#538));
#123=EDGE_LOOP('',(#539,#540,#541,#542));
#124=EDGE_LOOP('',(#543,#544,#545,#546));
#125=EDGE_LOOP('',(#547,#548,#549,#550));
#126=EDGE_LOOP('',(#551,#552,#553,#554));
#127=EDGE_LOOP('',(#555,#556,#557,#558));
#128=EDGE_LOOP('',(#559,#560,#561,#562));
#129=EDGE_LOOP('',(#563,#564,#565,#566));
#130=EDGE_LOOP('',(#567,#568,#569,#570));
#131=EDGE_LOOP('',(#571,#572,#573,#574));
#132=EDGE_LOOP('',(#575,#576,#577,#578));
#133=EDGE_LOOP('',(#579,#580,#581,#582));
#134=EDGE_LOOP('',(#583,#584,#585,#586));
#135=EDGE_LOOP('',(#587,#588,#589,#590));
#136=EDGE_LOOP('',(#591));
#137=EDGE_LOOP('',(#592));
#138=EDGE_LOOP('',(#593));
#139=EDGE_LOOP('',(#594));
#140=EDGE_LOOP('',(#595));
#141=EDGE_LOOP('',(#596));
#142=EDGE_LOOP('',(#597));
#143=EDGE_LOOP('',(#598));
#144=EDGE_LOOP('',(#599));
#145=EDGE_LOOP('',(#600));
#146=EDGE_LOOP('',(#601));
#147=EDGE_LOOP('',(#602));
#148=EDGE_LOOP('',(#603));
#149=EDGE_LOOP('',(#604));
#150=EDGE_LOOP('',(#605));
#151=EDGE_LOOP('',(#606));
#152=EDGE_LOOP('',(#607));
#153=EDGE_LOOP('',(#608));
#154=EDGE_LOOP('',(#609));
#155=EDGE_LOOP('',(#610));
#156=EDGE_LOOP('',(#611));
#157=EDGE_LOOP('',(#612));
#158=EDGE_LOOP('',(#613));
#159=EDGE_LOOP('',(#614));
#160=EDGE_LOOP('',(#615));
#161=EDGE_LOOP('',(#616));
#162=EDGE_LOOP('',(#617,#618,#619,#620));
#163=EDGE_LOOP('',(#621));
#164=EDGE_LOOP('',(#622));
#165=EDGE_LOOP('',(#623));
#166=EDGE_LOOP('',(#624));
#167=EDGE_LOOP('',(#625));
#168=EDGE_LOOP('',(#626));
#169=EDGE_LOOP('',(#627));
#170=EDGE_LOOP('',(#628));
#171=EDGE_LOOP('',(#629));
#172=EDGE_LOOP('',(#630));
#173=EDGE_LOOP('',(#631));
#174=EDGE_LOOP('',(#632));
#175=EDGE_LOOP('',(#633));
#176=EDGE_LOOP('',(#634));
#177=EDGE_LOOP('',(#635));
#178=EDGE_LOOP('',(#636));
#179=EDGE_LOOP('',(#637));
#180=EDGE_LOOP('',(#638));
#181=EDGE_LOOP('',(#639));
#182=EDGE_LOOP('',(#640));
#183=EDGE_LOOP('',(#641));
#184=EDGE_LOOP('',(#642));
#185=EDGE_LOOP('',(#643));
#186=EDGE_LOOP('',(#644));
#187=EDGE_LOOP('',(#645));
#188=EDGE_LOOP('',(#646));
#189=LINE('',#1016,#227);
#190=LINE('',#1022,#228);
#191=LINE('',#1028,#229);
#192=LINE('',#1034,#230);
#193=LINE('',#1040,#231);
#194=LINE('',#1046,#232);
#195=LINE('',#1052,#233);
#196=LINE('',#1058,#234);
#197=LINE('',#1064,#235);
#198=LINE('',#1070,#236);
#199=LINE('',#1076,#237);
#200=LINE('',#1082,#238);
#201=LINE('',#1088,#239);
#202=LINE('',#1094,#240);
#203=LINE('',#1100,#241);
#204=LINE('',#1106,#242);
#205=LINE('',#1112,#243);
#206=LINE('',#1118,#244);
#207=LINE('',#1124,#245);
#208=LINE('',#1130,#246);
#209=LINE('',#1136,#247);
#210=LINE('',#1142,#248);
#211=LINE('',#1148,#249);
#212=LINE('',#1154,#250);
#213=LINE('',#1160,#251);
#214=LINE('',#1166,#252);
#215=LINE('',#1171,#253);
#216=LINE('',#1173,#254);
#217=LINE('',#1175,#255);
#218=LINE('',#1176,#256);
#219=LINE('',#1179,#257);
#220=LINE('',#1181,#258);
#221=LINE('',#1182,#259);
#222=LINE('',#1185,#260);
#223=LINE('',#1187,#261);
#224=LINE('',#1188,#262);
#225=LINE('',#1190,#263);
#226=LINE('',#1191,#264);
#227=VECTOR('',#809,2.50000010709813);
#228=VECTOR('',#816,1.50000006425849);
#229=VECTOR('',#823,1.50000006425849);
#230=VECTOR('',#830,1.50000006425849);
#231=VECTOR('',#837,1.50000006425849);
#232=VECTOR('',#844,1.50000006425849);
#233=VECTOR('',#851,1.50000006425849);
#234=VECTOR('',#858,1.50000006425849);
#235=VECTOR('',#865,1.50000006425849);
#236=VECTOR('',#872,1.50000006425856);
#237=VECTOR('',#879,1.50000000000006);
#238=VECTOR('',#886,1.50000000000006);
#239=VECTOR('',#893,1.50000006425842);
#240=VECTOR('',#900,1.50000006425856);
#241=VECTOR('',#907,1.50000000000006);
#242=VECTOR('',#914,1.50000000000006);
#243=VECTOR('',#921,1.50000006425842);
#244=VECTOR('',#928,7.5);
#245=VECTOR('',#935,7.5);
#246=VECTOR('',#942,2.500000107098);
#247=VECTOR('',#949,2.5);
#248=VECTOR('',#956,2.50000010709798);
#249=VECTOR('',#963,2.50000010709802);
#250=VECTOR('',#970,2.500000107098);
#251=VECTOR('',#977,2.50000010709802);
#252=VECTOR('',#984,2.50000010709802);
#253=VECTOR('',#989,10.);
#254=VECTOR('',#990,10.);
#255=VECTOR('',#991,10.);
#256=VECTOR('',#992,10.);
#257=VECTOR('',#995,10.);
#258=VECTOR('',#996,10.);
#259=VECTOR('',#997,10.);
#260=VECTOR('',#1000,10.);
#261=VECTOR('',#1001,10.);
#262=VECTOR('',#1002,10.);
#263=VECTOR('',#1005,10.);
#264=VECTOR('',#1006,10.);
#265=CIRCLE('',#720,2.50000010709813);
#266=CIRCLE('',#721,2.50000010709813);
#267=CIRCLE('',#723,1.50000006425849);
#268=CIRCLE('',#724,1.50000006425849);
#269=CIRCLE('',#726,1.50000006425849);
#270=CIRCLE('',#727,1.50000006425849);
#271=CIRCLE('',#729,1.50000006425849);
#272=CIRCLE('',#730,1.50000006425849);
#273=CIRCLE('',#732,1.50000006425849);
#274=CIRCLE('',#733,1.50000006425849);
#275=CIRCLE('',#735,1.50000006425849);
#276=CIRCLE('',#736,1.50000006425849);
#277=CIRCLE('',#738,1.50000006425849);
#278=CIRCLE('',#739,1.50000006425849);
#279=CIRCLE('',#741,1.50000006425849);
#280=CIRCLE('',#742,1.50000006425849);
#281=CIRCLE('',#744,1.50000006425849);
#282=CIRCLE('',#745,1.50000006425849);
#283=CIRCLE('',#747,1.50000006425856);
#284=CIRCLE('',#748,1.50000006425856);
#285=CIRCLE('',#750,1.50000000000006);
#286=CIRCLE('',#751,1.50000000000006);
#287=CIRCLE('',#753,1.50000000000006);
#288=CIRCLE('',#754,1.50000000000006);
#289=CIRCLE('',#756,1.50000006425842);
#290=CIRCLE('',#757,1.50000006425842);
#291=CIRCLE('',#759,1.50000006425856);
#292=CIRCLE('',#760,1.50000006425856);
#293=CIRCLE('',#762,1.50000000000006);
#294=CIRCLE('',#763,1.50000000000006);
#295=CIRCLE('',#765,1.50000000000006);
#296=CIRCLE('',#766,1.50000000000006);
#297=CIRCLE('',#768,1.50000006425842);
#298=CIRCLE('',#769,1.50000006425842);
#299=CIRCLE('',#771,7.5);
#300=CIRCLE('',#772,7.5);
#301=CIRCLE('',#774,7.5);
#302=CIRCLE('',#775,7.5);
#303=CIRCLE('',#777,2.500000107098);
#304=CIRCLE('',#778,2.500000107098);
#305=CIRCLE('',#780,2.5);
#306=CIRCLE('',#781,2.5);
#307=CIRCLE('',#783,2.50000010709798);
#308=CIRCLE('',#784,2.50000010709798);
#309=CIRCLE('',#786,2.50000010709802);
#310=CIRCLE('',#787,2.50000010709802);
#311=CIRCLE('',#789,2.500000107098);
#312=CIRCLE('',#790,2.500000107098);
#313=CIRCLE('',#792,2.50000010709802);
#314=CIRCLE('',#793,2.50000010709802);
#315=CIRCLE('',#795,2.50000010709802);
#316=CIRCLE('',#796,2.50000010709802);
#317=VERTEX_POINT('',#1013);
#318=VERTEX_POINT('',#1015);
#319=VERTEX_POINT('',#1019);
#320=VERTEX_POINT('',#1021);
#321=VERTEX_POINT('',#1025);
#322=VERTEX_POINT('',#1027);
#323=VERTEX_POINT('',#1031);
#324=VERTEX_POINT('',#1033);
#325=VERTEX_POINT('',#1037);
#326=VERTEX_POINT('',#1039);
#327=VERTEX_POINT('',#1043);
#328=VERTEX_POINT('',#1045);
#329=VERTEX_POINT('',#1049);
#330=VERTEX_POINT('',#1051);
#331=VERTEX_POINT('',#1055);
#332=VERTEX_POINT('',#1057);
#333=VERTEX_POINT('',#1061);
#334=VERTEX_POINT('',#1063);
#335=VERTEX_POINT('',#1067);
#336=VERTEX_POINT('',#1069);
#337=VERTEX_POINT('',#1073);
#338=VERTEX_POINT('',#1075);
#339=VERTEX_POINT('',#1079);
#340=VERTEX_POINT('',#1081);
#341=VERTEX_POINT('',#1085);
#342=VERTEX_POINT('',#1087);
#343=VERTEX_POINT('',#1091);
#344=VERTEX_POINT('',#1093);
#345=VERTEX_POINT('',#1097);
#346=VERTEX_POINT('',#1099);
#347=VERTEX_POINT('',#1103);
#348=VERTEX_POINT('',#1105);
#349=VERTEX_POINT('',#1109);
#350=VERTEX_POINT('',#1111);
#351=VERTEX_POINT('',#1115);
#352=VERTEX_POINT('',#1117);
#353=VERTEX_POINT('',#1121);
#354=VERTEX_POINT('',#1123);
#355=VERTEX_POINT('',#1127);
#356=VERTEX_POINT('',#1129);
#357=VERTEX_POINT('',#1133);
#358=VERTEX_POINT('',#1135);
#359=VERTEX_POINT('',#1139);
#360=VERTEX_POINT('',#1141);
#361=VERTEX_POINT('',#1145);
#362=VERTEX_POINT('',#1147);
#363=VERTEX_POINT('',#1151);
#364=VERTEX_POINT('',#1153);
#365=VERTEX_POINT('',#1157);
#366=VERTEX_POINT('',#1159);
#367=VERTEX_POINT('',#1163);
#368=VERTEX_POINT('',#1165);
#369=VERTEX_POINT('',#1169);
#370=VERTEX_POINT('',#1170);
#371=VERTEX_POINT('',#1172);
#372=VERTEX_POINT('',#1174);
#373=VERTEX_POINT('',#1178);
#374=VERTEX_POINT('',#1180);
#375=VERTEX_POINT('',#1184);
#376=VERTEX_POINT('',#1186);
#377=EDGE_CURVE('',#317,#317,#265,.T.);
#378=EDGE_CURVE('',#317,#318,#189,.T.);
#379=EDGE_CURVE('',#318,#318,#266,.T.);
#380=EDGE_CURVE('',#319,#319,#267,.T.);
#381=EDGE_CURVE('',#319,#320,#190,.T.);
#382=EDGE_CURVE('',#320,#320,#268,.T.);
#383=EDGE_CURVE('',#321,#321,#269,.T.);
#384=EDGE_CURVE('',#321,#322,#191,.T.);
#385=EDGE_CURVE('',#322,#322,#270,.T.);
#386=EDGE_CURVE('',#323,#323,#271,.T.);
#387=EDGE_CURVE('',#323,#324,#192,.T.);
#388=EDGE_CURVE('',#324,#324,#272,.T.);
#389=EDGE_CURVE('',#325,#325,#273,.T.);
#390=EDGE_CURVE('',#325,#326,#193,.T.);
#391=EDGE_CURVE('',#326,#326,#274,.T.);
#392=EDGE_CURVE('',#327,#327,#275,.T.);
#393=EDGE_CURVE('',#327,#328,#194,.T.);
#394=EDGE_CURVE('',#328,#328,#276,.T.);
#395=EDGE_CURVE('',#329,#329,#277,.T.);
#396=EDGE_CURVE('',#329,#330,#195,.T.);
#397=EDGE_CURVE('',#330,#330,#278,.T.);
#398=EDGE_CURVE('',#331,#331,#279,.T.);
#399=EDGE_CURVE('',#331,#332,#196,.T.);
#400=EDGE_CURVE('',#332,#332,#280,.T.);
#401=EDGE_CURVE('',#333,#333,#281,.T.);
#402=EDGE_CURVE('',#333,#334,#197,.T.);
#403=EDGE_CURVE('',#334,#334,#282,.T.);
#404=EDGE_CURVE('',#335,#335,#283,.T.);
#405=EDGE_CURVE('',#335,#336,#198,.T.);
#406=EDGE_CURVE('',#336,#336,#284,.T.);
#407=EDGE_CURVE('',#337,#337,#285,.T.);
#408=EDGE_CURVE('',#337,#338,#199,.T.);
#409=EDGE_CURVE('',#338,#338,#286,.T.);
#410=EDGE_CURVE('',#339,#339,#287,.T.);
#411=EDGE_CURVE('',#339,#340,#200,.T.);
#412=EDGE_CURVE('',#340,#340,#288,.T.);
#413=EDGE_CURVE('',#341,#341,#289,.T.);
#414=EDGE_CURVE('',#341,#342,#201,.T.);
#415=EDGE_CURVE('',#342,#342,#290,.T.);
#416=EDGE_CURVE('',#343,#343,#291,.T.);
#417=EDGE_CURVE('',#343,#344,#202,.T.);
#418=EDGE_CURVE('',#344,#344,#292,.T.);
#419=EDGE_CURVE('',#345,#345,#293,.T.);
#420=EDGE_CURVE('',#345,#346,#203,.T.);
#421=EDGE_CURVE('',#346,#346,#294,.T.);
#422=EDGE_CURVE('',#347,#347,#295,.T.);
#423=EDGE_CURVE('',#347,#348,#204,.T.);
#424=EDGE_CURVE('',#348,#348,#296,.T.);
#425=EDGE_CURVE('',#349,#349,#297,.T.);
#426=EDGE_CURVE('',#349,#350,#205,.T.);
#427=EDGE_CURVE('',#350,#350,#298,.T.);
#428=EDGE_CURVE('',#351,#351,#299,.T.);
#429=EDGE_CURVE('',#351,#352,#206,.T.);
#430=EDGE_CURVE('',#352,#352,#300,.T.);
#431=EDGE_CURVE('',#353,#353,#301,.T.);
#432=EDGE_CURVE('',#353,#354,#207,.T.);
#433=EDGE_CURVE('',#354,#354,#302,.T.);
#434=EDGE_CURVE('',#355,#355,#303,.T.);
#435=EDGE_CURVE('',#355,#356,#208,.T.);
#436=EDGE_CURVE('',#356,#356,#304,.T.);
#437=EDGE_CURVE('',#357,#357,#305,.T.);
#438=EDGE_CURVE('',#357,#358,#209,.T.);
#439=EDGE_CURVE('',#358,#358,#306,.T.);
#440=EDGE_CURVE('',#359,#359,#307,.T.);
#441=EDGE_CURVE('',#359,#360,#210,.T.);
#442=EDGE_CURVE('',#360,#360,#308,.T.);
#443=EDGE_CURVE('',#361,#361,#309,.T.);
#444=EDGE_CURVE('',#361,#362,#211,.T.);
#445=EDGE_CURVE('',#362,#362,#310,.T.);
#446=EDGE_CURVE('',#363,#363,#311,.T.);
#447=EDGE_CURVE('',#363,#364,#212,.T.);
#448=EDGE_CURVE('',#364,#364,#312,.T.);
#449=EDGE_CURVE('',#365,#365,#313,.T.);
#450=EDGE_CURVE('',#365,#366,#213,.T.);
#451=EDGE_CURVE('',#366,#366,#314,.T.);
#452=EDGE_CURVE('',#367,#367,#315,.T.);
#453=EDGE_CURVE('',#367,#368,#214,.T.);
#454=EDGE_CURVE('',#368,#368,#316,.T.);
#455=EDGE_CURVE('',#369,#370,#215,.T.);
#456=EDGE_CURVE('',#370,#371,#216,.T.);
#457=EDGE_CURVE('',#372,#371,#217,.T.);
#458=EDGE_CURVE('',#369,#372,#218,.T.);
#459=EDGE_CURVE('',#373,#369,#219,.T.);
#460=EDGE_CURVE('',#374,#372,#220,.T.);
#461=EDGE_CURVE('',#373,#374,#221,.T.);
#462=EDGE_CURVE('',#375,#373,#222,.T.);
#463=EDGE_CURVE('',#376,#374,#223,.T.);
#464=EDGE_CURVE('',#375,#376,#224,.T.);
#465=EDGE_CURVE('',#370,#375,#225,.T.);
#466=EDGE_CURVE('',#371,#376,#226,.T.);
#467=ORIENTED_EDGE('',*,*,#377,.F.);
#468=ORIENTED_EDGE('',*,*,#378,.T.);
#469=ORIENTED_EDGE('',*,*,#379,.T.);
#470=ORIENTED_EDGE('',*,*,#378,.F.);
#471=ORIENTED_EDGE('',*,*,#380,.F.);
#472=ORIENTED_EDGE('',*,*,#381,.T.);
#473=ORIENTED_EDGE('',*,*,#382,.T.);
#474=ORIENTED_EDGE('',*,*,#381,.F.);
#475=ORIENTED_EDGE('',*,*,#383,.F.);
#476=ORIENTED_EDGE('',*,*,#384,.T.);
#477=ORIENTED_EDGE('',*,*,#385,.T.);
#478=ORIENTED_EDGE('',*,*,#384,.F.);
#479=ORIENTED_EDGE('',*,*,#386,.F.);
#480=ORIENTED_EDGE('',*,*,#387,.T.);
#481=ORIENTED_EDGE('',*,*,#388,.T.);
#482=ORIENTED_EDGE('',*,*,#387,.F.);
#483=ORIENTED_EDGE('',*,*,#389,.F.);
#484=ORIENTED_EDGE('',*,*,#390,.T.);
#485=ORIENTED_EDGE('',*,*,#391,.T.);
#486=ORIENTED_EDGE('',*,*,#390,.F.);
#487=ORIENTED_EDGE('',*,*,#392,.F.);
#488=ORIENTED_EDGE('',*,*,#393,.T.);
#489=ORIENTED_EDGE('',*,*,#394,.T.);
#490=ORIENTED_EDGE('',*,*,#393,.F.);
#491=ORIENTED_EDGE('',*,*,#395,.F.);
#492=ORIENTED_EDGE('',*,*,#396,.T.);
#493=ORIENTED_EDGE('',*,*,#397,.T.);
#494=ORIENTED_EDGE('',*,*,#396,.F.);
#495=ORIENTED_EDGE('',*,*,#398,.F.);
#496=ORIENTED_EDGE('',*,*,#399,.T.);
#497=ORIENTED_EDGE('',*,*,#400,.T.);
#498=ORIENTED_EDGE('',*,*,#399,.F.);
#499=ORIENTED_EDGE('',*,*,#401,.F.);
#500=ORIENTED_EDGE('',*,*,#402,.T.);
#501=ORIENTED_EDGE('',*,*,#403,.T.);
#502=ORIENTED_EDGE('',*,*,#402,.F.);
#503=ORIENTED_EDGE('',*,*,#404,.F.);
#504=ORIENTED_EDGE('',*,*,#405,.T.);
#505=ORIENTED_EDGE('',*,*,#406,.T.);
#506=ORIENTED_EDGE('',*,*,#405,.F.);
#507=ORIENTED_EDGE('',*,*,#407,.F.);
#508=ORIENTED_EDGE('',*,*,#408,.T.);
#509=ORIENTED_EDGE('',*,*,#409,.T.);
#510=ORIENTED_EDGE('',*,*,#408,.F.);
#511=ORIENTED_EDGE('',*,*,#410,.F.);
#512=ORIENTED_EDGE('',*,*,#411,.T.);
#513=ORIENTED_EDGE('',*,*,#412,.T.);
#514=ORIENTED_EDGE('',*,*,#411,.F.);
#515=ORIENTED_EDGE('',*,*,#413,.F.);
#516=ORIENTED_EDGE('',*,*,#414,.T.);
#517=ORIENTED_EDGE('',*,*,#415,.T.);
#518=ORIENTED_EDGE('',*,*,#414,.F.);
#519=ORIENTED_EDGE('',*,*,#416,.F.);
#520=ORIENTED_EDGE('',*,*,#417,.T.);
#521=ORIENTED_EDGE('',*,*,#418,.T.);
#522=ORIENTED_EDGE('',*,*,#417,.F.);
#523=ORIENTED_EDGE('',*,*,#419,.F.);
#524=ORIENTED_EDGE('',*,*,#420,.T.);
#525=ORIENTED_EDGE('',*,*,#421,.T.);
#526=ORIENTED_EDGE('',*,*,#420,.F.);
#527=ORIENTED_EDGE('',*,*,#422,.F.);
#528=ORIENTED_EDGE('',*,*,#423,.T.);
#529=ORIENTED_EDGE('',*,*,#424,.T.);
#530=ORIENTED_EDGE('',*,*,#423,.F.);
#531=ORIENTED_EDGE('',*,*,#425,.F.);
#532=ORIENTED_EDGE('',*,*,#426,.T.);
#533=ORIENTED_EDGE('',*,*,#427,.T.);
#534=ORIENTED_EDGE('',*,*,#426,.F.);
#535=ORIENTED_EDGE('',*,*,#428,.F.);
#536=ORIENTED_EDGE('',*,*,#429,.T.);
#537=ORIENTED_EDGE('',*,*,#430,.F.);
#538=ORIENTED_EDGE('',*,*,#429,.F.);
#539=ORIENTED_EDGE('',*,*,#431,.F.);
#540=ORIENTED_EDGE('',*,*,#432,.T.);
#541=ORIENTED_EDGE('',*,*,#433,.F.);
#542=ORIENTED_EDGE('',*,*,#432,.F.);
#543=ORIENTED_EDGE('',*,*,#434,.F.);
#544=ORIENTED_EDGE('',*,*,#435,.T.);
#545=ORIENTED_EDGE('',*,*,#436,.T.);
#546=ORIENTED_EDGE('',*,*,#435,.F.);
#547=ORIENTED_EDGE('',*,*,#437,.F.);
#548=ORIENTED_EDGE('',*,*,#438,.T.);
#549=ORIENTED_EDGE('',*,*,#439,.T.);
#550=ORIENTED_EDGE('',*,*,#438,.F.);
#551=ORIENTED_EDGE('',*,*,#440,.F.);
#552=ORIENTED_EDGE('',*,*,#441,.T.);
#553=ORIENTED_EDGE('',*,*,#442,.T.);
#554=ORIENTED_EDGE('',*,*,#441,.F.);
#555=ORIENTED_EDGE('',*,*,#443,.F.);
#556=ORIENTED_EDGE('',*,*,#444,.T.);
#557=ORIENTED_EDGE('',*,*,#445,.T.);
#558=ORIENTED_EDGE('',*,*,#444,.F.);
#559=ORIENTED_EDGE('',*,*,#446,.F.);
#560=ORIENTED_EDGE('',*,*,#447,.T.);
#561=ORIENTED_EDGE('',*,*,#448,.T.);
#562=ORIENTED_EDGE('',*,*,#447,.F.);
#563=ORIENTED_EDGE('',*,*,#449,.F.);
#564=ORIENTED_EDGE('',*,*,#450,.T.);
#565=ORIENTED_EDGE('',*,*,#451,.T.);
#566=ORIENTED_EDGE('',*,*,#450,.F.);
#567=ORIENTED_EDGE('',*,*,#452,.F.);
#568=ORIENTED_EDGE('',*,*,#453,.T.);
#569=ORIENTED_EDGE('',*,*,#454,.T.);
#570=ORIENTED_EDGE('',*,*,#453,.F.);
#571=ORIENTED_EDGE('',*,*,#455,.T.);
#572=ORIENTED_EDGE('',*,*,#456,.T.);
#573=ORIENTED_EDGE('',*,*,#457,.F.);
#574=ORIENTED_EDGE('',*,*,#458,.F.);
#575=ORIENTED_EDGE('',*,*,#459,.T.);
#576=ORIENTED_EDGE('',*,*,#458,.T.);
#577=ORIENTED_EDGE('',*,*,#460,.F.);
#578=ORIENTED_EDGE('',*,*,#461,.F.);
#579=ORIENTED_EDGE('',*,*,#462,.T.);
#580=ORIENTED_EDGE('',*,*,#461,.T.);
#581=ORIENTED_EDGE('',*,*,#463,.F.);
#582=ORIENTED_EDGE('',*,*,#464,.F.);
#583=ORIENTED_EDGE('',*,*,#465,.T.);
#584=ORIENTED_EDGE('',*,*,#464,.T.);
#585=ORIENTED_EDGE('',*,*,#466,.F.);
#586=ORIENTED_EDGE('',*,*,#456,.F.);
#587=ORIENTED_EDGE('',*,*,#466,.T.);
#588=ORIENTED_EDGE('',*,*,#463,.T.);
#589=ORIENTED_EDGE('',*,*,#460,.T.);
#590=ORIENTED_EDGE('',*,*,#457,.T.);
#591=ORIENTED_EDGE('',*,*,#452,.T.);
#592=ORIENTED_EDGE('',*,*,#449,.T.);
#593=ORIENTED_EDGE('',*,*,#446,.T.);
#594=ORIENTED_EDGE('',*,*,#443,.T.);
#595=ORIENTED_EDGE('',*,*,#440,.T.);
#596=ORIENTED_EDGE('',*,*,#437,.T.);
#597=ORIENTED_EDGE('',*,*,#434,.T.);
#598=ORIENTED_EDGE('',*,*,#431,.T.);
#599=ORIENTED_EDGE('',*,*,#428,.T.);
#600=ORIENTED_EDGE('',*,*,#425,.T.);
#601=ORIENTED_EDGE('',*,*,#422,.T.);
#602=ORIENTED_EDGE('',*,*,#419,.T.);
#603=ORIENTED_EDGE('',*,*,#416,.T.);
#604=ORIENTED_EDGE('',*,*,#413,.T.);
#605=ORIENTED_EDGE('',*,*,#410,.T.);
#606=ORIENTED_EDGE('',*,*,#407,.T.);
#607=ORIENTED_EDGE('',*,*,#404,.T.);
#608=ORIENTED_EDGE('',*,*,#401,.T.);
#609=ORIENTED_EDGE('',*,*,#398,.T.);
#610=ORIENTED_EDGE('',*,*,#395,.T.);
#611=ORIENTED_EDGE('',*,*,#392,.T.);
#612=ORIENTED_EDGE('',*,*,#389,.T.);
#613=ORIENTED_EDGE('',*,*,#386,.T.);
#614=ORIENTED_EDGE('',*,*,#383,.T.);
#615=ORIENTED_EDGE('',*,*,#380,.T.);
#616=ORIENTED_EDGE('',*,*,#377,.T.);
#617=ORIENTED_EDGE('',*,*,#465,.F.);
#618=ORIENTED_EDGE('',*,*,#455,.F.);
#619=ORIENTED_EDGE('',*,*,#459,.F.);
#620=ORIENTED_EDGE('',*,*,#462,.F.);
#621=ORIENTED_EDGE('',*,*,#454,.F.);
#622=ORIENTED_EDGE('',*,*,#451,.F.);
#623=ORIENTED_EDGE('',*,*,#448,.F.);
#624=ORIENTED_EDGE('',*,*,#445,.F.);
#625=ORIENTED_EDGE('',*,*,#442,.F.);
#626=ORIENTED_EDGE('',*,*,#439,.F.);
#627=ORIENTED_EDGE('',*,*,#436,.F.);
#628=ORIENTED_EDGE('',*,*,#433,.T.);
#629=ORIENTED_EDGE('',*,*,#430,.T.);
#630=ORIENTED_EDGE('',*,*,#427,.F.);
#631=ORIENTED_EDGE('',*,*,#424,.F.);
#632=ORIENTED_EDGE('',*,*,#421,.F.);
#633=ORIENTED_EDGE('',*,*,#418,.F.);
#634=ORIENTED_EDGE('',*,*,#415,.F.);
#635=ORIENTED_EDGE('',*,*,#412,.F.);
#636=ORIENTED_EDGE('',*,*,#409,.F.);
#637=ORIENTED_EDGE('',*,*,#406,.F.);
#638=ORIENTED_EDGE('',*,*,#403,.F.);
#639=ORIENTED_EDGE('',*,*,#400,.F.);
#640=ORIENTED_EDGE('',*,*,#397,.F.);
#641=ORIENTED_EDGE('',*,*,#394,.F.);
#642=ORIENTED_EDGE('',*,*,#391,.F.);
#643=ORIENTED_EDGE('',*,*,#388,.F.);
#644=ORIENTED_EDGE('',*,*,#385,.F.);
#645=ORIENTED_EDGE('',*,*,#382,.F.);
#646=ORIENTED_EDGE('',*,*,#379,.F.);
#647=CYLINDRICAL_SURFACE('',#719,2.50000010709813);
#648=CYLINDRICAL_SURFACE('',#722,1.50000006425849);
#649=CYLINDRICAL_SURFACE('',#725,1.50000006425849);
#650=CYLINDRICAL_SURFACE('',#728,1.50000006425849);
#651=CYLINDRICAL_SURFACE('',#731,1.50000006425849);
#652=CYLINDRICAL_SURFACE('',#734,1.50000006425849);
#653=CYLINDRICAL_SURFACE('',#737,1.50000006425849);
#654=CYLINDRICAL_SURFACE('',#740,1.50000006425849);
#655=CYLINDRICAL_SURFACE('',#743,1.50000006425849);
#656=CYLINDRICAL_SURFACE('',#746,1.50000006425856);
#657=CYLINDRICAL_SURFACE('',#749,1.50000000000006);
#658=CYLINDRICAL_SURFACE('',#752,1.50000000000006);
#659=CYLINDRICAL_SURFACE('',#755,1.50000006425842);
#660=CYLINDRICAL_SURFACE('',#758,1.50000006425856);
#661=CYLINDRICAL_SURFACE('',#761,1.50000000000006);
#662=CYLINDRICAL_SURFACE('',#764,1.50000000000006);
#663=CYLINDRICAL_SURFACE('',#767,1.50000006425842);
#664=CYLINDRICAL_SURFACE('',#770,7.5);
#665=CYLINDRICAL_SURFACE('',#773,7.5);
#666=CYLINDRICAL_SURFACE('',#776,2.500000107098);
#667=CYLINDRICAL_SURFACE('',#779,2.5);
#668=CYLINDRICAL_SURFACE('',#782,2.50000010709798);
#669=CYLINDRICAL_SURFACE('',#785,2.50000010709802);
#670=CYLINDRICAL_SURFACE('',#788,2.500000107098);
#671=CYLINDRICAL_SURFACE('',#791,2.50000010709802);
#672=CYLINDRICAL_SURFACE('',#794,2.50000010709802);
#673=ADVANCED_FACE('',(#73),#647,.F.);
#674=ADVANCED_FACE('',(#74),#648,.F.);
#675=ADVANCED_FACE('',(#75),#649,.F.);
#676=ADVANCED_FACE('',(#76),#650,.F.);
#677=ADVANCED_FACE('',(#77),#651,.F.);
#678=ADVANCED_FACE('',(#78),#652,.F.);
#679=ADVANCED_FACE('',(#79),#653,.F.);
#680=ADVANCED_FACE('',(#80),#654,.F.);
#681=ADVANCED_FACE('',(#81),#655,.F.);
#682=ADVANCED_FACE('',(#82),#656,.F.);
#683=ADVANCED_FACE('',(#83),#657,.F.);
#684=ADVANCED_FACE('',(#84),#658,.F.);
#685=ADVANCED_FACE('',(#85),#659,.F.);
#686=ADVANCED_FACE('',(#86),#660,.F.);
#687=ADVANCED_FACE('',(#87),#661,.F.);
#688=ADVANCED_FACE('',(#88),#662,.F.);
#689=ADVANCED_FACE('',(#89),#663,.F.);
#690=ADVANCED_FACE('',(#90),#664,.F.);
#691=ADVANCED_FACE('',(#91),#665,.F.);
#692=ADVANCED_FACE('',(#92),#666,.F.);
#693=ADVANCED_FACE('',(#93),#667,.F.);
#694=ADVANCED_FACE('',(#94),#668,.F.);
#695=ADVANCED_FACE('',(#95),#669,.F.);
#696=ADVANCED_FACE('',(#96),#670,.F.);
#697=ADVANCED_FACE('',(#97),#671,.F.);
#698=ADVANCED_FACE('',(#98),#672,.F.);
#699=ADVANCED_FACE('',(#99),#67,.T.);
#700=ADVANCED_FACE('',(#100),#68,.T.);
#701=ADVANCED_FACE('',(#101),#69,.T.);
#702=ADVANCED_FACE('',(#102),#70,.T.);
#703=ADVANCED_FACE('',(#103,#15,#16,#17,#18,#19,#20,#21,#22,#23,#24,#25,
#26,#27,#28,#29,#30,#31,#32,#33,#34,#35,#36,#37,#38,#39,#40),#71,.T.);
#704=ADVANCED_FACE('',(#104,#41,#42,#43,#44,#45,#46,#47,#48,#49,#50,#51,
#52,#53,#54,#55,#56,#57,#58,#59,#60,#61,#62,#63,#64,#65,#66),#72,.F.);
#705=CLOSED_SHELL('',(#673,#674,#675,#676,#677,#678,#679,#680,#681,#682,
#683,#684,#685,#686,#687,#688,#689,#690,#691,#692,#693,#694,#695,#696,#697,
#698,#699,#700,#701,#702,#703,#704));
#706=DERIVED_UNIT_ELEMENT(#708,1.);
#707=DERIVED_UNIT_ELEMENT(#1199,3.);
#708=(
MASS_UNIT()
NAMED_UNIT(*)
SI_UNIT(.KILO.,.GRAM.)
);
#709=DERIVED_UNIT((#706,#707));
#710=MEASURE_REPRESENTATION_ITEM('density measure',
POSITIVE_RATIO_MEASURE(7850.),#709);
#711=PROPERTY_DEFINITION_REPRESENTATION(#716,#713);
#712=PROPERTY_DEFINITION_REPRESENTATION(#717,#714);
#713=REPRESENTATION('material name',(#715),#1196);
#714=REPRESENTATION('density',(#710),#1196);
#715=DESCRIPTIVE_REPRESENTATION_ITEM('Steel','Steel');
#716=PROPERTY_DEFINITION('material property','material name',#1206);
#717=PROPERTY_DEFINITION('material property','density of part',#1206);
#718=AXIS2_PLACEMENT_3D('placement',#1011,#803,#804);
#719=AXIS2_PLACEMENT_3D('',#1012,#805,#806);
#720=AXIS2_PLACEMENT_3D('',#1014,#807,#808);
#721=AXIS2_PLACEMENT_3D('',#1017,#810,#811);
#722=AXIS2_PLACEMENT_3D('',#1018,#812,#813);
#723=AXIS2_PLACEMENT_3D('',#1020,#814,#815);
#724=AXIS2_PLACEMENT_3D('',#1023,#817,#818);
#725=AXIS2_PLACEMENT_3D('',#1024,#819,#820);
#726=AXIS2_PLACEMENT_3D('',#1026,#821,#822);
#727=AXIS2_PLACEMENT_3D('',#1029,#824,#825);
#728=AXIS2_PLACEMENT_3D('',#1030,#826,#827);
#729=AXIS2_PLACEMENT_3D('',#1032,#828,#829);
#730=AXIS2_PLACEMENT_3D('',#1035,#831,#832);
#731=AXIS2_PLACEMENT_3D('',#1036,#833,#834);
#732=AXIS2_PLACEMENT_3D('',#1038,#835,#836);
#733=AXIS2_PLACEMENT_3D('',#1041,#838,#839);
#734=AXIS2_PLACEMENT_3D('',#1042,#840,#841);
#735=AXIS2_PLACEMENT_3D('',#1044,#842,#843);
#736=AXIS2_PLACEMENT_3D('',#1047,#845,#846);
#737=AXIS2_PLACEMENT_3D('',#1048,#847,#848);
#738=AXIS2_PLACEMENT_3D('',#1050,#849,#850);
#739=AXIS2_PLACEMENT_3D('',#1053,#852,#853);
#740=AXIS2_PLACEMENT_3D('',#1054,#854,#855);
#741=AXIS2_PLACEMENT_3D('',#1056,#856,#857);
#742=AXIS2_PLACEMENT_3D('',#1059,#859,#860);
#743=AXIS2_PLACEMENT_3D('',#1060,#861,#862);
#744=AXIS2_PLACEMENT_3D('',#1062,#863,#864);
#745=AXIS2_PLACEMENT_3D('',#1065,#866,#867);
#746=AXIS2_PLACEMENT_3D('',#1066,#868,#869);
#747=AXIS2_PLACEMENT_3D('',#1068,#870,#871);
#748=AXIS2_PLACEMENT_3D('',#1071,#873,#874);
#749=AXIS2_PLACEMENT_3D('',#1072,#875,#876);
#750=AXIS2_PLACEMENT_3D('',#1074,#877,#878);
#751=AXIS2_PLACEMENT_3D('',#1077,#880,#881);
#752=AXIS2_PLACEMENT_3D('',#1078,#882,#883);
#753=AXIS2_PLACEMENT_3D('',#1080,#884,#885);
#754=AXIS2_PLACEMENT_3D('',#1083,#887,#888);
#755=AXIS2_PLACEMENT_3D('',#1084,#889,#890);
#756=AXIS2_PLACEMENT_3D('',#1086,#891,#892);
#757=AXIS2_PLACEMENT_3D('',#1089,#894,#895);
#758=AXIS2_PLACEMENT_3D('',#1090,#896,#897);
#759=AXIS2_PLACEMENT_3D('',#1092,#898,#899);
#760=AXIS2_PLACEMENT_3D('',#1095,#901,#902);
#761=AXIS2_PLACEMENT_3D('',#1096,#903,#904);
#762=AXIS2_PLACEMENT_3D('',#1098,#905,#906);
#763=AXIS2_PLACEMENT_3D('',#1101,#908,#909);
#764=AXIS2_PLACEMENT_3D('',#1102,#910,#911);
#765=AXIS2_PLACEMENT_3D('',#1104,#912,#913);
#766=AXIS2_PLACEMENT_3D('',#1107,#915,#916);
#767=AXIS2_PLACEMENT_3D('',#1108,#917,#918);
#768=AXIS2_PLACEMENT_3D('',#1110,#919,#920);
#769=AXIS2_PLACEMENT_3D('',#1113,#922,#923);
#770=AXIS2_PLACEMENT_3D('',#1114,#924,#925);
#771=AXIS2_PLACEMENT_3D('',#1116,#926,#927);
#772=AXIS2_PLACEMENT_3D('',#1119,#929,#930);
#773=AXIS2_PLACEMENT_3D('',#1120,#931,#932);
#774=AXIS2_PLACEMENT_3D('',#1122,#933,#934);
#775=AXIS2_PLACEMENT_3D('',#1125,#936,#937);
#776=AXIS2_PLACEMENT_3D('',#1126,#938,#939);
#777=AXIS2_PLACEMENT_3D('',#1128,#940,#941);
#778=AXIS2_PLACEMENT_3D('',#1131,#943,#944);
#779=AXIS2_PLACEMENT_3D('',#1132,#945,#946);
#780=AXIS2_PLACEMENT_3D('',#1134,#947,#948);
#781=AXIS2_PLACEMENT_3D('',#1137,#950,#951);
#782=AXIS2_PLACEMENT_3D('',#1138,#952,#953);
#783=AXIS2_PLACEMENT_3D('',#1140,#954,#955);
#784=AXIS2_PLACEMENT_3D('',#1143,#957,#958);
#785=AXIS2_PLACEMENT_3D('',#1144,#959,#960);
#786=AXIS2_PLACEMENT_3D('',#1146,#961,#962);
#787=AXIS2_PLACEMENT_3D('',#1149,#964,#965);
#788=AXIS2_PLACEMENT_3D('',#1150,#966,#967);
#789=AXIS2_PLACEMENT_3D('',#1152,#968,#969);
#790=AXIS2_PLACEMENT_3D('',#1155,#971,#972);
#791=AXIS2_PLACEMENT_3D('',#1156,#973,#974);
#792=AXIS2_PLACEMENT_3D('',#1158,#975,#976);
#793=AXIS2_PLACEMENT_3D('',#1161,#978,#979);
#794=AXIS2_PLACEMENT_3D('',#1162,#980,#981);
#795=AXIS2_PLACEMENT_3D('',#1164,#982,#983);
#796=AXIS2_PLACEMENT_3D('',#1167,#985,#986);
#797=AXIS2_PLACEMENT_3D('',#1168,#987,#988);
#798=AXIS2_PLACEMENT_3D('',#1177,#993,#994);
#799=AXIS2_PLACEMENT_3D('',#1183,#998,#999);
#800=AXIS2_PLACEMENT_3D('',#1189,#1003,#1004);
#801=AXIS2_PLACEMENT_3D('',#1192,#1007,#1008);
#802=AXIS2_PLACEMENT_3D('',#1193,#1009,#1010);
#803=DIRECTION('axis',(0.,0.,1.));
#804=DIRECTION('refdir',(1.,0.,0.));
#805=DIRECTION('center_axis',(0.,0.,1.));
#806=DIRECTION('ref_axis',(-0.99999999999994,3.46271696914594E-7,0.));
#807=DIRECTION('center_axis',(0.,0.,-1.));
#808=DIRECTION('ref_axis',(-0.99999999999994,3.46271696914594E-7,0.));
#809=DIRECTION('',(0.,0.,-1.));
#810=DIRECTION('center_axis',(0.,0.,-1.));
#811=DIRECTION('ref_axis',(-0.99999999999994,3.46271696914594E-7,0.));
#812=DIRECTION('center_axis',(0.,0.,1.));
#813=DIRECTION('ref_axis',(0.999999999999997,-7.14634602337326E-8,0.));
#814=DIRECTION('center_axis',(0.,0.,-1.));
#815=DIRECTION('ref_axis',(0.999999999999997,-7.14634602337326E-8,0.));
#816=DIRECTION('',(0.,0.,-1.));
#817=DIRECTION('center_axis',(0.,0.,-1.));
#818=DIRECTION('ref_axis',(0.999999999999997,-7.14634602337326E-8,0.));
#819=DIRECTION('center_axis',(0.,0.,1.));
#820=DIRECTION('ref_axis',(0.999999999999997,-7.14634543125434E-8,0.));
#821=DIRECTION('center_axis',(0.,0.,-1.));
#822=DIRECTION('ref_axis',(0.999999999999997,-7.14634543125434E-8,0.));
#823=DIRECTION('',(0.,0.,-1.));
#824=DIRECTION('center_axis',(0.,0.,-1.));
#825=DIRECTION('ref_axis',(0.999999999999997,-7.14634543125434E-8,0.));
#826=DIRECTION('center_axis',(0.,0.,1.));
#827=DIRECTION('ref_axis',(0.999999999999997,-7.14634602337326E-8,0.));
#828=DIRECTION('center_axis',(0.,0.,-1.));
#829=DIRECTION('ref_axis',(0.999999999999997,-7.14634602337326E-8,0.));
#830=DIRECTION('',(0.,0.,-1.));
#831=DIRECTION('center_axis',(0.,0.,-1.));
#832=DIRECTION('ref_axis',(0.999999999999997,-7.14634602337326E-8,0.));
#833=DIRECTION('center_axis',(0.,0.,1.));
#834=DIRECTION('ref_axis',(0.999999999999997,-7.14634543125434E-8,0.));
#835=DIRECTION('center_axis',(0.,0.,-1.));
#836=DIRECTION('ref_axis',(0.999999999999997,-7.14634543125434E-8,0.));
#837=DIRECTION('',(0.,0.,-1.));
#838=DIRECTION('center_axis',(0.,0.,-1.));
#839=DIRECTION('ref_axis',(0.999999999999997,-7.14634543125434E-8,0.));
#840=DIRECTION('center_axis',(0.,0.,1.));
#841=DIRECTION('ref_axis',(0.999999999999997,-7.1463457273138E-8,0.));
#842=DIRECTION('center_axis',(0.,0.,-1.));
#843=DIRECTION('ref_axis',(0.999999999999997,-7.1463457273138E-8,0.));
#844=DIRECTION('',(0.,0.,-1.));
#845=DIRECTION('center_axis',(0.,0.,-1.));
#846=DIRECTION('ref_axis',(0.999999999999997,-7.1463457273138E-8,0.));
#847=DIRECTION('center_axis',(0.,0.,1.));
#848=DIRECTION('ref_axis',(0.999999999999997,-7.14634565329894E-8,0.));
#849=DIRECTION('center_axis',(0.,0.,-1.));
#850=DIRECTION('ref_axis',(0.999999999999997,-7.14634565329894E-8,0.));
#851=DIRECTION('',(0.,0.,-1.));
#852=DIRECTION('center_axis',(0.,0.,-1.));
#853=DIRECTION('ref_axis',(0.999999999999997,-7.14634565329894E-8,0.));
#854=DIRECTION('center_axis',(0.,0.,1.));
#855=DIRECTION('ref_axis',(0.999999999999997,-7.1463457273138E-8,0.));
#856=DIRECTION('center_axis',(0.,0.,-1.));
#857=DIRECTION('ref_axis',(0.999999999999997,-7.1463457273138E-8,0.));
#858=DIRECTION('',(0.,0.,-1.));
#859=DIRECTION('center_axis',(0.,0.,-1.));
#860=DIRECTION('ref_axis',(0.999999999999997,-7.1463457273138E-8,0.));
#861=DIRECTION('center_axis',(0.,0.,1.));
#862=DIRECTION('ref_axis',(0.999999999999997,-7.14634565329894E-8,0.));
#863=DIRECTION('center_axis',(0.,0.,-1.));
#864=DIRECTION('ref_axis',(0.999999999999997,-7.14634565329894E-8,0.));
#865=DIRECTION('',(0.,0.,-1.));
#866=DIRECTION('center_axis',(0.,0.,-1.));
#867=DIRECTION('ref_axis',(0.999999999999997,-7.14634565329894E-8,0.));
#868=DIRECTION('center_axis',(0.,0.,1.));
#869=DIRECTION('ref_axis',(0.999999999999997,-7.15220903689994E-8,0.));
#870=DIRECTION('center_axis',(0.,0.,-1.));
#871=DIRECTION('ref_axis',(0.999999999999997,-7.15220903689994E-8,0.));
#872=DIRECTION('',(0.,0.,-1.));
#873=DIRECTION('center_axis',(0.,0.,-1.));
#874=DIRECTION('ref_axis',(0.999999999999997,-7.15220903689994E-8,0.));
#875=DIRECTION('center_axis',(0.,0.,1.));
#876=DIRECTION('ref_axis',(1.,-2.58095678162808E-8,0.));
#877=DIRECTION('center_axis',(0.,0.,-1.));
#878=DIRECTION('ref_axis',(1.,-2.58095678162808E-8,0.));
#879=DIRECTION('',(0.,0.,-1.));
#880=DIRECTION('center_axis',(0.,0.,-1.));
#881=DIRECTION('ref_axis',(1.,-2.58095678162808E-8,0.));
#882=DIRECTION('center_axis',(0.,0.,1.));
#883=DIRECTION('ref_axis',(1.,-2.58095670761321E-8,0.));
#884=DIRECTION('center_axis',(0.,0.,-1.));
#885=DIRECTION('ref_axis',(1.,-2.58095670761321E-8,0.));
#886=DIRECTION('',(0.,0.,-1.));
#887=DIRECTION('center_axis',(0.,0.,-1.));
#888=DIRECTION('ref_axis',(1.,-2.58095670761321E-8,0.));
#889=DIRECTION('center_axis',(0.,0.,1.));
#890=DIRECTION('ref_axis',(0.999999999999997,-7.14634572731414E-8,0.));
#891=DIRECTION('center_axis',(0.,0.,-1.));
#892=DIRECTION('ref_axis',(0.999999999999997,-7.14634572731414E-8,0.));
#893=DIRECTION('',(0.,0.,-1.));
#894=DIRECTION('center_axis',(0.,0.,-1.));
#895=DIRECTION('ref_axis',(0.999999999999997,-7.14634572731414E-8,0.));
#896=DIRECTION('center_axis',(0.,0.,1.));
#897=DIRECTION('ref_axis',(0.999999999999997,-7.15220918492966E-8,0.));
#898=DIRECTION('center_axis',(0.,0.,-1.));
#899=DIRECTION('ref_axis',(0.999999999999997,-7.15220918492966E-8,0.));
#900=DIRECTION('',(0.,0.,-1.));
#901=DIRECTION('center_axis',(0.,0.,-1.));
#902=DIRECTION('ref_axis',(0.999999999999997,-7.15220918492966E-8,0.));
#903=DIRECTION('center_axis',(0.,0.,1.));
#904=DIRECTION('ref_axis',(1.,-2.5809564855686E-8,0.));
#905=DIRECTION('center_axis',(0.,0.,-1.));
#906=DIRECTION('ref_axis',(1.,-2.5809564855686E-8,0.));
#907=DIRECTION('',(0.,0.,-1.));
#908=DIRECTION('center_axis',(0.,0.,-1.));
#909=DIRECTION('ref_axis',(1.,-2.5809564855686E-8,0.));
#910=DIRECTION('center_axis',(0.,0.,1.));
#911=DIRECTION('ref_axis',(1.,-2.5809564855686E-8,0.));
#912=DIRECTION('center_axis',(0.,0.,-1.));
#913=DIRECTION('ref_axis',(1.,-2.5809564855686E-8,0.));
#914=DIRECTION('',(0.,0.,-1.));
#915=DIRECTION('center_axis',(0.,0.,-1.));
#916=DIRECTION('ref_axis',(1.,-2.5809564855686E-8,0.));
#917=DIRECTION('center_axis',(0.,0.,1.));
#918=DIRECTION('ref_axis',(0.999999999999997,-7.1463460233736E-8,0.));
#919=DIRECTION('center_axis',(0.,0.,-1.));
#920=DIRECTION('ref_axis',(0.999999999999997,-7.1463460233736E-8,0.));
#921=DIRECTION('',(0.,0.,-1.));
#922=DIRECTION('center_axis',(0.,0.,-1.));
#923=DIRECTION('ref_axis',(0.999999999999997,-7.1463460233736E-8,0.));
#924=DIRECTION('center_axis',(0.,0.,1.));
#925=DIRECTION('ref_axis',(1.,0.,0.));
#926=DIRECTION('center_axis',(0.,0.,-1.));
#927=DIRECTION('ref_axis',(1.,0.,0.));
#928=DIRECTION('',(0.,0.,-1.));
#929=DIRECTION('center_axis',(0.,0.,1.));
#930=DIRECTION('ref_axis',(1.,0.,0.));
#931=DIRECTION('center_axis',(0.,0.,1.));
#932=DIRECTION('ref_axis',(1.,0.,0.));
#933=DIRECTION('center_axis',(0.,0.,-1.));
#934=DIRECTION('ref_axis',(1.,0.,0.));
#935=DIRECTION('',(0.,0.,-1.));
#936=DIRECTION('center_axis',(0.,0.,1.));
#937=DIRECTION('ref_axis',(1.,0.,0.));
#938=DIRECTION('center_axis',(0.,0.,1.));
#939=DIRECTION('ref_axis',(0.999999999999998,-7.14634578652422E-8,0.));
#940=DIRECTION('center_axis',(0.,0.,-1.));
#941=DIRECTION('ref_axis',(0.999999999999998,-7.14634578652422E-8,0.));
#942=DIRECTION('',(0.,0.,-1.));
#943=DIRECTION('center_axis',(0.,0.,-1.));
#944=DIRECTION('ref_axis',(0.999999999999998,-7.14634578652422E-8,0.));
#945=DIRECTION('center_axis',(0.,0.,1.));
#946=DIRECTION('ref_axis',(1.,-2.98023223876953E-8,0.));
#947=DIRECTION('center_axis',(0.,0.,-1.));
#948=DIRECTION('ref_axis',(1.,-2.98023223876953E-8,0.));
#949=DIRECTION('',(0.,0.,-1.));
#950=DIRECTION('center_axis',(0.,0.,-1.));
#951=DIRECTION('ref_axis',(1.,-2.98023223876953E-8,0.));
#952=DIRECTION('center_axis',(0.,0.,1.));
#953=DIRECTION('ref_axis',(0.999999999999998,-7.14634578652427E-8,0.));
#954=DIRECTION('center_axis',(0.,0.,-1.));
#955=DIRECTION('ref_axis',(0.999999999999998,-7.14634578652427E-8,0.));
#956=DIRECTION('',(0.,0.,-1.));
#957=DIRECTION('center_axis',(0.,0.,-1.));
#958=DIRECTION('ref_axis',(0.999999999999998,-7.14634578652427E-8,0.));
#959=DIRECTION('center_axis',(0.,0.,1.));
#960=DIRECTION('ref_axis',(0.999999999999998,-7.14634560888849E-8,0.));
#961=DIRECTION('center_axis',(0.,0.,-1.));
#962=DIRECTION('ref_axis',(0.999999999999998,-7.14634560888849E-8,0.));
#963=DIRECTION('',(0.,0.,-1.));
#964=DIRECTION('center_axis',(0.,0.,-1.));
#965=DIRECTION('ref_axis',(0.999999999999998,-7.14634560888849E-8,0.));
#966=DIRECTION('center_axis',(0.,0.,1.));
#967=DIRECTION('ref_axis',(0.999999999999998,-7.14634578652422E-8,0.));
#968=DIRECTION('center_axis',(0.,0.,-1.));
#969=DIRECTION('ref_axis',(0.999999999999998,-7.14634578652422E-8,0.));
#970=DIRECTION('',(0.,0.,-1.));
#971=DIRECTION('center_axis',(0.,0.,-1.));
#972=DIRECTION('ref_axis',(0.999999999999998,-7.14634578652422E-8,0.));
#973=DIRECTION('center_axis',(0.,0.,1.));
#974=DIRECTION('ref_axis',(0.999999999999998,-7.14634578652417E-8,0.));
#975=DIRECTION('center_axis',(0.,0.,-1.));
#976=DIRECTION('ref_axis',(0.999999999999998,-7.14634578652417E-8,0.));
#977=DIRECTION('',(0.,0.,-1.));
#978=DIRECTION('center_axis',(0.,0.,-1.));
#979=DIRECTION('ref_axis',(0.999999999999998,-7.14634578652417E-8,0.));
#980=DIRECTION('center_axis',(0.,0.,1.));
#981=DIRECTION('ref_axis',(0.999999999999998,-7.14634578652417E-8,0.));
#982=DIRECTION('center_axis',(0.,0.,-1.));
#983=DIRECTION('ref_axis',(0.999999999999998,-7.14634578652417E-8,0.));
#984=DIRECTION('',(0.,0.,-1.));
#985=DIRECTION('center_axis',(0.,0.,-1.));
#986=DIRECTION('ref_axis',(0.999999999999998,-7.14634578652417E-8,0.));
#987=DIRECTION('center_axis',(0.,-1.,0.));
#988=DIRECTION('ref_axis',(1.,0.,0.));
#989=DIRECTION('',(1.,0.,0.));
#990=DIRECTION('',(0.,0.,1.));
#991=DIRECTION('',(1.,0.,0.));
#992=DIRECTION('',(0.,0.,1.));
#993=DIRECTION('center_axis',(-1.,0.,0.));
#994=DIRECTION('ref_axis',(0.,-1.,4.37095678986282E-17));
#995=DIRECTION('',(0.,-1.,4.37095678986282E-17));
#996=DIRECTION('',(0.,-1.,4.37095678986282E-17));
#997=DIRECTION('',(0.,0.,1.));
#998=DIRECTION('center_axis',(0.,1.,0.));
#999=DIRECTION('ref_axis',(-1.,0.,0.));
#1000=DIRECTION('',(-1.,0.,0.));
#1001=DIRECTION('',(-1.,0.,0.));
#1002=DIRECTION('',(0.,0.,1.));
#1003=DIRECTION('center_axis',(1.,-3.49676543189026E-16,0.));
#1004=DIRECTION('ref_axis',(3.49676543189026E-16,1.,-4.37095678986282E-17));
#1005=DIRECTION('',(3.49676543189026E-16,1.,-4.37095678986282E-17));
#1006=DIRECTION('',(3.49676543189026E-16,1.,-4.37095678986282E-17));
#1007=DIRECTION('center_axis',(0.,0.,1.));
#1008=DIRECTION('ref_axis',(1.,0.,0.));
#1009=DIRECTION('center_axis',(0.,0.,1.));
#1010=DIRECTION('ref_axis',(1.,0.,0.));
#1011=CARTESIAN_POINT('',(0.,0.,0.));
#1012=CARTESIAN_POINT('Origin',(-707.900000107098,81.5999991348978,6.35));
#1013=CARTESIAN_POINT('',(-705.4,81.600000000577,12.7));
#1014=CARTESIAN_POINT('Origin',(-707.900000107098,81.5999991348978,12.7));
#1015=CARTESIAN_POINT('',(-705.4,81.600000000577,6.35));
#1016=CARTESIAN_POINT('',(-705.4,81.5999982692185,6.35));
#1017=CARTESIAN_POINT('Origin',(-707.900000107098,81.5999991348978,6.35));
#1018=CARTESIAN_POINT('Origin',(82.0499999357416,95.8000001065757,6.35));
#1019=CARTESIAN_POINT('',(80.5499998714831,95.7999999982185,12.7));
#1020=CARTESIAN_POINT('Origin',(82.0499999357416,95.8000001065757,12.7));
#1021=CARTESIAN_POINT('',(80.5499998714831,95.7999999982185,6.35));
#1022=CARTESIAN_POINT('',(80.5499998714831,95.8000002137709,6.35));
#1023=CARTESIAN_POINT('Origin',(82.0499999357416,95.8000001065757,6.35));
#1024=CARTESIAN_POINT('Origin',(102.049999935742,75.8000001065757,6.35));
#1025=CARTESIAN_POINT('',(100.549999871483,75.7999999982185,12.7));
#1026=CARTESIAN_POINT('Origin',(102.049999935742,75.8000001065757,12.7));
#1027=CARTESIAN_POINT('',(100.549999871483,75.7999999982185,6.35));
#1028=CARTESIAN_POINT('',(100.549999871483,75.8000002137709,6.35));
#1029=CARTESIAN_POINT('Origin',(102.049999935742,75.8000001065757,6.35));
#1030=CARTESIAN_POINT('Origin',(102.049999935742,95.8000001065757,6.35));
#1031=CARTESIAN_POINT('',(100.549999871483,95.7999999982185,12.7));
#1032=CARTESIAN_POINT('Origin',(102.049999935742,95.8000001065757,12.7));
#1033=CARTESIAN_POINT('',(100.549999871483,95.7999999982185,6.35));
#1034=CARTESIAN_POINT('',(100.549999871483,95.8000002137709,6.35));
#1035=CARTESIAN_POINT('Origin',(102.049999935742,95.8000001065757,6.35));
#1036=CARTESIAN_POINT('Origin',(82.0499999357416,75.8000001065757,6.35));
#1037=CARTESIAN_POINT('',(80.5499998714831,75.7999999982185,12.7));
#1038=CARTESIAN_POINT('Origin',(82.0499999357416,75.8000001065757,12.7));
#1039=CARTESIAN_POINT('',(80.5499998714831,75.7999999982185,6.35));
#1040=CARTESIAN_POINT('',(80.5499998714831,75.8000002137709,6.35));
#1041=CARTESIAN_POINT('Origin',(82.0499999357416,75.8000001065757,6.35));
#1042=CARTESIAN_POINT('Origin',(82.0499999357416,25.8000001065757,6.35));
#1043=CARTESIAN_POINT('',(80.5499998714831,25.7999999982185,12.7));
#1044=CARTESIAN_POINT('Origin',(82.0499999357416,25.8000001065757,12.7));
#1045=CARTESIAN_POINT('',(80.5499998714831,25.7999999982185,6.35));
#1046=CARTESIAN_POINT('',(80.5499998714831,25.8000002137709,6.35));
#1047=CARTESIAN_POINT('Origin',(82.0499999357416,25.8000001065757,6.35));
#1048=CARTESIAN_POINT('Origin',(102.049999935742,5.80000010657573,6.35));
#1049=CARTESIAN_POINT('',(100.549999871483,5.79999999821852,12.7));
#1050=CARTESIAN_POINT('Origin',(102.049999935742,5.80000010657573,12.7));
#1051=CARTESIAN_POINT('',(100.549999871483,5.79999999821852,6.35));
#1052=CARTESIAN_POINT('',(100.549999871483,5.80000021377092,6.35));
#1053=CARTESIAN_POINT('Origin',(102.049999935742,5.80000010657573,6.35));
#1054=CARTESIAN_POINT('Origin',(102.049999935742,25.8000001065757,6.35));
#1055=CARTESIAN_POINT('',(100.549999871483,25.7999999982185,12.7));
#1056=CARTESIAN_POINT('Origin',(102.049999935742,25.8000001065757,12.7));
#1057=CARTESIAN_POINT('',(100.549999871483,25.7999999982185,6.35));
#1058=CARTESIAN_POINT('',(100.549999871483,25.8000002137709,6.35));
#1059=CARTESIAN_POINT('Origin',(102.049999935742,25.8000001065757,6.35));
#1060=CARTESIAN_POINT('Origin',(82.0499999357416,5.80000010657574,6.35));
#1061=CARTESIAN_POINT('',(80.5499998714831,5.79999999821853,12.7));
#1062=CARTESIAN_POINT('Origin',(82.0499999357416,5.80000010657574,12.7));
#1063=CARTESIAN_POINT('',(80.5499998714831,5.79999999821853,6.35));
#1064=CARTESIAN_POINT('',(80.5499998714831,5.80000021377093,6.35));
#1065=CARTESIAN_POINT('Origin',(82.0499999357416,5.80000010657574,6.35));
#1066=CARTESIAN_POINT('Origin',(-647.050000064259,5.80000010657578,6.35));
#1067=CARTESIAN_POINT('',(-648.550000128517,5.79999999946854,12.7));
#1068=CARTESIAN_POINT('Origin',(-647.050000064259,5.80000010657578,12.7));
#1069=CARTESIAN_POINT('',(-648.550000128517,5.79999999946854,6.35));
#1070=CARTESIAN_POINT('',(-648.550000128517,5.80000021385892,6.35));
#1071=CARTESIAN_POINT('Origin',(-647.050000064259,5.80000010657578,6.35));
#1072=CARTESIAN_POINT('Origin',(-647.05,25.8000000421904,6.35));
#1073=CARTESIAN_POINT('',(-648.55,25.800000003476,12.7));
#1074=CARTESIAN_POINT('Origin',(-647.05,25.8000000421904,12.7));
#1075=CARTESIAN_POINT('',(-648.55,25.800000003476,6.35));
#1076=CARTESIAN_POINT('',(-648.55,25.8000000809047,6.35));
#1077=CARTESIAN_POINT('Origin',(-647.05,25.8000000421904,6.35));
#1078=CARTESIAN_POINT('Origin',(-667.05,5.8000000421904,6.35));
#1079=CARTESIAN_POINT('',(-668.55,5.80000000347605,12.7));
#1080=CARTESIAN_POINT('Origin',(-667.05,5.8000000421904,12.7));
#1081=CARTESIAN_POINT('',(-668.55,5.80000000347605,6.35));
#1082=CARTESIAN_POINT('',(-668.55,5.80000008090475,6.35));
#1083=CARTESIAN_POINT('Origin',(-667.05,5.8000000421904,6.35));
#1084=CARTESIAN_POINT('Origin',(-667.050000064258,25.8000001065757,6.35));
#1085=CARTESIAN_POINT('',(-668.550000128517,25.7999999982185,12.7));
#1086=CARTESIAN_POINT('Origin',(-667.050000064258,25.8000001065757,12.7));
#1087=CARTESIAN_POINT('',(-668.550000128517,25.7999999982185,6.35));
#1088=CARTESIAN_POINT('',(-668.550000128517,25.8000002137709,6.35));
#1089=CARTESIAN_POINT('Origin',(-667.050000064258,25.8000001065757,6.35));
#1090=CARTESIAN_POINT('Origin',(-647.050000064259,75.8000001065758,6.35));
#1091=CARTESIAN_POINT('',(-648.550000128517,75.7999999994686,12.7));
#1092=CARTESIAN_POINT('Origin',(-647.050000064259,75.8000001065758,12.7));
#1093=CARTESIAN_POINT('',(-648.550000128517,75.7999999994686,6.35));
#1094=CARTESIAN_POINT('',(-648.550000128517,75.8000002138589,6.35));
#1095=CARTESIAN_POINT('Origin',(-647.050000064259,75.8000001065758,6.35));
#1096=CARTESIAN_POINT('Origin',(-647.05,95.8000000421904,6.35));
#1097=CARTESIAN_POINT('',(-648.55,95.800000003476,12.7));
#1098=CARTESIAN_POINT('Origin',(-647.05,95.8000000421904,12.7));
#1099=CARTESIAN_POINT('',(-648.55,95.800000003476,6.35));
#1100=CARTESIAN_POINT('',(-648.55,95.8000000809047,6.35));
#1101=CARTESIAN_POINT('Origin',(-647.05,95.8000000421904,6.35));
#1102=CARTESIAN_POINT('Origin',(-667.05,75.8000000421904,6.35));
#1103=CARTESIAN_POINT('',(-668.55,75.800000003476,12.7));
#1104=CARTESIAN_POINT('Origin',(-667.05,75.8000000421904,12.7));
#1105=CARTESIAN_POINT('',(-668.55,75.800000003476,6.35));
#1106=CARTESIAN_POINT('',(-668.55,75.8000000809048,6.35));
#1107=CARTESIAN_POINT('Origin',(-667.05,75.8000000421904,6.35));
#1108=CARTESIAN_POINT('Origin',(-667.050000064258,95.8000001065757,6.35));
#1109=CARTESIAN_POINT('',(-668.550000128517,95.7999999982185,12.7));
#1110=CARTESIAN_POINT('Origin',(-667.050000064258,95.8000001065757,12.7));
#1111=CARTESIAN_POINT('',(-668.550000128517,95.7999999982185,6.35));
#1112=CARTESIAN_POINT('',(-668.550000128517,95.8000002137709,6.35));
#1113=CARTESIAN_POINT('Origin',(-667.050000064258,95.8000001065757,6.35));
#1114=CARTESIAN_POINT('Origin',(-707.900003277679,28.150000231815,6.35));
#1115=CARTESIAN_POINT('',(-715.400003277679,28.150000231815,12.7));
#1116=CARTESIAN_POINT('Origin',(-707.900003277679,28.150000231815,12.7));
#1117=CARTESIAN_POINT('',(-715.400003277679,28.150000231815,6.35));
#1118=CARTESIAN_POINT('',(-715.400003277679,28.150000231815,6.35));
#1119=CARTESIAN_POINT('Origin',(-707.900003277679,28.150000231815,6.35));
#1120=CARTESIAN_POINT('Origin',(142.9,28.149999082837,6.35));
#1121=CARTESIAN_POINT('',(135.4,28.149999082837,12.7));
#1122=CARTESIAN_POINT('Origin',(142.9,28.149999082837,12.7));
#1123=CARTESIAN_POINT('',(135.4,28.149999082837,6.35));
#1124=CARTESIAN_POINT('',(135.4,28.149999082837,6.35));
#1125=CARTESIAN_POINT('Origin',(142.9,28.149999082837,6.35));
#1126=CARTESIAN_POINT('Origin',(142.899999892902,81.6000001776271,6.35));
#1127=CARTESIAN_POINT('',(140.399999785804,81.6000000028736,12.7));
#1128=CARTESIAN_POINT('Origin',(142.899999892902,81.6000001776271,12.7));
#1129=CARTESIAN_POINT('',(140.399999785804,81.6000000028736,6.35));
#1130=CARTESIAN_POINT('',(140.399999785804,81.6000003562857,6.35));
#1131=CARTESIAN_POINT('Origin',(142.899999892902,81.6000001776271,6.35));
#1132=CARTESIAN_POINT('Origin',(-269.8,38.1000000703186,6.35));
#1133=CARTESIAN_POINT('',(-272.3,38.0999999958128,12.7));
#1134=CARTESIAN_POINT('Origin',(-269.8,38.1000000703186,12.7));
#1135=CARTESIAN_POINT('',(-272.3,38.0999999958128,6.35));
#1136=CARTESIAN_POINT('',(-272.3,38.1000001448244,6.35));
#1137=CARTESIAN_POINT('Origin',(-269.8,38.1000000703186,6.35));
#1138=CARTESIAN_POINT('Origin',(-707.900000107098,61.6000001776271,6.35));
#1139=CARTESIAN_POINT('',(-710.400000214196,61.6000000028737,12.7));
#1140=CARTESIAN_POINT('Origin',(-707.900000107098,61.6000001776271,12.7));
#1141=CARTESIAN_POINT('',(-710.400000214196,61.6000000028737,6.35));
#1142=CARTESIAN_POINT('',(-710.400000214196,61.6000003562857,6.35));
#1143=CARTESIAN_POINT('Origin',(-707.900000107098,61.6000001776271,6.35));
#1144=CARTESIAN_POINT('Origin',(-295.200000107098,38.1000001776271,6.35));
#1145=CARTESIAN_POINT('',(-297.700000214196,38.1000000028736,12.7));
#1146=CARTESIAN_POINT('Origin',(-295.200000107098,38.1000001776271,12.7));
#1147=CARTESIAN_POINT('',(-297.700000214196,38.1000000028736,6.35));
#1148=CARTESIAN_POINT('',(-297.700000214196,38.1000003562857,6.35));
#1149=CARTESIAN_POINT('Origin',(-295.200000107098,38.1000001776271,6.35));
#1150=CARTESIAN_POINT('Origin',(142.899999892902,61.600000177627,6.35));
#1151=CARTESIAN_POINT('',(140.399999785804,61.6000000028736,12.7));
#1152=CARTESIAN_POINT('Origin',(142.899999892902,61.600000177627,12.7));
#1153=CARTESIAN_POINT('',(140.399999785804,61.6000000028736,6.35));
#1154=CARTESIAN_POINT('',(140.399999785804,61.6000003562856,6.35));
#1155=CARTESIAN_POINT('Origin',(142.899999892902,61.600000177627,6.35));
#1156=CARTESIAN_POINT('Origin',(-269.800000107098,63.500000177627,6.35));
#1157=CARTESIAN_POINT('',(-272.300000214196,63.5000000028736,12.7));
#1158=CARTESIAN_POINT('Origin',(-269.800000107098,63.500000177627,12.7));
#1159=CARTESIAN_POINT('',(-272.300000214196,63.5000000028736,6.35));
#1160=CARTESIAN_POINT('',(-272.300000214196,63.5000003562857,6.35));
#1161=CARTESIAN_POINT('Origin',(-269.800000107098,63.500000177627,6.35));
#1162=CARTESIAN_POINT('Origin',(-295.200000107098,63.500000177627,6.35));
#1163=CARTESIAN_POINT('',(-297.700000214196,63.5000000028736,12.7));
#1164=CARTESIAN_POINT('Origin',(-295.200000107098,63.500000177627,12.7));
#1165=CARTESIAN_POINT('',(-297.700000214196,63.5000000028736,6.35));
#1166=CARTESIAN_POINT('',(-297.700000214196,63.5000003562857,6.35));
#1167=CARTESIAN_POINT('Origin',(-295.200000107098,63.500000177627,6.35));
#1168=CARTESIAN_POINT('Origin',(-737.05,0.,6.35));
#1169=CARTESIAN_POINT('',(-737.05,0.,6.35));
#1170=CARTESIAN_POINT('',(172.05,0.,6.35));
#1171=CARTESIAN_POINT('',(-737.05,0.,6.35));
#1172=CARTESIAN_POINT('',(172.05,0.,12.7));
#1173=CARTESIAN_POINT('',(172.05,0.,6.35));
#1174=CARTESIAN_POINT('',(-737.05,0.,12.7));
#1175=CARTESIAN_POINT('',(-737.05,0.,12.7));
#1176=CARTESIAN_POINT('',(-737.05,0.,6.35));
#1177=CARTESIAN_POINT('Origin',(-737.05,101.6,6.35));
#1178=CARTESIAN_POINT('',(-737.05,101.6,6.35));
#1179=CARTESIAN_POINT('',(-737.05,101.6,6.35));
#1180=CARTESIAN_POINT('',(-737.05,101.6,12.7));
#1181=CARTESIAN_POINT('',(-737.05,101.6,12.7));
#1182=CARTESIAN_POINT('',(-737.05,101.6,6.35));
#1183=CARTESIAN_POINT('Origin',(172.05,101.6,6.35));
#1184=CARTESIAN_POINT('',(172.05,101.6,6.35));
#1185=CARTESIAN_POINT('',(172.05,101.6,6.35));
#1186=CARTESIAN_POINT('',(172.05,101.6,12.7));
#1187=CARTESIAN_POINT('',(172.05,101.6,12.7));
#1188=CARTESIAN_POINT('',(172.05,101.6,6.35));
#1189=CARTESIAN_POINT('Origin',(172.05,0.,6.35));
#1190=CARTESIAN_POINT('',(172.05,0.,6.35));
#1191=CARTESIAN_POINT('',(172.05,0.,12.7));
#1192=CARTESIAN_POINT('Origin',(-282.5,50.8,12.7));
#1193=CARTESIAN_POINT('Origin',(-282.5,50.8,6.35));
#1194=UNCERTAINTY_MEASURE_WITH_UNIT(LENGTH_MEASURE(0.01),#1198,
'DISTANCE_ACCURACY_VALUE',
'Maximum model space distance between geometric entities at asserted c
onnectivities');
#1195=UNCERTAINTY_MEASURE_WITH_UNIT(LENGTH_MEASURE(0.01),#1198,
'DISTANCE_ACCURACY_VALUE',
'Maximum model space distance between geometric entities at asserted c
onnectivities');
#1196=(
GEOMETRIC_REPRESENTATION_CONTEXT(3)
GLOBAL_UNCERTAINTY_ASSIGNED_CONTEXT((#1194))
GLOBAL_UNIT_ASSIGNED_CONTEXT((#1198,#1201,#1200))
REPRESENTATION_CONTEXT('','3D')
);
#1197=(
GEOMETRIC_REPRESENTATION_CONTEXT(3)
GLOBAL_UNCERTAINTY_ASSIGNED_CONTEXT((#1195))
GLOBAL_UNIT_ASSIGNED_CONTEXT((#1198,#1201,#1200))
REPRESENTATION_CONTEXT('','3D')
);
#1198=(
LENGTH_UNIT()
NAMED_UNIT(*)
SI_UNIT(.MILLI.,.METRE.)
);
#1199=(
LENGTH_UNIT()
NAMED_UNIT(*)
SI_UNIT($,.METRE.)
);
#1200=(
NAMED_UNIT(*)
SI_UNIT($,.STERADIAN.)
SOLID_ANGLE_UNIT()
);
#1201=(
NAMED_UNIT(*)
PLANE_ANGLE_UNIT()
SI_UNIT($,.RADIAN.)
);
#1202=SHAPE_DEFINITION_REPRESENTATION(#1203,#1204);
#1203=PRODUCT_DEFINITION_SHAPE('',$,#1206);
#1204=SHAPE_REPRESENTATION('',(#718),#1196);
#1205=PRODUCT_DEFINITION_CONTEXT('part definition',#1210,'design');
#1206=PRODUCT_DEFINITION('Gantry Plate Idler for 600mm printer',
'Gantry Plate Idler for 600mm printer v2',#1207,#1205);
#1207=PRODUCT_DEFINITION_FORMATION('',$,#1212);
#1208=PRODUCT_RELATED_PRODUCT_CATEGORY(
'Gantry Plate Idler for 600mm printer v2',
'Gantry Plate Idler for 600mm printer v2',(#1212));
#1209=APPLICATION_PROTOCOL_DEFINITION('international standard',
'automotive_design',2009,#1210);
#1210=APPLICATION_CONTEXT(
'Core Data for Automotive Mechanical Design Process');
#1211=PRODUCT_CONTEXT('part definition',#1210,'mechanical');
#1212=PRODUCT('Gantry Plate Idler for 600mm printer',
'Gantry Plate Idler for 600mm printer v2',$,(#1211));
#1213=PRESENTATION_STYLE_ASSIGNMENT((#1214));
#1214=SURFACE_STYLE_USAGE(.BOTH.,#1215);
#1215=SURFACE_SIDE_STYLE('',(#1216));
#1216=SURFACE_STYLE_FILL_AREA(#1217);
#1217=FILL_AREA_STYLE('Steel - Satin',(#1218));
#1218=FILL_AREA_STYLE_COLOUR('Steel - Satin',#1219);
#1219=COLOUR_RGB('Steel - Satin',0.627450980392157,0.627450980392157,0.627450980392157);
ENDSEC;
END-ISO-10303-21;
