ISO-10303-21;
HEADER;
/* Generated by software containing ST-Developer
 * from STEP Tools, Inc. (www.steptools.com) 
 */

FILE_DESCRIPTION(
/* description */ (''),
/* implementation_level */ '2;1');

FILE_NAME(
/* name */ 
'C:/Users/shane/Desktop/Workhorse XL Files/Gantry/Gantry Plate Motor S
ide.step',
/* time_stamp */ '2018-08-26T15:15:47-05:00',
/* author */ ('shane77304'),
/* organization */ (''),
/* preprocessor_version */ 'ST-DEVELOPER v17',
/* originating_system */ 'Autodesk Translation Framework v7.1.0.215',
/* authorisation */ '');

FILE_SCHEMA (('AUTOMOTIVE_DESIGN { 1 0 10303 214 3 1 1 }'));
ENDSEC;

DATA;
#10=MECHANICAL_DESIGN_GEOMETRIC_PRESENTATION_REPRESENTATION('',(#13),#1509);
#11=SHAPE_REPRESENTATION_RELATIONSHIP('SRR','None',#1516,#12);
#12=ADVANCED_BREP_SHAPE_REPRESENTATION('',(#14),#1508);
#13=STYLED_ITEM('',(#1525),#14);
#14=MANIFOLD_SOLID_BREP('Body1',#889);
#15=FACE_BOUND('',#168,.T.);
#16=FACE_BOUND('',#169,.T.);
#17=FACE_BOUND('',#170,.T.);
#18=FACE_BOUND('',#171,.T.);
#19=FACE_BOUND('',#172,.T.);
#20=FACE_BOUND('',#173,.T.);
#21=FACE_BOUND('',#174,.T.);
#22=FACE_BOUND('',#175,.T.);
#23=FACE_BOUND('',#176,.T.);
#24=FACE_BOUND('',#177,.T.);
#25=FACE_BOUND('',#178,.T.);
#26=FACE_BOUND('',#179,.T.);
#27=FACE_BOUND('',#180,.T.);
#28=FACE_BOUND('',#181,.T.);
#29=FACE_BOUND('',#182,.T.);
#30=FACE_BOUND('',#183,.T.);
#31=FACE_BOUND('',#184,.T.);
#32=FACE_BOUND('',#185,.T.);
#33=FACE_BOUND('',#186,.T.);
#34=FACE_BOUND('',#187,.T.);
#35=FACE_BOUND('',#188,.T.);
#36=FACE_BOUND('',#189,.T.);
#37=FACE_BOUND('',#190,.T.);
#38=FACE_BOUND('',#191,.T.);
#39=FACE_BOUND('',#192,.T.);
#40=FACE_BOUND('',#193,.T.);
#41=FACE_BOUND('',#194,.T.);
#42=FACE_BOUND('',#195,.T.);
#43=FACE_BOUND('',#196,.T.);
#44=FACE_BOUND('',#197,.T.);
#45=FACE_BOUND('',#198,.T.);
#46=FACE_BOUND('',#199,.T.);
#47=FACE_BOUND('',#200,.T.);
#48=FACE_BOUND('',#201,.T.);
#49=FACE_BOUND('',#203,.T.);
#50=FACE_BOUND('',#204,.T.);
#51=FACE_BOUND('',#205,.T.);
#52=FACE_BOUND('',#206,.T.);
#53=FACE_BOUND('',#207,.T.);
#54=FACE_BOUND('',#208,.T.);
#55=FACE_BOUND('',#209,.T.);
#56=FACE_BOUND('',#210,.T.);
#57=FACE_BOUND('',#211,.T.);
#58=FACE_BOUND('',#212,.T.);
#59=FACE_BOUND('',#213,.T.);
#60=FACE_BOUND('',#214,.T.);
#61=FACE_BOUND('',#215,.T.);
#62=FACE_BOUND('',#216,.T.);
#63=FACE_BOUND('',#217,.T.);
#64=FACE_BOUND('',#218,.T.);
#65=FACE_BOUND('',#219,.T.);
#66=FACE_BOUND('',#220,.T.);
#67=FACE_BOUND('',#221,.T.);
#68=FACE_BOUND('',#222,.T.);
#69=FACE_BOUND('',#223,.T.);
#70=FACE_BOUND('',#224,.T.);
#71=FACE_BOUND('',#225,.T.);
#72=FACE_BOUND('',#226,.T.);
#73=FACE_BOUND('',#227,.T.);
#74=FACE_BOUND('',#228,.T.);
#75=FACE_BOUND('',#229,.T.);
#76=FACE_BOUND('',#230,.T.);
#77=FACE_BOUND('',#231,.T.);
#78=FACE_BOUND('',#232,.T.);
#79=FACE_BOUND('',#233,.T.);
#80=FACE_BOUND('',#234,.T.);
#81=FACE_BOUND('',#235,.T.);
#82=FACE_BOUND('',#236,.T.);
#83=PLANE('',#1005);
#84=PLANE('',#1006);
#85=PLANE('',#1007);
#86=PLANE('',#1008);
#87=PLANE('',#1009);
#88=PLANE('',#1010);
#89=FACE_OUTER_BOUND('',#129,.T.);
#90=FACE_OUTER_BOUND('',#130,.T.);
#91=FACE_OUTER_BOUND('',#131,.T.);
#92=FACE_OUTER_BOUND('',#132,.T.);
#93=FACE_OUTER_BOUND('',#133,.T.);
#94=FACE_OUTER_BOUND('',#134,.T.);
#95=FACE_OUTER_BOUND('',#135,.T.);
#96=FACE_OUTER_BOUND('',#136,.T.);
#97=FACE_OUTER_BOUND('',#137,.T.);
#98=FACE_OUTER_BOUND('',#138,.T.);
#99=FACE_OUTER_BOUND('',#139,.T.);
#100=FACE_OUTER_BOUND('',#140,.T.);
#101=FACE_OUTER_BOUND('',#141,.T.);
#102=FACE_OUTER_BOUND('',#142,.T.);
#103=FACE_OUTER_BOUND('',#143,.T.);
#104=FACE_OUTER_BOUND('',#144,.T.);
#105=FACE_OUTER_BOUND('',#145,.T.);
#106=FACE_OUTER_BOUND('',#146,.T.);
#107=FACE_OUTER_BOUND('',#147,.T.);
#108=FACE_OUTER_BOUND('',#148,.T.);
#109=FACE_OUTER_BOUND('',#149,.T.);
#110=FACE_OUTER_BOUND('',#150,.T.);
#111=FACE_OUTER_BOUND('',#151,.T.);
#112=FACE_OUTER_BOUND('',#152,.T.);
#113=FACE_OUTER_BOUND('',#153,.T.);
#114=FACE_OUTER_BOUND('',#154,.T.);
#115=FACE_OUTER_BOUND('',#155,.T.);
#116=FACE_OUTER_BOUND('',#156,.T.);
#117=FACE_OUTER_BOUND('',#157,.T.);
#118=FACE_OUTER_BOUND('',#158,.T.);
#119=FACE_OUTER_BOUND('',#159,.T.);
#120=FACE_OUTER_BOUND('',#160,.T.);
#121=FACE_OUTER_BOUND('',#161,.T.);
#122=FACE_OUTER_BOUND('',#162,.T.);
#123=FACE_OUTER_BOUND('',#163,.T.);
#124=FACE_OUTER_BOUND('',#164,.T.);
#125=FACE_OUTER_BOUND('',#165,.T.);
#126=FACE_OUTER_BOUND('',#166,.T.);
#127=FACE_OUTER_BOUND('',#167,.T.);
#128=FACE_OUTER_BOUND('',#202,.T.);
#129=EDGE_LOOP('',(#587,#588,#589,#590));
#130=EDGE_LOOP('',(#591,#592,#593,#594));
#131=EDGE_LOOP('',(#595,#596,#597,#598));
#132=EDGE_LOOP('',(#599,#600,#601,#602));
#133=EDGE_LOOP('',(#603,#604,#605,#606));
#134=EDGE_LOOP('',(#607,#608,#609,#610));
#135=EDGE_LOOP('',(#611,#612,#613,#614));
#136=EDGE_LOOP('',(#615,#616,#617,#618));
#137=EDGE_LOOP('',(#619,#620,#621,#622));
#138=EDGE_LOOP('',(#623,#624,#625,#626));
#139=EDGE_LOOP('',(#627,#628,#629,#630));
#140=EDGE_LOOP('',(#631,#632,#633,#634));
#141=EDGE_LOOP('',(#635,#636,#637,#638));
#142=EDGE_LOOP('',(#639,#640,#641,#642));
#143=EDGE_LOOP('',(#643,#644,#645,#646));
#144=EDGE_LOOP('',(#647,#648,#649,#650));
#145=EDGE_LOOP('',(#651,#652,#653,#654));
#146=EDGE_LOOP('',(#655,#656,#657,#658));
#147=EDGE_LOOP('',(#659,#660,#661,#662));
#148=EDGE_LOOP('',(#663,#664,#665,#666));
#149=EDGE_LOOP('',(#667,#668,#669,#670));
#150=EDGE_LOOP('',(#671,#672,#673,#674));
#151=EDGE_LOOP('',(#675,#676,#677,#678));
#152=EDGE_LOOP('',(#679,#680,#681,#682));
#153=EDGE_LOOP('',(#683,#684,#685,#686));
#154=EDGE_LOOP('',(#687,#688,#689,#690));
#155=EDGE_LOOP('',(#691,#692,#693,#694));
#156=EDGE_LOOP('',(#695,#696,#697,#698));
#157=EDGE_LOOP('',(#699,#700,#701,#702));
#158=EDGE_LOOP('',(#703,#704,#705,#706));
#159=EDGE_LOOP('',(#707,#708,#709,#710));
#160=EDGE_LOOP('',(#711,#712,#713,#714));
#161=EDGE_LOOP('',(#715,#716,#717,#718));
#162=EDGE_LOOP('',(#719,#720,#721,#722));
#163=EDGE_LOOP('',(#723,#724,#725,#726));
#164=EDGE_LOOP('',(#727,#728,#729,#730));
#165=EDGE_LOOP('',(#731,#732,#733,#734));
#166=EDGE_LOOP('',(#735,#736,#737,#738));
#167=EDGE_LOOP('',(#739,#740,#741,#742));
#168=EDGE_LOOP('',(#743));
#169=EDGE_LOOP('',(#744));
#170=EDGE_LOOP('',(#745));
#171=EDGE_LOOP('',(#746));
#172=EDGE_LOOP('',(#747));
#173=EDGE_LOOP('',(#748));
#174=EDGE_LOOP('',(#749));
#175=EDGE_LOOP('',(#750));
#176=EDGE_LOOP('',(#751));
#177=EDGE_LOOP('',(#752));
#178=EDGE_LOOP('',(#753));
#179=EDGE_LOOP('',(#754));
#180=EDGE_LOOP('',(#755));
#181=EDGE_LOOP('',(#756));
#182=EDGE_LOOP('',(#757));
#183=EDGE_LOOP('',(#758));
#184=EDGE_LOOP('',(#759));
#185=EDGE_LOOP('',(#760));
#186=EDGE_LOOP('',(#761));
#187=EDGE_LOOP('',(#762));
#188=EDGE_LOOP('',(#763));
#189=EDGE_LOOP('',(#764));
#190=EDGE_LOOP('',(#765));
#191=EDGE_LOOP('',(#766));
#192=EDGE_LOOP('',(#767));
#193=EDGE_LOOP('',(#768));
#194=EDGE_LOOP('',(#769));
#195=EDGE_LOOP('',(#770));
#196=EDGE_LOOP('',(#771));
#197=EDGE_LOOP('',(#772));
#198=EDGE_LOOP('',(#773));
#199=EDGE_LOOP('',(#774));
#200=EDGE_LOOP('',(#775));
#201=EDGE_LOOP('',(#776));
#202=EDGE_LOOP('',(#777,#778,#779,#780));
#203=EDGE_LOOP('',(#781));
#204=EDGE_LOOP('',(#782));
#205=EDGE_LOOP('',(#783));
#206=EDGE_LOOP('',(#784));
#207=EDGE_LOOP('',(#785));
#208=EDGE_LOOP('',(#786));
#209=EDGE_LOOP('',(#787));
#210=EDGE_LOOP('',(#788));
#211=EDGE_LOOP('',(#789));
#212=EDGE_LOOP('',(#790));
#213=EDGE_LOOP('',(#791));
#214=EDGE_LOOP('',(#792));
#215=EDGE_LOOP('',(#793));
#216=EDGE_LOOP('',(#794));
#217=EDGE_LOOP('',(#795));
#218=EDGE_LOOP('',(#796));
#219=EDGE_LOOP('',(#797));
#220=EDGE_LOOP('',(#798));
#221=EDGE_LOOP('',(#799));
#222=EDGE_LOOP('',(#800));
#223=EDGE_LOOP('',(#801));
#224=EDGE_LOOP('',(#802));
#225=EDGE_LOOP('',(#803));
#226=EDGE_LOOP('',(#804));
#227=EDGE_LOOP('',(#805));
#228=EDGE_LOOP('',(#806));
#229=EDGE_LOOP('',(#807));
#230=EDGE_LOOP('',(#808));
#231=EDGE_LOOP('',(#809));
#232=EDGE_LOOP('',(#810));
#233=EDGE_LOOP('',(#811));
#234=EDGE_LOOP('',(#812));
#235=EDGE_LOOP('',(#813));
#236=EDGE_LOOP('',(#814));
#237=LINE('',#1280,#283);
#238=LINE('',#1286,#284);
#239=LINE('',#1292,#285);
#240=LINE('',#1298,#286);
#241=LINE('',#1304,#287);
#242=LINE('',#1310,#288);
#243=LINE('',#1316,#289);
#244=LINE('',#1322,#290);
#245=LINE('',#1328,#291);
#246=LINE('',#1334,#292);
#247=LINE('',#1340,#293);
#248=LINE('',#1346,#294);
#249=LINE('',#1352,#295);
#250=LINE('',#1358,#296);
#251=LINE('',#1364,#297);
#252=LINE('',#1370,#298);
#253=LINE('',#1376,#299);
#254=LINE('',#1382,#300);
#255=LINE('',#1388,#301);
#256=LINE('',#1394,#302);
#257=LINE('',#1400,#303);
#258=LINE('',#1406,#304);
#259=LINE('',#1412,#305);
#260=LINE('',#1418,#306);
#261=LINE('',#1424,#307);
#262=LINE('',#1430,#308);
#263=LINE('',#1436,#309);
#264=LINE('',#1442,#310);
#265=LINE('',#1448,#311);
#266=LINE('',#1454,#312);
#267=LINE('',#1460,#313);
#268=LINE('',#1466,#314);
#269=LINE('',#1472,#315);
#270=LINE('',#1478,#316);
#271=LINE('',#1483,#317);
#272=LINE('',#1485,#318);
#273=LINE('',#1487,#319);
#274=LINE('',#1488,#320);
#275=LINE('',#1491,#321);
#276=LINE('',#1493,#322);
#277=LINE('',#1494,#323);
#278=LINE('',#1497,#324);
#279=LINE('',#1499,#325);
#280=LINE('',#1500,#326);
#281=LINE('',#1502,#327);
#282=LINE('',#1503,#328);
#283=VECTOR('',#1017,2.5);
#284=VECTOR('',#1024,18.6050032776785);
#285=VECTOR('',#1031,1.50000006425849);
#286=VECTOR('',#1038,1.50000006425849);
#287=VECTOR('',#1045,1.50000006425849);
#288=VECTOR('',#1052,1.50000006425849);
#289=VECTOR('',#1059,1.50000006425849);
#290=VECTOR('',#1066,1.50000006425849);
#291=VECTOR('',#1073,1.50000006425849);
#292=VECTOR('',#1080,1.50000006425849);
#293=VECTOR('',#1087,1.50000006425856);
#294=VECTOR('',#1094,1.50000000000006);
#295=VECTOR('',#1101,1.50000000000006);
#296=VECTOR('',#1108,1.50000006425842);
#297=VECTOR('',#1115,1.50000006425856);
#298=VECTOR('',#1122,1.50000000000006);
#299=VECTOR('',#1129,1.50000000000006);
#300=VECTOR('',#1136,1.50000006425842);
#301=VECTOR('',#1143,2.500000107098);
#302=VECTOR('',#1150,2.50000010709805);
#303=VECTOR('',#1157,2.5);
#304=VECTOR('',#1164,2.5);
#305=VECTOR('',#1171,2.50000010709798);
#306=VECTOR('',#1178,2.50000010709798);
#307=VECTOR('',#1185,2.50000010709798);
#308=VECTOR('',#1192,2.50000010709802);
#309=VECTOR('',#1199,2.5);
#310=VECTOR('',#1206,2.500000107098);
#311=VECTOR('',#1213,2.50000010709805);
#312=VECTOR('',#1220,2.50000010709802);
#313=VECTOR('',#1227,2.50000010709798);
#314=VECTOR('',#1234,2.50000010709798);
#315=VECTOR('',#1241,2.50000010709802);
#316=VECTOR('',#1248,18.6050000000001);
#317=VECTOR('',#1253,10.);
#318=VECTOR('',#1254,10.);
#319=VECTOR('',#1255,10.);
#320=VECTOR('',#1256,10.);
#321=VECTOR('',#1259,10.);
#322=VECTOR('',#1260,10.);
#323=VECTOR('',#1261,10.);
#324=VECTOR('',#1264,10.);
#325=VECTOR('',#1265,10.);
#326=VECTOR('',#1266,10.);
#327=VECTOR('',#1269,10.);
#328=VECTOR('',#1270,10.);
#329=CIRCLE('',#904,2.5);
#330=CIRCLE('',#905,2.5);
#331=CIRCLE('',#907,18.6050032776785);
#332=CIRCLE('',#908,18.6050032776785);
#333=CIRCLE('',#910,1.50000006425849);
#334=CIRCLE('',#911,1.50000006425849);
#335=CIRCLE('',#913,1.50000006425849);
#336=CIRCLE('',#914,1.50000006425849);
#337=CIRCLE('',#916,1.50000006425849);
#338=CIRCLE('',#917,1.50000006425849);
#339=CIRCLE('',#919,1.50000006425849);
#340=CIRCLE('',#920,1.50000006425849);
#341=CIRCLE('',#922,1.50000006425849);
#342=CIRCLE('',#923,1.50000006425849);
#343=CIRCLE('',#925,1.50000006425849);
#344=CIRCLE('',#926,1.50000006425849);
#345=CIRCLE('',#928,1.50000006425849);
#346=CIRCLE('',#929,1.50000006425849);
#347=CIRCLE('',#931,1.50000006425849);
#348=CIRCLE('',#932,1.50000006425849);
#349=CIRCLE('',#934,1.50000006425856);
#350=CIRCLE('',#935,1.50000006425856);
#351=CIRCLE('',#937,1.50000000000006);
#352=CIRCLE('',#938,1.50000000000006);
#353=CIRCLE('',#940,1.50000000000006);
#354=CIRCLE('',#941,1.50000000000006);
#355=CIRCLE('',#943,1.50000006425842);
#356=CIRCLE('',#944,1.50000006425842);
#357=CIRCLE('',#946,1.50000006425856);
#358=CIRCLE('',#947,1.50000006425856);
#359=CIRCLE('',#949,1.50000000000006);
#360=CIRCLE('',#950,1.50000000000006);
#361=CIRCLE('',#952,1.50000000000006);
#362=CIRCLE('',#953,1.50000000000006);
#363=CIRCLE('',#955,1.50000006425842);
#364=CIRCLE('',#956,1.50000006425842);
#365=CIRCLE('',#958,2.500000107098);
#366=CIRCLE('',#959,2.500000107098);
#367=CIRCLE('',#961,2.50000010709805);
#368=CIRCLE('',#962,2.50000010709805);
#369=CIRCLE('',#964,2.5);
#370=CIRCLE('',#965,2.5);
#371=CIRCLE('',#967,2.5);
#372=CIRCLE('',#968,2.5);
#373=CIRCLE('',#970,2.50000010709798);
#374=CIRCLE('',#971,2.50000010709798);
#375=CIRCLE('',#973,2.50000010709798);
#376=CIRCLE('',#974,2.50000010709798);
#377=CIRCLE('',#976,2.50000010709798);
#378=CIRCLE('',#977,2.50000010709798);
#379=CIRCLE('',#979,2.50000010709802);
#380=CIRCLE('',#980,2.50000010709802);
#381=CIRCLE('',#982,2.5);
#382=CIRCLE('',#983,2.5);
#383=CIRCLE('',#985,2.500000107098);
#384=CIRCLE('',#986,2.500000107098);
#385=CIRCLE('',#988,2.50000010709805);
#386=CIRCLE('',#989,2.50000010709805);
#387=CIRCLE('',#991,2.50000010709802);
#388=CIRCLE('',#992,2.50000010709802);
#389=CIRCLE('',#994,2.50000010709798);
#390=CIRCLE('',#995,2.50000010709798);
#391=CIRCLE('',#997,2.50000010709798);
#392=CIRCLE('',#998,2.50000010709798);
#393=CIRCLE('',#1000,2.50000010709802);
#394=CIRCLE('',#1001,2.50000010709802);
#395=CIRCLE('',#1003,18.6050000000001);
#396=CIRCLE('',#1004,18.6050000000001);
#397=VERTEX_POINT('',#1277);
#398=VERTEX_POINT('',#1279);
#399=VERTEX_POINT('',#1283);
#400=VERTEX_POINT('',#1285);
#401=VERTEX_POINT('',#1289);
#402=VERTEX_POINT('',#1291);
#403=VERTEX_POINT('',#1295);
#404=VERTEX_POINT('',#1297);
#405=VERTEX_POINT('',#1301);
#406=VERTEX_POINT('',#1303);
#407=VERTEX_POINT('',#1307);
#408=VERTEX_POINT('',#1309);
#409=VERTEX_POINT('',#1313);
#410=VERTEX_POINT('',#1315);
#411=VERTEX_POINT('',#1319);
#412=VERTEX_POINT('',#1321);
#413=VERTEX_POINT('',#1325);
#414=VERTEX_POINT('',#1327);
#415=VERTEX_POINT('',#1331);
#416=VERTEX_POINT('',#1333);
#417=VERTEX_POINT('',#1337);
#418=VERTEX_POINT('',#1339);
#419=VERTEX_POINT('',#1343);
#420=VERTEX_POINT('',#1345);
#421=VERTEX_POINT('',#1349);
#422=VERTEX_POINT('',#1351);
#423=VERTEX_POINT('',#1355);
#424=VERTEX_POINT('',#1357);
#425=VERTEX_POINT('',#1361);
#426=VERTEX_POINT('',#1363);
#427=VERTEX_POINT('',#1367);
#428=VERTEX_POINT('',#1369);
#429=VERTEX_POINT('',#1373);
#430=VERTEX_POINT('',#1375);
#431=VERTEX_POINT('',#1379);
#432=VERTEX_POINT('',#1381);
#433=VERTEX_POINT('',#1385);
#434=VERTEX_POINT('',#1387);
#435=VERTEX_POINT('',#1391);
#436=VERTEX_POINT('',#1393);
#437=VERTEX_POINT('',#1397);
#438=VERTEX_POINT('',#1399);
#439=VERTEX_POINT('',#1403);
#440=VERTEX_POINT('',#1405);
#441=VERTEX_POINT('',#1409);
#442=VERTEX_POINT('',#1411);
#443=VERTEX_POINT('',#1415);
#444=VERTEX_POINT('',#1417);
#445=VERTEX_POINT('',#1421);
#446=VERTEX_POINT('',#1423);
#447=VERTEX_POINT('',#1427);
#448=VERTEX_POINT('',#1429);
#449=VERTEX_POINT('',#1433);
#450=VERTEX_POINT('',#1435);
#451=VERTEX_POINT('',#1439);
#452=VERTEX_POINT('',#1441);
#453=VERTEX_POINT('',#1445);
#454=VERTEX_POINT('',#1447);
#455=VERTEX_POINT('',#1451);
#456=VERTEX_POINT('',#1453);
#457=VERTEX_POINT('',#1457);
#458=VERTEX_POINT('',#1459);
#459=VERTEX_POINT('',#1463);
#460=VERTEX_POINT('',#1465);
#461=VERTEX_POINT('',#1469);
#462=VERTEX_POINT('',#1471);
#463=VERTEX_POINT('',#1475);
#464=VERTEX_POINT('',#1477);
#465=VERTEX_POINT('',#1481);
#466=VERTEX_POINT('',#1482);
#467=VERTEX_POINT('',#1484);
#468=VERTEX_POINT('',#1486);
#469=VERTEX_POINT('',#1490);
#470=VERTEX_POINT('',#1492);
#471=VERTEX_POINT('',#1496);
#472=VERTEX_POINT('',#1498);
#473=EDGE_CURVE('',#397,#397,#329,.T.);
#474=EDGE_CURVE('',#397,#398,#237,.T.);
#475=EDGE_CURVE('',#398,#398,#330,.T.);
#476=EDGE_CURVE('',#399,#399,#331,.T.);
#477=EDGE_CURVE('',#399,#400,#238,.T.);
#478=EDGE_CURVE('',#400,#400,#332,.T.);
#479=EDGE_CURVE('',#401,#401,#333,.T.);
#480=EDGE_CURVE('',#401,#402,#239,.T.);
#481=EDGE_CURVE('',#402,#402,#334,.T.);
#482=EDGE_CURVE('',#403,#403,#335,.T.);
#483=EDGE_CURVE('',#403,#404,#240,.T.);
#484=EDGE_CURVE('',#404,#404,#336,.T.);
#485=EDGE_CURVE('',#405,#405,#337,.T.);
#486=EDGE_CURVE('',#405,#406,#241,.T.);
#487=EDGE_CURVE('',#406,#406,#338,.T.);
#488=EDGE_CURVE('',#407,#407,#339,.T.);
#489=EDGE_CURVE('',#407,#408,#242,.T.);
#490=EDGE_CURVE('',#408,#408,#340,.T.);
#491=EDGE_CURVE('',#409,#409,#341,.T.);
#492=EDGE_CURVE('',#409,#410,#243,.T.);
#493=EDGE_CURVE('',#410,#410,#342,.T.);
#494=EDGE_CURVE('',#411,#411,#343,.T.);
#495=EDGE_CURVE('',#411,#412,#244,.T.);
#496=EDGE_CURVE('',#412,#412,#344,.T.);
#497=EDGE_CURVE('',#413,#413,#345,.T.);
#498=EDGE_CURVE('',#413,#414,#245,.T.);
#499=EDGE_CURVE('',#414,#414,#346,.T.);
#500=EDGE_CURVE('',#415,#415,#347,.T.);
#501=EDGE_CURVE('',#415,#416,#246,.T.);
#502=EDGE_CURVE('',#416,#416,#348,.T.);
#503=EDGE_CURVE('',#417,#417,#349,.T.);
#504=EDGE_CURVE('',#417,#418,#247,.T.);
#505=EDGE_CURVE('',#418,#418,#350,.T.);
#506=EDGE_CURVE('',#419,#419,#351,.T.);
#507=EDGE_CURVE('',#419,#420,#248,.T.);
#508=EDGE_CURVE('',#420,#420,#352,.T.);
#509=EDGE_CURVE('',#421,#421,#353,.T.);
#510=EDGE_CURVE('',#421,#422,#249,.T.);
#511=EDGE_CURVE('',#422,#422,#354,.T.);
#512=EDGE_CURVE('',#423,#423,#355,.T.);
#513=EDGE_CURVE('',#423,#424,#250,.T.);
#514=EDGE_CURVE('',#424,#424,#356,.T.);
#515=EDGE_CURVE('',#425,#425,#357,.T.);
#516=EDGE_CURVE('',#425,#426,#251,.T.);
#517=EDGE_CURVE('',#426,#426,#358,.T.);
#518=EDGE_CURVE('',#427,#427,#359,.T.);
#519=EDGE_CURVE('',#427,#428,#252,.T.);
#520=EDGE_CURVE('',#428,#428,#360,.T.);
#521=EDGE_CURVE('',#429,#429,#361,.T.);
#522=EDGE_CURVE('',#429,#430,#253,.T.);
#523=EDGE_CURVE('',#430,#430,#362,.T.);
#524=EDGE_CURVE('',#431,#431,#363,.T.);
#525=EDGE_CURVE('',#431,#432,#254,.T.);
#526=EDGE_CURVE('',#432,#432,#364,.T.);
#527=EDGE_CURVE('',#433,#433,#365,.T.);
#528=EDGE_CURVE('',#433,#434,#255,.T.);
#529=EDGE_CURVE('',#434,#434,#366,.T.);
#530=EDGE_CURVE('',#435,#435,#367,.T.);
#531=EDGE_CURVE('',#435,#436,#256,.T.);
#532=EDGE_CURVE('',#436,#436,#368,.T.);
#533=EDGE_CURVE('',#437,#437,#369,.T.);
#534=EDGE_CURVE('',#437,#438,#257,.T.);
#535=EDGE_CURVE('',#438,#438,#370,.T.);
#536=EDGE_CURVE('',#439,#439,#371,.T.);
#537=EDGE_CURVE('',#439,#440,#258,.T.);
#538=EDGE_CURVE('',#440,#440,#372,.T.);
#539=EDGE_CURVE('',#441,#441,#373,.T.);
#540=EDGE_CURVE('',#441,#442,#259,.T.);
#541=EDGE_CURVE('',#442,#442,#374,.T.);
#542=EDGE_CURVE('',#443,#443,#375,.T.);
#543=EDGE_CURVE('',#443,#444,#260,.T.);
#544=EDGE_CURVE('',#444,#444,#376,.T.);
#545=EDGE_CURVE('',#445,#445,#377,.T.);
#546=EDGE_CURVE('',#445,#446,#261,.T.);
#547=EDGE_CURVE('',#446,#446,#378,.T.);
#548=EDGE_CURVE('',#447,#447,#379,.T.);
#549=EDGE_CURVE('',#447,#448,#262,.T.);
#550=EDGE_CURVE('',#448,#448,#380,.T.);
#551=EDGE_CURVE('',#449,#449,#381,.T.);
#552=EDGE_CURVE('',#449,#450,#263,.T.);
#553=EDGE_CURVE('',#450,#450,#382,.T.);
#554=EDGE_CURVE('',#451,#451,#383,.T.);
#555=EDGE_CURVE('',#451,#452,#264,.T.);
#556=EDGE_CURVE('',#452,#452,#384,.T.);
#557=EDGE_CURVE('',#453,#453,#385,.T.);
#558=EDGE_CURVE('',#453,#454,#265,.T.);
#559=EDGE_CURVE('',#454,#454,#386,.T.);
#560=EDGE_CURVE('',#455,#455,#387,.T.);
#561=EDGE_CURVE('',#455,#456,#266,.T.);
#562=EDGE_CURVE('',#456,#456,#388,.T.);
#563=EDGE_CURVE('',#457,#457,#389,.T.);
#564=EDGE_CURVE('',#457,#458,#267,.T.);
#565=EDGE_CURVE('',#458,#458,#390,.T.);
#566=EDGE_CURVE('',#459,#459,#391,.T.);
#567=EDGE_CURVE('',#459,#460,#268,.T.);
#568=EDGE_CURVE('',#460,#460,#392,.T.);
#569=EDGE_CURVE('',#461,#461,#393,.T.);
#570=EDGE_CURVE('',#461,#462,#269,.T.);
#571=EDGE_CURVE('',#462,#462,#394,.T.);
#572=EDGE_CURVE('',#463,#463,#395,.T.);
#573=EDGE_CURVE('',#463,#464,#270,.T.);
#574=EDGE_CURVE('',#464,#464,#396,.T.);
#575=EDGE_CURVE('',#465,#466,#271,.T.);
#576=EDGE_CURVE('',#466,#467,#272,.T.);
#577=EDGE_CURVE('',#468,#467,#273,.T.);
#578=EDGE_CURVE('',#465,#468,#274,.T.);
#579=EDGE_CURVE('',#469,#465,#275,.T.);
#580=EDGE_CURVE('',#470,#468,#276,.T.);
#581=EDGE_CURVE('',#469,#470,#277,.T.);
#582=EDGE_CURVE('',#471,#469,#278,.T.);
#583=EDGE_CURVE('',#472,#470,#279,.T.);
#584=EDGE_CURVE('',#471,#472,#280,.T.);
#585=EDGE_CURVE('',#466,#471,#281,.T.);
#586=EDGE_CURVE('',#467,#472,#282,.T.);
#587=ORIENTED_EDGE('',*,*,#473,.F.);
#588=ORIENTED_EDGE('',*,*,#474,.T.);
#589=ORIENTED_EDGE('',*,*,#475,.T.);
#590=ORIENTED_EDGE('',*,*,#474,.F.);
#591=ORIENTED_EDGE('',*,*,#476,.F.);
#592=ORIENTED_EDGE('',*,*,#477,.T.);
#593=ORIENTED_EDGE('',*,*,#478,.T.);
#594=ORIENTED_EDGE('',*,*,#477,.F.);
#595=ORIENTED_EDGE('',*,*,#479,.F.);
#596=ORIENTED_EDGE('',*,*,#480,.T.);
#597=ORIENTED_EDGE('',*,*,#481,.T.);
#598=ORIENTED_EDGE('',*,*,#480,.F.);
#599=ORIENTED_EDGE('',*,*,#482,.F.);
#600=ORIENTED_EDGE('',*,*,#483,.T.);
#601=ORIENTED_EDGE('',*,*,#484,.T.);
#602=ORIENTED_EDGE('',*,*,#483,.F.);
#603=ORIENTED_EDGE('',*,*,#485,.F.);
#604=ORIENTED_EDGE('',*,*,#486,.T.);
#605=ORIENTED_EDGE('',*,*,#487,.T.);
#606=ORIENTED_EDGE('',*,*,#486,.F.);
#607=ORIENTED_EDGE('',*,*,#488,.F.);
#608=ORIENTED_EDGE('',*,*,#489,.T.);
#609=ORIENTED_EDGE('',*,*,#490,.T.);
#610=ORIENTED_EDGE('',*,*,#489,.F.);
#611=ORIENTED_EDGE('',*,*,#491,.F.);
#612=ORIENTED_EDGE('',*,*,#492,.T.);
#613=ORIENTED_EDGE('',*,*,#493,.T.);
#614=ORIENTED_EDGE('',*,*,#492,.F.);
#615=ORIENTED_EDGE('',*,*,#494,.F.);
#616=ORIENTED_EDGE('',*,*,#495,.T.);
#617=ORIENTED_EDGE('',*,*,#496,.T.);
#618=ORIENTED_EDGE('',*,*,#495,.F.);
#619=ORIENTED_EDGE('',*,*,#497,.F.);
#620=ORIENTED_EDGE('',*,*,#498,.T.);
#621=ORIENTED_EDGE('',*,*,#499,.T.);
#622=ORIENTED_EDGE('',*,*,#498,.F.);
#623=ORIENTED_EDGE('',*,*,#500,.F.);
#624=ORIENTED_EDGE('',*,*,#501,.T.);
#625=ORIENTED_EDGE('',*,*,#502,.T.);
#626=ORIENTED_EDGE('',*,*,#501,.F.);
#627=ORIENTED_EDGE('',*,*,#503,.F.);
#628=ORIENTED_EDGE('',*,*,#504,.T.);
#629=ORIENTED_EDGE('',*,*,#505,.T.);
#630=ORIENTED_EDGE('',*,*,#504,.F.);
#631=ORIENTED_EDGE('',*,*,#506,.F.);
#632=ORIENTED_EDGE('',*,*,#507,.T.);
#633=ORIENTED_EDGE('',*,*,#508,.T.);
#634=ORIENTED_EDGE('',*,*,#507,.F.);
#635=ORIENTED_EDGE('',*,*,#509,.F.);
#636=ORIENTED_EDGE('',*,*,#510,.T.);
#637=ORIENTED_EDGE('',*,*,#511,.T.);
#638=ORIENTED_EDGE('',*,*,#510,.F.);
#639=ORIENTED_EDGE('',*,*,#512,.F.);
#640=ORIENTED_EDGE('',*,*,#513,.T.);
#641=ORIENTED_EDGE('',*,*,#514,.T.);
#642=ORIENTED_EDGE('',*,*,#513,.F.);
#643=ORIENTED_EDGE('',*,*,#515,.F.);
#644=ORIENTED_EDGE('',*,*,#516,.T.);
#645=ORIENTED_EDGE('',*,*,#517,.T.);
#646=ORIENTED_EDGE('',*,*,#516,.F.);
#647=ORIENTED_EDGE('',*,*,#518,.F.);
#648=ORIENTED_EDGE('',*,*,#519,.T.);
#649=ORIENTED_EDGE('',*,*,#520,.T.);
#650=ORIENTED_EDGE('',*,*,#519,.F.);
#651=ORIENTED_EDGE('',*,*,#521,.F.);
#652=ORIENTED_EDGE('',*,*,#522,.T.);
#653=ORIENTED_EDGE('',*,*,#523,.T.);
#654=ORIENTED_EDGE('',*,*,#522,.F.);
#655=ORIENTED_EDGE('',*,*,#524,.F.);
#656=ORIENTED_EDGE('',*,*,#525,.T.);
#657=ORIENTED_EDGE('',*,*,#526,.T.);
#658=ORIENTED_EDGE('',*,*,#525,.F.);
#659=ORIENTED_EDGE('',*,*,#527,.F.);
#660=ORIENTED_EDGE('',*,*,#528,.T.);
#661=ORIENTED_EDGE('',*,*,#529,.T.);
#662=ORIENTED_EDGE('',*,*,#528,.F.);
#663=ORIENTED_EDGE('',*,*,#530,.F.);
#664=ORIENTED_EDGE('',*,*,#531,.T.);
#665=ORIENTED_EDGE('',*,*,#532,.T.);
#666=ORIENTED_EDGE('',*,*,#531,.F.);
#667=ORIENTED_EDGE('',*,*,#533,.F.);
#668=ORIENTED_EDGE('',*,*,#534,.T.);
#669=ORIENTED_EDGE('',*,*,#535,.T.);
#670=ORIENTED_EDGE('',*,*,#534,.F.);
#671=ORIENTED_EDGE('',*,*,#536,.F.);
#672=ORIENTED_EDGE('',*,*,#537,.T.);
#673=ORIENTED_EDGE('',*,*,#538,.T.);
#674=ORIENTED_EDGE('',*,*,#537,.F.);
#675=ORIENTED_EDGE('',*,*,#539,.F.);
#676=ORIENTED_EDGE('',*,*,#540,.T.);
#677=ORIENTED_EDGE('',*,*,#541,.T.);
#678=ORIENTED_EDGE('',*,*,#540,.F.);
#679=ORIENTED_EDGE('',*,*,#542,.F.);
#680=ORIENTED_EDGE('',*,*,#543,.T.);
#681=ORIENTED_EDGE('',*,*,#544,.T.);
#682=ORIENTED_EDGE('',*,*,#543,.F.);
#683=ORIENTED_EDGE('',*,*,#545,.F.);
#684=ORIENTED_EDGE('',*,*,#546,.T.);
#685=ORIENTED_EDGE('',*,*,#547,.T.);
#686=ORIENTED_EDGE('',*,*,#546,.F.);
#687=ORIENTED_EDGE('',*,*,#548,.F.);
#688=ORIENTED_EDGE('',*,*,#549,.T.);
#689=ORIENTED_EDGE('',*,*,#550,.T.);
#690=ORIENTED_EDGE('',*,*,#549,.F.);
#691=ORIENTED_EDGE('',*,*,#551,.F.);
#692=ORIENTED_EDGE('',*,*,#552,.T.);
#693=ORIENTED_EDGE('',*,*,#553,.T.);
#694=ORIENTED_EDGE('',*,*,#552,.F.);
#695=ORIENTED_EDGE('',*,*,#554,.F.);
#696=ORIENTED_EDGE('',*,*,#555,.T.);
#697=ORIENTED_EDGE('',*,*,#556,.T.);
#698=ORIENTED_EDGE('',*,*,#555,.F.);
#699=ORIENTED_EDGE('',*,*,#557,.F.);
#700=ORIENTED_EDGE('',*,*,#558,.T.);
#701=ORIENTED_EDGE('',*,*,#559,.T.);
#702=ORIENTED_EDGE('',*,*,#558,.F.);
#703=ORIENTED_EDGE('',*,*,#560,.F.);
#704=ORIENTED_EDGE('',*,*,#561,.T.);
#705=ORIENTED_EDGE('',*,*,#562,.T.);
#706=ORIENTED_EDGE('',*,*,#561,.F.);
#707=ORIENTED_EDGE('',*,*,#563,.F.);
#708=ORIENTED_EDGE('',*,*,#564,.T.);
#709=ORIENTED_EDGE('',*,*,#565,.T.);
#710=ORIENTED_EDGE('',*,*,#564,.F.);
#711=ORIENTED_EDGE('',*,*,#566,.F.);
#712=ORIENTED_EDGE('',*,*,#567,.T.);
#713=ORIENTED_EDGE('',*,*,#568,.T.);
#714=ORIENTED_EDGE('',*,*,#567,.F.);
#715=ORIENTED_EDGE('',*,*,#569,.F.);
#716=ORIENTED_EDGE('',*,*,#570,.T.);
#717=ORIENTED_EDGE('',*,*,#571,.T.);
#718=ORIENTED_EDGE('',*,*,#570,.F.);
#719=ORIENTED_EDGE('',*,*,#572,.F.);
#720=ORIENTED_EDGE('',*,*,#573,.T.);
#721=ORIENTED_EDGE('',*,*,#574,.T.);
#722=ORIENTED_EDGE('',*,*,#573,.F.);
#723=ORIENTED_EDGE('',*,*,#575,.T.);
#724=ORIENTED_EDGE('',*,*,#576,.T.);
#725=ORIENTED_EDGE('',*,*,#577,.F.);
#726=ORIENTED_EDGE('',*,*,#578,.F.);
#727=ORIENTED_EDGE('',*,*,#579,.T.);
#728=ORIENTED_EDGE('',*,*,#578,.T.);
#729=ORIENTED_EDGE('',*,*,#580,.F.);
#730=ORIENTED_EDGE('',*,*,#581,.F.);
#731=ORIENTED_EDGE('',*,*,#582,.T.);
#732=ORIENTED_EDGE('',*,*,#581,.T.);
#733=ORIENTED_EDGE('',*,*,#583,.F.);
#734=ORIENTED_EDGE('',*,*,#584,.F.);
#735=ORIENTED_EDGE('',*,*,#585,.T.);
#736=ORIENTED_EDGE('',*,*,#584,.T.);
#737=ORIENTED_EDGE('',*,*,#586,.F.);
#738=ORIENTED_EDGE('',*,*,#576,.F.);
#739=ORIENTED_EDGE('',*,*,#586,.T.);
#740=ORIENTED_EDGE('',*,*,#583,.T.);
#741=ORIENTED_EDGE('',*,*,#580,.T.);
#742=ORIENTED_EDGE('',*,*,#577,.T.);
#743=ORIENTED_EDGE('',*,*,#572,.T.);
#744=ORIENTED_EDGE('',*,*,#569,.T.);
#745=ORIENTED_EDGE('',*,*,#566,.T.);
#746=ORIENTED_EDGE('',*,*,#563,.T.);
#747=ORIENTED_EDGE('',*,*,#560,.T.);
#748=ORIENTED_EDGE('',*,*,#557,.T.);
#749=ORIENTED_EDGE('',*,*,#554,.T.);
#750=ORIENTED_EDGE('',*,*,#551,.T.);
#751=ORIENTED_EDGE('',*,*,#548,.T.);
#752=ORIENTED_EDGE('',*,*,#545,.T.);
#753=ORIENTED_EDGE('',*,*,#542,.T.);
#754=ORIENTED_EDGE('',*,*,#539,.T.);
#755=ORIENTED_EDGE('',*,*,#536,.T.);
#756=ORIENTED_EDGE('',*,*,#533,.T.);
#757=ORIENTED_EDGE('',*,*,#530,.T.);
#758=ORIENTED_EDGE('',*,*,#527,.T.);
#759=ORIENTED_EDGE('',*,*,#524,.T.);
#760=ORIENTED_EDGE('',*,*,#521,.T.);
#761=ORIENTED_EDGE('',*,*,#518,.T.);
#762=ORIENTED_EDGE('',*,*,#515,.T.);
#763=ORIENTED_EDGE('',*,*,#512,.T.);
#764=ORIENTED_EDGE('',*,*,#509,.T.);
#765=ORIENTED_EDGE('',*,*,#506,.T.);
#766=ORIENTED_EDGE('',*,*,#503,.T.);
#767=ORIENTED_EDGE('',*,*,#500,.T.);
#768=ORIENTED_EDGE('',*,*,#497,.T.);
#769=ORIENTED_EDGE('',*,*,#494,.T.);
#770=ORIENTED_EDGE('',*,*,#491,.T.);
#771=ORIENTED_EDGE('',*,*,#488,.T.);
#772=ORIENTED_EDGE('',*,*,#485,.T.);
#773=ORIENTED_EDGE('',*,*,#482,.T.);
#774=ORIENTED_EDGE('',*,*,#479,.T.);
#775=ORIENTED_EDGE('',*,*,#476,.T.);
#776=ORIENTED_EDGE('',*,*,#473,.T.);
#777=ORIENTED_EDGE('',*,*,#585,.F.);
#778=ORIENTED_EDGE('',*,*,#575,.F.);
#779=ORIENTED_EDGE('',*,*,#579,.F.);
#780=ORIENTED_EDGE('',*,*,#582,.F.);
#781=ORIENTED_EDGE('',*,*,#574,.F.);
#782=ORIENTED_EDGE('',*,*,#571,.F.);
#783=ORIENTED_EDGE('',*,*,#568,.F.);
#784=ORIENTED_EDGE('',*,*,#565,.F.);
#785=ORIENTED_EDGE('',*,*,#562,.F.);
#786=ORIENTED_EDGE('',*,*,#559,.F.);
#787=ORIENTED_EDGE('',*,*,#556,.F.);
#788=ORIENTED_EDGE('',*,*,#553,.F.);
#789=ORIENTED_EDGE('',*,*,#550,.F.);
#790=ORIENTED_EDGE('',*,*,#547,.F.);
#791=ORIENTED_EDGE('',*,*,#544,.F.);
#792=ORIENTED_EDGE('',*,*,#541,.F.);
#793=ORIENTED_EDGE('',*,*,#538,.F.);
#794=ORIENTED_EDGE('',*,*,#535,.F.);
#795=ORIENTED_EDGE('',*,*,#532,.F.);
#796=ORIENTED_EDGE('',*,*,#529,.F.);
#797=ORIENTED_EDGE('',*,*,#526,.F.);
#798=ORIENTED_EDGE('',*,*,#523,.F.);
#799=ORIENTED_EDGE('',*,*,#520,.F.);
#800=ORIENTED_EDGE('',*,*,#517,.F.);
#801=ORIENTED_EDGE('',*,*,#514,.F.);
#802=ORIENTED_EDGE('',*,*,#511,.F.);
#803=ORIENTED_EDGE('',*,*,#508,.F.);
#804=ORIENTED_EDGE('',*,*,#505,.F.);
#805=ORIENTED_EDGE('',*,*,#502,.F.);
#806=ORIENTED_EDGE('',*,*,#499,.F.);
#807=ORIENTED_EDGE('',*,*,#496,.F.);
#808=ORIENTED_EDGE('',*,*,#493,.F.);
#809=ORIENTED_EDGE('',*,*,#490,.F.);
#810=ORIENTED_EDGE('',*,*,#487,.F.);
#811=ORIENTED_EDGE('',*,*,#484,.F.);
#812=ORIENTED_EDGE('',*,*,#481,.F.);
#813=ORIENTED_EDGE('',*,*,#478,.F.);
#814=ORIENTED_EDGE('',*,*,#475,.F.);
#815=CYLINDRICAL_SURFACE('',#903,2.5);
#816=CYLINDRICAL_SURFACE('',#906,18.6050032776785);
#817=CYLINDRICAL_SURFACE('',#909,1.50000006425849);
#818=CYLINDRICAL_SURFACE('',#912,1.50000006425849);
#819=CYLINDRICAL_SURFACE('',#915,1.50000006425849);
#820=CYLINDRICAL_SURFACE('',#918,1.50000006425849);
#821=CYLINDRICAL_SURFACE('',#921,1.50000006425849);
#822=CYLINDRICAL_SURFACE('',#924,1.50000006425849);
#823=CYLINDRICAL_SURFACE('',#927,1.50000006425849);
#824=CYLINDRICAL_SURFACE('',#930,1.50000006425849);
#825=CYLINDRICAL_SURFACE('',#933,1.50000006425856);
#826=CYLINDRICAL_SURFACE('',#936,1.50000000000006);
#827=CYLINDRICAL_SURFACE('',#939,1.50000000000006);
#828=CYLINDRICAL_SURFACE('',#942,1.50000006425842);
#829=CYLINDRICAL_SURFACE('',#945,1.50000006425856);
#830=CYLINDRICAL_SURFACE('',#948,1.50000000000006);
#831=CYLINDRICAL_SURFACE('',#951,1.50000000000006);
#832=CYLINDRICAL_SURFACE('',#954,1.50000006425842);
#833=CYLINDRICAL_SURFACE('',#957,2.500000107098);
#834=CYLINDRICAL_SURFACE('',#960,2.50000010709805);
#835=CYLINDRICAL_SURFACE('',#963,2.5);
#836=CYLINDRICAL_SURFACE('',#966,2.5);
#837=CYLINDRICAL_SURFACE('',#969,2.50000010709798);
#838=CYLINDRICAL_SURFACE('',#972,2.50000010709798);
#839=CYLINDRICAL_SURFACE('',#975,2.50000010709798);
#840=CYLINDRICAL_SURFACE('',#978,2.50000010709802);
#841=CYLINDRICAL_SURFACE('',#981,2.5);
#842=CYLINDRICAL_SURFACE('',#984,2.500000107098);
#843=CYLINDRICAL_SURFACE('',#987,2.50000010709805);
#844=CYLINDRICAL_SURFACE('',#990,2.50000010709802);
#845=CYLINDRICAL_SURFACE('',#993,2.50000010709798);
#846=CYLINDRICAL_SURFACE('',#996,2.50000010709798);
#847=CYLINDRICAL_SURFACE('',#999,2.50000010709802);
#848=CYLINDRICAL_SURFACE('',#1002,18.6050000000001);
#849=ADVANCED_FACE('',(#89),#815,.F.);
#850=ADVANCED_FACE('',(#90),#816,.F.);
#851=ADVANCED_FACE('',(#91),#817,.F.);
#852=ADVANCED_FACE('',(#92),#818,.F.);
#853=ADVANCED_FACE('',(#93),#819,.F.);
#854=ADVANCED_FACE('',(#94),#820,.F.);
#855=ADVANCED_FACE('',(#95),#821,.F.);
#856=ADVANCED_FACE('',(#96),#822,.F.);
#857=ADVANCED_FACE('',(#97),#823,.F.);
#858=ADVANCED_FACE('',(#98),#824,.F.);
#859=ADVANCED_FACE('',(#99),#825,.F.);
#860=ADVANCED_FACE('',(#100),#826,.F.);
#861=ADVANCED_FACE('',(#101),#827,.F.);
#862=ADVANCED_FACE('',(#102),#828,.F.);
#863=ADVANCED_FACE('',(#103),#829,.F.);
#864=ADVANCED_FACE('',(#104),#830,.F.);
#865=ADVANCED_FACE('',(#105),#831,.F.);
#866=ADVANCED_FACE('',(#106),#832,.F.);
#867=ADVANCED_FACE('',(#107),#833,.F.);
#868=ADVANCED_FACE('',(#108),#834,.F.);
#869=ADVANCED_FACE('',(#109),#835,.F.);
#870=ADVANCED_FACE('',(#110),#836,.F.);
#871=ADVANCED_FACE('',(#111),#837,.F.);
#872=ADVANCED_FACE('',(#112),#838,.F.);
#873=ADVANCED_FACE('',(#113),#839,.F.);
#874=ADVANCED_FACE('',(#114),#840,.F.);
#875=ADVANCED_FACE('',(#115),#841,.F.);
#876=ADVANCED_FACE('',(#116),#842,.F.);
#877=ADVANCED_FACE('',(#117),#843,.F.);
#878=ADVANCED_FACE('',(#118),#844,.F.);
#879=ADVANCED_FACE('',(#119),#845,.F.);
#880=ADVANCED_FACE('',(#120),#846,.F.);
#881=ADVANCED_FACE('',(#121),#847,.F.);
#882=ADVANCED_FACE('',(#122),#848,.F.);
#883=ADVANCED_FACE('',(#123),#83,.T.);
#884=ADVANCED_FACE('',(#124),#84,.T.);
#885=ADVANCED_FACE('',(#125),#85,.T.);
#886=ADVANCED_FACE('',(#126),#86,.T.);
#887=ADVANCED_FACE('',(#127,#15,#16,#17,#18,#19,#20,#21,#22,#23,#24,#25,
#26,#27,#28,#29,#30,#31,#32,#33,#34,#35,#36,#37,#38,#39,#40,#41,#42,#43,
#44,#45,#46,#47,#48),#87,.T.);
#888=ADVANCED_FACE('',(#128,#49,#50,#51,#52,#53,#54,#55,#56,#57,#58,#59,
#60,#61,#62,#63,#64,#65,#66,#67,#68,#69,#70,#71,#72,#73,#74,#75,#76,#77,
#78,#79,#80,#81,#82),#88,.F.);
#889=CLOSED_SHELL('',(#849,#850,#851,#852,#853,#854,#855,#856,#857,#858,
#859,#860,#861,#862,#863,#864,#865,#866,#867,#868,#869,#870,#871,#872,#873,
#874,#875,#876,#877,#878,#879,#880,#881,#882,#883,#884,#885,#886,#887,#888));
#890=DERIVED_UNIT_ELEMENT(#892,1.);
#891=DERIVED_UNIT_ELEMENT(#1511,3.);
#892=(
MASS_UNIT()
NAMED_UNIT(*)
SI_UNIT(.KILO.,.GRAM.)
);
#893=DERIVED_UNIT((#890,#891));
#894=MEASURE_REPRESENTATION_ITEM('density measure',
POSITIVE_RATIO_MEASURE(7850.),#893);
#895=PROPERTY_DEFINITION_REPRESENTATION(#900,#897);
#896=PROPERTY_DEFINITION_REPRESENTATION(#901,#898);
#897=REPRESENTATION('material name',(#899),#1508);
#898=REPRESENTATION('density',(#894),#1508);
#899=DESCRIPTIVE_REPRESENTATION_ITEM('Steel','Steel');
#900=PROPERTY_DEFINITION('material property','material name',#1518);
#901=PROPERTY_DEFINITION('material property','density of part',#1518);
#902=AXIS2_PLACEMENT_3D('placement',#1275,#1011,#1012);
#903=AXIS2_PLACEMENT_3D('',#1276,#1013,#1014);
#904=AXIS2_PLACEMENT_3D('',#1278,#1015,#1016);
#905=AXIS2_PLACEMENT_3D('',#1281,#1018,#1019);
#906=AXIS2_PLACEMENT_3D('',#1282,#1020,#1021);
#907=AXIS2_PLACEMENT_3D('',#1284,#1022,#1023);
#908=AXIS2_PLACEMENT_3D('',#1287,#1025,#1026);
#909=AXIS2_PLACEMENT_3D('',#1288,#1027,#1028);
#910=AXIS2_PLACEMENT_3D('',#1290,#1029,#1030);
#911=AXIS2_PLACEMENT_3D('',#1293,#1032,#1033);
#912=AXIS2_PLACEMENT_3D('',#1294,#1034,#1035);
#913=AXIS2_PLACEMENT_3D('',#1296,#1036,#1037);
#914=AXIS2_PLACEMENT_3D('',#1299,#1039,#1040);
#915=AXIS2_PLACEMENT_3D('',#1300,#1041,#1042);
#916=AXIS2_PLACEMENT_3D('',#1302,#1043,#1044);
#917=AXIS2_PLACEMENT_3D('',#1305,#1046,#1047);
#918=AXIS2_PLACEMENT_3D('',#1306,#1048,#1049);
#919=AXIS2_PLACEMENT_3D('',#1308,#1050,#1051);
#920=AXIS2_PLACEMENT_3D('',#1311,#1053,#1054);
#921=AXIS2_PLACEMENT_3D('',#1312,#1055,#1056);
#922=AXIS2_PLACEMENT_3D('',#1314,#1057,#1058);
#923=AXIS2_PLACEMENT_3D('',#1317,#1060,#1061);
#924=AXIS2_PLACEMENT_3D('',#1318,#1062,#1063);
#925=AXIS2_PLACEMENT_3D('',#1320,#1064,#1065);
#926=AXIS2_PLACEMENT_3D('',#1323,#1067,#1068);
#927=AXIS2_PLACEMENT_3D('',#1324,#1069,#1070);
#928=AXIS2_PLACEMENT_3D('',#1326,#1071,#1072);
#929=AXIS2_PLACEMENT_3D('',#1329,#1074,#1075);
#930=AXIS2_PLACEMENT_3D('',#1330,#1076,#1077);
#931=AXIS2_PLACEMENT_3D('',#1332,#1078,#1079);
#932=AXIS2_PLACEMENT_3D('',#1335,#1081,#1082);
#933=AXIS2_PLACEMENT_3D('',#1336,#1083,#1084);
#934=AXIS2_PLACEMENT_3D('',#1338,#1085,#1086);
#935=AXIS2_PLACEMENT_3D('',#1341,#1088,#1089);
#936=AXIS2_PLACEMENT_3D('',#1342,#1090,#1091);
#937=AXIS2_PLACEMENT_3D('',#1344,#1092,#1093);
#938=AXIS2_PLACEMENT_3D('',#1347,#1095,#1096);
#939=AXIS2_PLACEMENT_3D('',#1348,#1097,#1098);
#940=AXIS2_PLACEMENT_3D('',#1350,#1099,#1100);
#941=AXIS2_PLACEMENT_3D('',#1353,#1102,#1103);
#942=AXIS2_PLACEMENT_3D('',#1354,#1104,#1105);
#943=AXIS2_PLACEMENT_3D('',#1356,#1106,#1107);
#944=AXIS2_PLACEMENT_3D('',#1359,#1109,#1110);
#945=AXIS2_PLACEMENT_3D('',#1360,#1111,#1112);
#946=AXIS2_PLACEMENT_3D('',#1362,#1113,#1114);
#947=AXIS2_PLACEMENT_3D('',#1365,#1116,#1117);
#948=AXIS2_PLACEMENT_3D('',#1366,#1118,#1119);
#949=AXIS2_PLACEMENT_3D('',#1368,#1120,#1121);
#950=AXIS2_PLACEMENT_3D('',#1371,#1123,#1124);
#951=AXIS2_PLACEMENT_3D('',#1372,#1125,#1126);
#952=AXIS2_PLACEMENT_3D('',#1374,#1127,#1128);
#953=AXIS2_PLACEMENT_3D('',#1377,#1130,#1131);
#954=AXIS2_PLACEMENT_3D('',#1378,#1132,#1133);
#955=AXIS2_PLACEMENT_3D('',#1380,#1134,#1135);
#956=AXIS2_PLACEMENT_3D('',#1383,#1137,#1138);
#957=AXIS2_PLACEMENT_3D('',#1384,#1139,#1140);
#958=AXIS2_PLACEMENT_3D('',#1386,#1141,#1142);
#959=AXIS2_PLACEMENT_3D('',#1389,#1144,#1145);
#960=AXIS2_PLACEMENT_3D('',#1390,#1146,#1147);
#961=AXIS2_PLACEMENT_3D('',#1392,#1148,#1149);
#962=AXIS2_PLACEMENT_3D('',#1395,#1151,#1152);
#963=AXIS2_PLACEMENT_3D('',#1396,#1153,#1154);
#964=AXIS2_PLACEMENT_3D('',#1398,#1155,#1156);
#965=AXIS2_PLACEMENT_3D('',#1401,#1158,#1159);
#966=AXIS2_PLACEMENT_3D('',#1402,#1160,#1161);
#967=AXIS2_PLACEMENT_3D('',#1404,#1162,#1163);
#968=AXIS2_PLACEMENT_3D('',#1407,#1165,#1166);
#969=AXIS2_PLACEMENT_3D('',#1408,#1167,#1168);
#970=AXIS2_PLACEMENT_3D('',#1410,#1169,#1170);
#971=AXIS2_PLACEMENT_3D('',#1413,#1172,#1173);
#972=AXIS2_PLACEMENT_3D('',#1414,#1174,#1175);
#973=AXIS2_PLACEMENT_3D('',#1416,#1176,#1177);
#974=AXIS2_PLACEMENT_3D('',#1419,#1179,#1180);
#975=AXIS2_PLACEMENT_3D('',#1420,#1181,#1182);
#976=AXIS2_PLACEMENT_3D('',#1422,#1183,#1184);
#977=AXIS2_PLACEMENT_3D('',#1425,#1186,#1187);
#978=AXIS2_PLACEMENT_3D('',#1426,#1188,#1189);
#979=AXIS2_PLACEMENT_3D('',#1428,#1190,#1191);
#980=AXIS2_PLACEMENT_3D('',#1431,#1193,#1194);
#981=AXIS2_PLACEMENT_3D('',#1432,#1195,#1196);
#982=AXIS2_PLACEMENT_3D('',#1434,#1197,#1198);
#983=AXIS2_PLACEMENT_3D('',#1437,#1200,#1201);
#984=AXIS2_PLACEMENT_3D('',#1438,#1202,#1203);
#985=AXIS2_PLACEMENT_3D('',#1440,#1204,#1205);
#986=AXIS2_PLACEMENT_3D('',#1443,#1207,#1208);
#987=AXIS2_PLACEMENT_3D('',#1444,#1209,#1210);
#988=AXIS2_PLACEMENT_3D('',#1446,#1211,#1212);
#989=AXIS2_PLACEMENT_3D('',#1449,#1214,#1215);
#990=AXIS2_PLACEMENT_3D('',#1450,#1216,#1217);
#991=AXIS2_PLACEMENT_3D('',#1452,#1218,#1219);
#992=AXIS2_PLACEMENT_3D('',#1455,#1221,#1222);
#993=AXIS2_PLACEMENT_3D('',#1456,#1223,#1224);
#994=AXIS2_PLACEMENT_3D('',#1458,#1225,#1226);
#995=AXIS2_PLACEMENT_3D('',#1461,#1228,#1229);
#996=AXIS2_PLACEMENT_3D('',#1462,#1230,#1231);
#997=AXIS2_PLACEMENT_3D('',#1464,#1232,#1233);
#998=AXIS2_PLACEMENT_3D('',#1467,#1235,#1236);
#999=AXIS2_PLACEMENT_3D('',#1468,#1237,#1238);
#1000=AXIS2_PLACEMENT_3D('',#1470,#1239,#1240);
#1001=AXIS2_PLACEMENT_3D('',#1473,#1242,#1243);
#1002=AXIS2_PLACEMENT_3D('',#1474,#1244,#1245);
#1003=AXIS2_PLACEMENT_3D('',#1476,#1246,#1247);
#1004=AXIS2_PLACEMENT_3D('',#1479,#1249,#1250);
#1005=AXIS2_PLACEMENT_3D('',#1480,#1251,#1252);
#1006=AXIS2_PLACEMENT_3D('',#1489,#1257,#1258);
#1007=AXIS2_PLACEMENT_3D('',#1495,#1262,#1263);
#1008=AXIS2_PLACEMENT_3D('',#1501,#1267,#1268);
#1009=AXIS2_PLACEMENT_3D('',#1504,#1271,#1272);
#1010=AXIS2_PLACEMENT_3D('',#1505,#1273,#1274);
#1011=DIRECTION('axis',(0.,0.,1.));
#1012=DIRECTION('refdir',(1.,0.,0.));
#1013=DIRECTION('center_axis',(0.,0.,1.));
#1014=DIRECTION('ref_axis',(1.,-2.98023223876953E-8,0.));
#1015=DIRECTION('center_axis',(0.,0.,-1.));
#1016=DIRECTION('ref_axis',(1.,-2.98023223876953E-8,0.));
#1017=DIRECTION('',(0.,0.,-1.));
#1018=DIRECTION('center_axis',(0.,0.,-1.));
#1019=DIRECTION('ref_axis',(1.,-2.98023223876953E-8,0.));
#1020=DIRECTION('center_axis',(0.,0.,1.));
#1021=DIRECTION('ref_axis',(-1.,0.,0.));
#1022=DIRECTION('center_axis',(0.,0.,-1.));
#1023=DIRECTION('ref_axis',(-1.,0.,0.));
#1024=DIRECTION('',(0.,0.,-1.));
#1025=DIRECTION('center_axis',(0.,0.,-1.));
#1026=DIRECTION('ref_axis',(-1.,0.,0.));
#1027=DIRECTION('center_axis',(0.,0.,1.));
#1028=DIRECTION('ref_axis',(0.999999999999997,-7.14634602337326E-8,0.));
#1029=DIRECTION('center_axis',(0.,0.,-1.));
#1030=DIRECTION('ref_axis',(0.999999999999997,-7.14634602337326E-8,0.));
#1031=DIRECTION('',(0.,0.,-1.));
#1032=DIRECTION('center_axis',(0.,0.,-1.));
#1033=DIRECTION('ref_axis',(0.999999999999997,-7.14634602337326E-8,0.));
#1034=DIRECTION('center_axis',(0.,0.,1.));
#1035=DIRECTION('ref_axis',(0.999999999999997,-7.14634543125434E-8,0.));
#1036=DIRECTION('center_axis',(0.,0.,-1.));
#1037=DIRECTION('ref_axis',(0.999999999999997,-7.14634543125434E-8,0.));
#1038=DIRECTION('',(0.,0.,-1.));
#1039=DIRECTION('center_axis',(0.,0.,-1.));
#1040=DIRECTION('ref_axis',(0.999999999999997,-7.14634543125434E-8,0.));
#1041=DIRECTION('center_axis',(0.,0.,1.));
#1042=DIRECTION('ref_axis',(0.999999999999997,-7.14634602337326E-8,0.));
#1043=DIRECTION('center_axis',(0.,0.,-1.));
#1044=DIRECTION('ref_axis',(0.999999999999997,-7.14634602337326E-8,0.));
#1045=DIRECTION('',(0.,0.,-1.));
#1046=DIRECTION('center_axis',(0.,0.,-1.));
#1047=DIRECTION('ref_axis',(0.999999999999997,-7.14634602337326E-8,0.));
#1048=DIRECTION('center_axis',(0.,0.,1.));
#1049=DIRECTION('ref_axis',(0.999999999999997,-7.14634543125434E-8,0.));
#1050=DIRECTION('center_axis',(0.,0.,-1.));
#1051=DIRECTION('ref_axis',(0.999999999999997,-7.14634543125434E-8,0.));
#1052=DIRECTION('',(0.,0.,-1.));
#1053=DIRECTION('center_axis',(0.,0.,-1.));
#1054=DIRECTION('ref_axis',(0.999999999999997,-7.14634543125434E-8,0.));
#1055=DIRECTION('center_axis',(0.,0.,1.));
#1056=DIRECTION('ref_axis',(0.999999999999997,-7.1463457273138E-8,0.));
#1057=DIRECTION('center_axis',(0.,0.,-1.));
#1058=DIRECTION('ref_axis',(0.999999999999997,-7.1463457273138E-8,0.));
#1059=DIRECTION('',(0.,0.,-1.));
#1060=DIRECTION('center_axis',(0.,0.,-1.));
#1061=DIRECTION('ref_axis',(0.999999999999997,-7.1463457273138E-8,0.));
#1062=DIRECTION('center_axis',(0.,0.,1.));
#1063=DIRECTION('ref_axis',(0.999999999999997,-7.14634565329894E-8,0.));
#1064=DIRECTION('center_axis',(0.,0.,-1.));
#1065=DIRECTION('ref_axis',(0.999999999999997,-7.14634565329894E-8,0.));
#1066=DIRECTION('',(0.,0.,-1.));
#1067=DIRECTION('center_axis',(0.,0.,-1.));
#1068=DIRECTION('ref_axis',(0.999999999999997,-7.14634565329894E-8,0.));
#1069=DIRECTION('center_axis',(0.,0.,1.));
#1070=DIRECTION('ref_axis',(0.999999999999997,-7.1463457273138E-8,0.));
#1071=DIRECTION('center_axis',(0.,0.,-1.));
#1072=DIRECTION('ref_axis',(0.999999999999997,-7.1463457273138E-8,0.));
#1073=DIRECTION('',(0.,0.,-1.));
#1074=DIRECTION('center_axis',(0.,0.,-1.));
#1075=DIRECTION('ref_axis',(0.999999999999997,-7.1463457273138E-8,0.));
#1076=DIRECTION('center_axis',(0.,0.,1.));
#1077=DIRECTION('ref_axis',(0.999999999999997,-7.14634565329894E-8,0.));
#1078=DIRECTION('center_axis',(0.,0.,-1.));
#1079=DIRECTION('ref_axis',(0.999999999999997,-7.14634565329894E-8,0.));
#1080=DIRECTION('',(0.,0.,-1.));
#1081=DIRECTION('center_axis',(0.,0.,-1.));
#1082=DIRECTION('ref_axis',(0.999999999999997,-7.14634565329894E-8,0.));
#1083=DIRECTION('center_axis',(0.,0.,1.));
#1084=DIRECTION('ref_axis',(0.999999999999997,-7.15220903689994E-8,0.));
#1085=DIRECTION('center_axis',(0.,0.,-1.));
#1086=DIRECTION('ref_axis',(0.999999999999997,-7.15220903689994E-8,0.));
#1087=DIRECTION('',(0.,0.,-1.));
#1088=DIRECTION('center_axis',(0.,0.,-1.));
#1089=DIRECTION('ref_axis',(0.999999999999997,-7.15220903689994E-8,0.));
#1090=DIRECTION('center_axis',(0.,0.,1.));
#1091=DIRECTION('ref_axis',(1.,-2.58095678162808E-8,0.));
#1092=DIRECTION('center_axis',(0.,0.,-1.));
#1093=DIRECTION('ref_axis',(1.,-2.58095678162808E-8,0.));
#1094=DIRECTION('',(0.,0.,-1.));
#1095=DIRECTION('center_axis',(0.,0.,-1.));
#1096=DIRECTION('ref_axis',(1.,-2.58095678162808E-8,0.));
#1097=DIRECTION('center_axis',(0.,0.,1.));
#1098=DIRECTION('ref_axis',(1.,-2.58095670761321E-8,0.));
#1099=DIRECTION('center_axis',(0.,0.,-1.));
#1100=DIRECTION('ref_axis',(1.,-2.58095670761321E-8,0.));
#1101=DIRECTION('',(0.,0.,-1.));
#1102=DIRECTION('center_axis',(0.,0.,-1.));
#1103=DIRECTION('ref_axis',(1.,-2.58095670761321E-8,0.));
#1104=DIRECTION('center_axis',(0.,0.,1.));
#1105=DIRECTION('ref_axis',(0.999999999999997,-7.14634572731414E-8,0.));
#1106=DIRECTION('center_axis',(0.,0.,-1.));
#1107=DIRECTION('ref_axis',(0.999999999999997,-7.14634572731414E-8,0.));
#1108=DIRECTION('',(0.,0.,-1.));
#1109=DIRECTION('center_axis',(0.,0.,-1.));
#1110=DIRECTION('ref_axis',(0.999999999999997,-7.14634572731414E-8,0.));
#1111=DIRECTION('center_axis',(0.,0.,1.));
#1112=DIRECTION('ref_axis',(0.999999999999997,-7.15220918492966E-8,0.));
#1113=DIRECTION('center_axis',(0.,0.,-1.));
#1114=DIRECTION('ref_axis',(0.999999999999997,-7.15220918492966E-8,0.));
#1115=DIRECTION('',(0.,0.,-1.));
#1116=DIRECTION('center_axis',(0.,0.,-1.));
#1117=DIRECTION('ref_axis',(0.999999999999997,-7.15220918492966E-8,0.));
#1118=DIRECTION('center_axis',(0.,0.,1.));
#1119=DIRECTION('ref_axis',(1.,-2.5809564855686E-8,0.));
#1120=DIRECTION('center_axis',(0.,0.,-1.));
#1121=DIRECTION('ref_axis',(1.,-2.5809564855686E-8,0.));
#1122=DIRECTION('',(0.,0.,-1.));
#1123=DIRECTION('center_axis',(0.,0.,-1.));
#1124=DIRECTION('ref_axis',(1.,-2.5809564855686E-8,0.));
#1125=DIRECTION('center_axis',(0.,0.,1.));
#1126=DIRECTION('ref_axis',(1.,-2.5809564855686E-8,0.));
#1127=DIRECTION('center_axis',(0.,0.,-1.));
#1128=DIRECTION('ref_axis',(1.,-2.5809564855686E-8,0.));
#1129=DIRECTION('',(0.,0.,-1.));
#1130=DIRECTION('center_axis',(0.,0.,-1.));
#1131=DIRECTION('ref_axis',(1.,-2.5809564855686E-8,0.));
#1132=DIRECTION('center_axis',(0.,0.,1.));
#1133=DIRECTION('ref_axis',(0.999999999999997,-7.1463460233736E-8,0.));
#1134=DIRECTION('center_axis',(0.,0.,-1.));
#1135=DIRECTION('ref_axis',(0.999999999999997,-7.1463460233736E-8,0.));
#1136=DIRECTION('',(0.,0.,-1.));
#1137=DIRECTION('center_axis',(0.,0.,-1.));
#1138=DIRECTION('ref_axis',(0.999999999999997,-7.1463460233736E-8,0.));
#1139=DIRECTION('center_axis',(0.,0.,1.));
#1140=DIRECTION('ref_axis',(0.999999999999998,-7.14634578652422E-8,0.));
#1141=DIRECTION('center_axis',(0.,0.,-1.));
#1142=DIRECTION('ref_axis',(0.999999999999998,-7.14634578652422E-8,0.));
#1143=DIRECTION('',(0.,0.,-1.));
#1144=DIRECTION('center_axis',(0.,0.,-1.));
#1145=DIRECTION('ref_axis',(0.999999999999998,-7.14634578652422E-8,0.));
#1146=DIRECTION('center_axis',(0.,0.,1.));
#1147=DIRECTION('ref_axis',(0.999999999999998,-7.14634563109285E-8,0.));
#1148=DIRECTION('center_axis',(0.,0.,-1.));
#1149=DIRECTION('ref_axis',(0.999999999999998,-7.14634563109285E-8,0.));
#1150=DIRECTION('',(0.,0.,-1.));
#1151=DIRECTION('center_axis',(0.,0.,-1.));
#1152=DIRECTION('ref_axis',(0.999999999999998,-7.14634563109285E-8,0.));
#1153=DIRECTION('center_axis',(0.,0.,1.));
#1154=DIRECTION('ref_axis',(1.,-2.98023223876953E-8,0.));
#1155=DIRECTION('center_axis',(0.,0.,-1.));
#1156=DIRECTION('ref_axis',(1.,-2.98023223876953E-8,0.));
#1157=DIRECTION('',(0.,0.,-1.));
#1158=DIRECTION('center_axis',(0.,0.,-1.));
#1159=DIRECTION('ref_axis',(1.,-2.98023223876953E-8,0.));
#1160=DIRECTION('center_axis',(0.,0.,1.));
#1161=DIRECTION('ref_axis',(1.,-2.58095660399249E-8,0.));
#1162=DIRECTION('center_axis',(0.,0.,-1.));
#1163=DIRECTION('ref_axis',(1.,-2.58095660399249E-8,0.));
#1164=DIRECTION('',(0.,0.,-1.));
#1165=DIRECTION('center_axis',(0.,0.,-1.));
#1166=DIRECTION('ref_axis',(1.,-2.58095660399249E-8,0.));
#1167=DIRECTION('center_axis',(0.,0.,1.));
#1168=DIRECTION('ref_axis',(0.999999999999998,-7.14634578652427E-8,0.));
#1169=DIRECTION('center_axis',(0.,0.,-1.));
#1170=DIRECTION('ref_axis',(0.999999999999998,-7.14634578652427E-8,0.));
#1171=DIRECTION('',(0.,0.,-1.));
#1172=DIRECTION('center_axis',(0.,0.,-1.));
#1173=DIRECTION('ref_axis',(0.999999999999998,-7.14634578652427E-8,0.));
#1174=DIRECTION('center_axis',(0.,0.,1.));
#1175=DIRECTION('ref_axis',(0.999999999999998,-7.14634578652427E-8,0.));
#1176=DIRECTION('center_axis',(0.,0.,-1.));
#1177=DIRECTION('ref_axis',(0.999999999999998,-7.14634578652427E-8,0.));
#1178=DIRECTION('',(0.,0.,-1.));
#1179=DIRECTION('center_axis',(0.,0.,-1.));
#1180=DIRECTION('ref_axis',(0.999999999999998,-7.14634578652427E-8,0.));
#1181=DIRECTION('center_axis',(0.,0.,1.));
#1182=DIRECTION('ref_axis',(0.999999999999998,-7.14634563109306E-8,0.));
#1183=DIRECTION('center_axis',(0.,0.,-1.));
#1184=DIRECTION('ref_axis',(0.999999999999998,-7.14634563109306E-8,0.));
#1185=DIRECTION('',(0.,0.,-1.));
#1186=DIRECTION('center_axis',(0.,0.,-1.));
#1187=DIRECTION('ref_axis',(0.999999999999998,-7.14634563109306E-8,0.));
#1188=DIRECTION('center_axis',(0.,0.,1.));
#1189=DIRECTION('ref_axis',(0.999999999999998,-7.14634560888849E-8,0.));
#1190=DIRECTION('center_axis',(0.,0.,-1.));
#1191=DIRECTION('ref_axis',(0.999999999999998,-7.14634560888849E-8,0.));
#1192=DIRECTION('',(0.,0.,-1.));
#1193=DIRECTION('center_axis',(0.,0.,-1.));
#1194=DIRECTION('ref_axis',(0.999999999999998,-7.14634560888849E-8,0.));
#1195=DIRECTION('center_axis',(0.,0.,1.));
#1196=DIRECTION('ref_axis',(1.,-2.98023221656507E-8,0.));
#1197=DIRECTION('center_axis',(0.,0.,-1.));
#1198=DIRECTION('ref_axis',(1.,-2.98023221656507E-8,0.));
#1199=DIRECTION('',(0.,0.,-1.));
#1200=DIRECTION('center_axis',(0.,0.,-1.));
#1201=DIRECTION('ref_axis',(1.,-2.98023221656507E-8,0.));
#1202=DIRECTION('center_axis',(0.,0.,1.));
#1203=DIRECTION('ref_axis',(0.999999999999998,-7.14634578652422E-8,0.));
#1204=DIRECTION('center_axis',(0.,0.,-1.));
#1205=DIRECTION('ref_axis',(0.999999999999998,-7.14634578652422E-8,0.));
#1206=DIRECTION('',(0.,0.,-1.));
#1207=DIRECTION('center_axis',(0.,0.,-1.));
#1208=DIRECTION('ref_axis',(0.999999999999998,-7.14634578652422E-8,0.));
#1209=DIRECTION('center_axis',(0.,0.,1.));
#1210=DIRECTION('ref_axis',(0.999999999999998,-7.14634578652407E-8,0.));
#1211=DIRECTION('center_axis',(0.,0.,-1.));
#1212=DIRECTION('ref_axis',(0.999999999999998,-7.14634578652407E-8,0.));
#1213=DIRECTION('',(0.,0.,-1.));
#1214=DIRECTION('center_axis',(0.,0.,-1.));
#1215=DIRECTION('ref_axis',(0.999999999999998,-7.14634578652407E-8,0.));
#1216=DIRECTION('center_axis',(0.,0.,1.));
#1217=DIRECTION('ref_axis',(0.999999999999998,-7.14634578652417E-8,0.));
#1218=DIRECTION('center_axis',(0.,0.,-1.));
#1219=DIRECTION('ref_axis',(0.999999999999998,-7.14634578652417E-8,0.));
#1220=DIRECTION('',(0.,0.,-1.));
#1221=DIRECTION('center_axis',(0.,0.,-1.));
#1222=DIRECTION('ref_axis',(0.999999999999998,-7.14634578652417E-8,0.));
#1223=DIRECTION('center_axis',(0.,0.,1.));
#1224=DIRECTION('ref_axis',(0.999999999999998,-7.14634563109306E-8,0.));
#1225=DIRECTION('center_axis',(0.,0.,-1.));
#1226=DIRECTION('ref_axis',(0.999999999999998,-7.14634563109306E-8,0.));
#1227=DIRECTION('',(0.,0.,-1.));
#1228=DIRECTION('center_axis',(0.,0.,-1.));
#1229=DIRECTION('ref_axis',(0.999999999999998,-7.14634563109306E-8,0.));
#1230=DIRECTION('center_axis',(0.,0.,1.));
#1231=DIRECTION('ref_axis',(0.999999999999998,-7.14634578652427E-8,0.));
#1232=DIRECTION('center_axis',(0.,0.,-1.));
#1233=DIRECTION('ref_axis',(0.999999999999998,-7.14634578652427E-8,0.));
#1234=DIRECTION('',(0.,0.,-1.));
#1235=DIRECTION('center_axis',(0.,0.,-1.));
#1236=DIRECTION('ref_axis',(0.999999999999998,-7.14634578652427E-8,0.));
#1237=DIRECTION('center_axis',(0.,0.,1.));
#1238=DIRECTION('ref_axis',(0.999999999999998,-7.14634578652417E-8,0.));
#1239=DIRECTION('center_axis',(0.,0.,-1.));
#1240=DIRECTION('ref_axis',(0.999999999999998,-7.14634578652417E-8,0.));
#1241=DIRECTION('',(0.,0.,-1.));
#1242=DIRECTION('center_axis',(0.,0.,-1.));
#1243=DIRECTION('ref_axis',(0.999999999999998,-7.14634578652417E-8,0.));
#1244=DIRECTION('center_axis',(0.,0.,1.));
#1245=DIRECTION('ref_axis',(0.999999999999999,4.94215603375449E-8,0.));
#1246=DIRECTION('center_axis',(0.,0.,-1.));
#1247=DIRECTION('ref_axis',(0.999999999999999,4.94215603375449E-8,0.));
#1248=DIRECTION('',(0.,0.,-1.));
#1249=DIRECTION('center_axis',(0.,0.,-1.));
#1250=DIRECTION('ref_axis',(0.999999999999999,4.94215603375449E-8,0.));
#1251=DIRECTION('center_axis',(0.,1.,0.));
#1252=DIRECTION('ref_axis',(-1.,0.,0.));
#1253=DIRECTION('',(-1.,0.,0.));
#1254=DIRECTION('',(0.,0.,1.));
#1255=DIRECTION('',(-1.,0.,0.));
#1256=DIRECTION('',(0.,0.,1.));
#1257=DIRECTION('center_axis',(1.,-3.49676543189026E-16,0.));
#1258=DIRECTION('ref_axis',(3.49676543189026E-16,1.,-4.37095678986282E-17));
#1259=DIRECTION('',(3.49676543189026E-16,1.,-4.37095678986282E-17));
#1260=DIRECTION('',(3.49676543189026E-16,1.,-4.37095678986282E-17));
#1261=DIRECTION('',(0.,0.,1.));
#1262=DIRECTION('center_axis',(0.,-1.,0.));
#1263=DIRECTION('ref_axis',(1.,0.,0.));
#1264=DIRECTION('',(1.,0.,0.));
#1265=DIRECTION('',(1.,0.,0.));
#1266=DIRECTION('',(0.,0.,1.));
#1267=DIRECTION('center_axis',(-1.,0.,0.));
#1268=DIRECTION('ref_axis',(0.,-1.,4.37095678986282E-17));
#1269=DIRECTION('',(0.,-1.,4.37095678986282E-17));
#1270=DIRECTION('',(0.,-1.,4.37095678986282E-17));
#1271=DIRECTION('center_axis',(0.,0.,1.));
#1272=DIRECTION('ref_axis',(1.,0.,0.));
#1273=DIRECTION('center_axis',(0.,0.,1.));
#1274=DIRECTION('ref_axis',(1.,0.,0.));
#1275=CARTESIAN_POINT('',(0.,0.,0.));
#1276=CARTESIAN_POINT('Origin',(166.535,51.7850000703186,6.35));
#1277=CARTESIAN_POINT('',(164.035,51.7849999958128,12.7));
#1278=CARTESIAN_POINT('Origin',(166.535,51.7850000703186,12.7));
#1279=CARTESIAN_POINT('',(164.035,51.7849999958128,6.35));
#1280=CARTESIAN_POINT('',(164.035,51.7850001448244,6.35));
#1281=CARTESIAN_POINT('Origin',(166.535,51.7850000703186,6.35));
#1282=CARTESIAN_POINT('Origin',(-707.900003277679,28.150000231815,6.35));
#1283=CARTESIAN_POINT('',(-689.295,28.150000231815,12.7));
#1284=CARTESIAN_POINT('Origin',(-707.900003277679,28.150000231815,12.7));
#1285=CARTESIAN_POINT('',(-689.295,28.150000231815,6.35));
#1286=CARTESIAN_POINT('',(-689.295,28.150000231815,6.35));
#1287=CARTESIAN_POINT('Origin',(-707.900003277679,28.150000231815,6.35));
#1288=CARTESIAN_POINT('Origin',(82.0499999357416,95.8000001065757,6.35));
#1289=CARTESIAN_POINT('',(80.5499998714831,95.7999999982185,12.7));
#1290=CARTESIAN_POINT('Origin',(82.0499999357416,95.8000001065757,12.7));
#1291=CARTESIAN_POINT('',(80.5499998714831,95.7999999982185,6.35));
#1292=CARTESIAN_POINT('',(80.5499998714831,95.8000002137709,6.35));
#1293=CARTESIAN_POINT('Origin',(82.0499999357416,95.8000001065757,6.35));
#1294=CARTESIAN_POINT('Origin',(102.049999935742,75.8000001065757,6.35));
#1295=CARTESIAN_POINT('',(100.549999871483,75.7999999982185,12.7));
#1296=CARTESIAN_POINT('Origin',(102.049999935742,75.8000001065757,12.7));
#1297=CARTESIAN_POINT('',(100.549999871483,75.7999999982185,6.35));
#1298=CARTESIAN_POINT('',(100.549999871483,75.8000002137709,6.35));
#1299=CARTESIAN_POINT('Origin',(102.049999935742,75.8000001065757,6.35));
#1300=CARTESIAN_POINT('Origin',(102.049999935742,95.8000001065757,6.35));
#1301=CARTESIAN_POINT('',(100.549999871483,95.7999999982185,12.7));
#1302=CARTESIAN_POINT('Origin',(102.049999935742,95.8000001065757,12.7));
#1303=CARTESIAN_POINT('',(100.549999871483,95.7999999982185,6.35));
#1304=CARTESIAN_POINT('',(100.549999871483,95.8000002137709,6.35));
#1305=CARTESIAN_POINT('Origin',(102.049999935742,95.8000001065757,6.35));
#1306=CARTESIAN_POINT('Origin',(82.0499999357416,75.8000001065757,6.35));
#1307=CARTESIAN_POINT('',(80.5499998714831,75.7999999982185,12.7));
#1308=CARTESIAN_POINT('Origin',(82.0499999357416,75.8000001065757,12.7));
#1309=CARTESIAN_POINT('',(80.5499998714831,75.7999999982185,6.35));
#1310=CARTESIAN_POINT('',(80.5499998714831,75.8000002137709,6.35));
#1311=CARTESIAN_POINT('Origin',(82.0499999357416,75.8000001065757,6.35));
#1312=CARTESIAN_POINT('Origin',(82.0499999357416,25.8000001065757,6.35));
#1313=CARTESIAN_POINT('',(80.5499998714831,25.7999999982185,12.7));
#1314=CARTESIAN_POINT('Origin',(82.0499999357416,25.8000001065757,12.7));
#1315=CARTESIAN_POINT('',(80.5499998714831,25.7999999982185,6.35));
#1316=CARTESIAN_POINT('',(80.5499998714831,25.8000002137709,6.35));
#1317=CARTESIAN_POINT('Origin',(82.0499999357416,25.8000001065757,6.35));
#1318=CARTESIAN_POINT('Origin',(102.049999935742,5.80000010657573,6.35));
#1319=CARTESIAN_POINT('',(100.549999871483,5.79999999821852,12.7));
#1320=CARTESIAN_POINT('Origin',(102.049999935742,5.80000010657573,12.7));
#1321=CARTESIAN_POINT('',(100.549999871483,5.79999999821852,6.35));
#1322=CARTESIAN_POINT('',(100.549999871483,5.80000021377092,6.35));
#1323=CARTESIAN_POINT('Origin',(102.049999935742,5.80000010657573,6.35));
#1324=CARTESIAN_POINT('Origin',(102.049999935742,25.8000001065757,6.35));
#1325=CARTESIAN_POINT('',(100.549999871483,25.7999999982185,12.7));
#1326=CARTESIAN_POINT('Origin',(102.049999935742,25.8000001065757,12.7));
#1327=CARTESIAN_POINT('',(100.549999871483,25.7999999982185,6.35));
#1328=CARTESIAN_POINT('',(100.549999871483,25.8000002137709,6.35));
#1329=CARTESIAN_POINT('Origin',(102.049999935742,25.8000001065757,6.35));
#1330=CARTESIAN_POINT('Origin',(82.0499999357416,5.80000010657574,6.35));
#1331=CARTESIAN_POINT('',(80.5499998714831,5.79999999821853,12.7));
#1332=CARTESIAN_POINT('Origin',(82.0499999357416,5.80000010657574,12.7));
#1333=CARTESIAN_POINT('',(80.5499998714831,5.79999999821853,6.35));
#1334=CARTESIAN_POINT('',(80.5499998714831,5.80000021377093,6.35));
#1335=CARTESIAN_POINT('Origin',(82.0499999357416,5.80000010657574,6.35));
#1336=CARTESIAN_POINT('Origin',(-647.050000064259,5.80000010657578,6.35));
#1337=CARTESIAN_POINT('',(-648.550000128517,5.79999999946854,12.7));
#1338=CARTESIAN_POINT('Origin',(-647.050000064259,5.80000010657578,12.7));
#1339=CARTESIAN_POINT('',(-648.550000128517,5.79999999946854,6.35));
#1340=CARTESIAN_POINT('',(-648.550000128517,5.80000021385892,6.35));
#1341=CARTESIAN_POINT('Origin',(-647.050000064259,5.80000010657578,6.35));
#1342=CARTESIAN_POINT('Origin',(-647.05,25.8000000421904,6.35));
#1343=CARTESIAN_POINT('',(-648.55,25.800000003476,12.7));
#1344=CARTESIAN_POINT('Origin',(-647.05,25.8000000421904,12.7));
#1345=CARTESIAN_POINT('',(-648.55,25.800000003476,6.35));
#1346=CARTESIAN_POINT('',(-648.55,25.8000000809047,6.35));
#1347=CARTESIAN_POINT('Origin',(-647.05,25.8000000421904,6.35));
#1348=CARTESIAN_POINT('Origin',(-667.05,5.8000000421904,6.35));
#1349=CARTESIAN_POINT('',(-668.55,5.80000000347604,12.7));
#1350=CARTESIAN_POINT('Origin',(-667.05,5.8000000421904,12.7));
#1351=CARTESIAN_POINT('',(-668.55,5.80000000347605,6.35));
#1352=CARTESIAN_POINT('',(-668.55,5.80000008090475,6.35));
#1353=CARTESIAN_POINT('Origin',(-667.05,5.8000000421904,6.35));
#1354=CARTESIAN_POINT('Origin',(-667.050000064258,25.8000001065757,6.35));
#1355=CARTESIAN_POINT('',(-668.550000128517,25.7999999982185,12.7));
#1356=CARTESIAN_POINT('Origin',(-667.050000064258,25.8000001065757,12.7));
#1357=CARTESIAN_POINT('',(-668.550000128517,25.7999999982185,6.35));
#1358=CARTESIAN_POINT('',(-668.550000128517,25.8000002137709,6.35));
#1359=CARTESIAN_POINT('Origin',(-667.050000064258,25.8000001065757,6.35));
#1360=CARTESIAN_POINT('Origin',(-647.050000064259,75.8000001065758,6.35));
#1361=CARTESIAN_POINT('',(-648.550000128517,75.7999999994686,12.7));
#1362=CARTESIAN_POINT('Origin',(-647.050000064259,75.8000001065758,12.7));
#1363=CARTESIAN_POINT('',(-648.550000128517,75.7999999994686,6.35));
#1364=CARTESIAN_POINT('',(-648.550000128517,75.8000002138589,6.35));
#1365=CARTESIAN_POINT('Origin',(-647.050000064259,75.8000001065758,6.35));
#1366=CARTESIAN_POINT('Origin',(-647.05,95.8000000421904,6.35));
#1367=CARTESIAN_POINT('',(-648.55,95.800000003476,12.7));
#1368=CARTESIAN_POINT('Origin',(-647.05,95.8000000421904,12.7));
#1369=CARTESIAN_POINT('',(-648.55,95.800000003476,6.35));
#1370=CARTESIAN_POINT('',(-648.55,95.8000000809047,6.35));
#1371=CARTESIAN_POINT('Origin',(-647.05,95.8000000421904,6.35));
#1372=CARTESIAN_POINT('Origin',(-667.05,75.8000000421904,6.35));
#1373=CARTESIAN_POINT('',(-668.55,75.800000003476,12.7));
#1374=CARTESIAN_POINT('Origin',(-667.05,75.8000000421904,12.7));
#1375=CARTESIAN_POINT('',(-668.55,75.800000003476,6.35));
#1376=CARTESIAN_POINT('',(-668.55,75.8000000809048,6.35));
#1377=CARTESIAN_POINT('Origin',(-667.05,75.8000000421904,6.35));
#1378=CARTESIAN_POINT('Origin',(-667.050000064258,95.8000001065757,6.35));
#1379=CARTESIAN_POINT('',(-668.550000128517,95.7999999982185,12.7));
#1380=CARTESIAN_POINT('Origin',(-667.050000064258,95.8000001065757,12.7));
#1381=CARTESIAN_POINT('',(-668.550000128517,95.7999999982185,6.35));
#1382=CARTESIAN_POINT('',(-668.550000128517,95.8000002137709,6.35));
#1383=CARTESIAN_POINT('Origin',(-667.050000064258,95.8000001065757,6.35));
#1384=CARTESIAN_POINT('Origin',(142.899999892902,81.6000001776271,6.35));
#1385=CARTESIAN_POINT('',(140.399999785804,81.6000000028736,12.7));
#1386=CARTESIAN_POINT('Origin',(142.899999892902,81.6000001776271,12.7));
#1387=CARTESIAN_POINT('',(140.399999785804,81.6000000028736,6.35));
#1388=CARTESIAN_POINT('',(140.399999785804,81.6000003562857,6.35));
#1389=CARTESIAN_POINT('Origin',(142.899999892902,81.6000001776271,6.35));
#1390=CARTESIAN_POINT('Origin',(119.264999892902,4.5150001776271,6.35));
#1391=CARTESIAN_POINT('',(116.764999785804,4.51500000287366,12.7));
#1392=CARTESIAN_POINT('Origin',(119.264999892902,4.5150001776271,12.7));
#1393=CARTESIAN_POINT('',(116.764999785804,4.51500000287366,6.35));
#1394=CARTESIAN_POINT('',(116.764999785804,4.51500035628575,6.35));
#1395=CARTESIAN_POINT('Origin',(119.264999892902,4.5150001776271,6.35));
#1396=CARTESIAN_POINT('Origin',(-269.8,38.1000000703186,6.35));
#1397=CARTESIAN_POINT('',(-272.3,38.0999999958128,12.7));
#1398=CARTESIAN_POINT('Origin',(-269.8,38.1000000703186,12.7));
#1399=CARTESIAN_POINT('',(-272.3,38.0999999958128,6.35));
#1400=CARTESIAN_POINT('',(-272.3,38.1000001448244,6.35));
#1401=CARTESIAN_POINT('Origin',(-269.8,38.1000000703186,6.35));
#1402=CARTESIAN_POINT('Origin',(-684.265,51.7850000703186,6.35));
#1403=CARTESIAN_POINT('',(-686.765,51.7850000170385,12.7));
#1404=CARTESIAN_POINT('Origin',(-684.265,51.7850000703186,12.7));
#1405=CARTESIAN_POINT('',(-686.765,51.7850000170385,6.35));
#1406=CARTESIAN_POINT('',(-686.765,51.7850001348425,6.35));
#1407=CARTESIAN_POINT('Origin',(-684.265,51.7850000703186,6.35));
#1408=CARTESIAN_POINT('Origin',(-707.900000107098,61.6000001776271,6.35));
#1409=CARTESIAN_POINT('',(-710.400000214196,61.6000000028737,12.7));
#1410=CARTESIAN_POINT('Origin',(-707.900000107098,61.6000001776271,12.7));
#1411=CARTESIAN_POINT('',(-710.400000214196,61.6000000028737,6.35));
#1412=CARTESIAN_POINT('',(-710.400000214196,61.6000003562857,6.35));
#1413=CARTESIAN_POINT('Origin',(-707.900000107098,61.6000001776271,6.35));
#1414=CARTESIAN_POINT('Origin',(-731.535000107098,51.7850001776271,6.35));
#1415=CARTESIAN_POINT('',(-734.035000214196,51.7850000028736,12.7));
#1416=CARTESIAN_POINT('Origin',(-731.535000107098,51.7850001776271,12.7));
#1417=CARTESIAN_POINT('',(-734.035000214196,51.7850000028736,6.35));
#1418=CARTESIAN_POINT('',(-734.035000214196,51.7850003562857,6.35));
#1419=CARTESIAN_POINT('Origin',(-731.535000107098,51.7850001776271,6.35));
#1420=CARTESIAN_POINT('Origin',(-684.265000107098,4.51500017762702,6.35));
#1421=CARTESIAN_POINT('',(-686.765000214196,4.51500000287358,12.7));
#1422=CARTESIAN_POINT('Origin',(-684.265000107098,4.51500017762702,12.7));
#1423=CARTESIAN_POINT('',(-686.765000214196,4.51500000287358,6.35));
#1424=CARTESIAN_POINT('',(-686.765000214196,4.51500035628567,6.35));
#1425=CARTESIAN_POINT('Origin',(-684.265000107098,4.51500017762702,6.35));
#1426=CARTESIAN_POINT('Origin',(-295.200000107098,38.1000001776271,6.35));
#1427=CARTESIAN_POINT('',(-297.700000214196,38.1000000028736,12.7));
#1428=CARTESIAN_POINT('Origin',(-295.200000107098,38.1000001776271,12.7));
#1429=CARTESIAN_POINT('',(-297.700000214196,38.1000000028736,6.35));
#1430=CARTESIAN_POINT('',(-297.700000214196,38.1000003562857,6.35));
#1431=CARTESIAN_POINT('Origin',(-295.200000107098,38.1000001776271,6.35));
#1432=CARTESIAN_POINT('Origin',(166.535,4.51500007031862,6.35));
#1433=CARTESIAN_POINT('',(164.035,4.51499999581281,12.7));
#1434=CARTESIAN_POINT('Origin',(166.535,4.51500007031862,12.7));
#1435=CARTESIAN_POINT('',(164.035,4.51499999581281,6.35));
#1436=CARTESIAN_POINT('',(164.035,4.51500014482443,6.35));
#1437=CARTESIAN_POINT('Origin',(166.535,4.51500007031862,6.35));
#1438=CARTESIAN_POINT('Origin',(142.899999892902,61.600000177627,6.35));
#1439=CARTESIAN_POINT('',(140.399999785804,61.6000000028736,12.7));
#1440=CARTESIAN_POINT('Origin',(142.899999892902,61.600000177627,12.7));
#1441=CARTESIAN_POINT('',(140.399999785804,61.6000000028736,6.35));
#1442=CARTESIAN_POINT('',(140.399999785804,61.6000003562856,6.35));
#1443=CARTESIAN_POINT('Origin',(142.899999892902,61.600000177627,6.35));
#1444=CARTESIAN_POINT('Origin',(119.264999892902,51.7850001776271,6.35));
#1445=CARTESIAN_POINT('',(116.764999785804,51.7850000028737,12.7));
#1446=CARTESIAN_POINT('Origin',(119.264999892902,51.7850001776271,12.7));
#1447=CARTESIAN_POINT('',(116.764999785804,51.7850000028737,6.35));
#1448=CARTESIAN_POINT('',(116.764999785804,51.7850003562857,6.35));
#1449=CARTESIAN_POINT('Origin',(119.264999892902,51.7850001776271,6.35));
#1450=CARTESIAN_POINT('Origin',(-269.800000107098,63.500000177627,6.35));
#1451=CARTESIAN_POINT('',(-272.300000214196,63.5000000028736,12.7));
#1452=CARTESIAN_POINT('Origin',(-269.800000107098,63.500000177627,12.7));
#1453=CARTESIAN_POINT('',(-272.300000214196,63.5000000028736,6.35));
#1454=CARTESIAN_POINT('',(-272.300000214196,63.5000003562857,6.35));
#1455=CARTESIAN_POINT('Origin',(-269.800000107098,63.500000177627,6.35));
#1456=CARTESIAN_POINT('Origin',(-731.535000107098,4.51500017762707,6.35));
#1457=CARTESIAN_POINT('',(-734.035000214196,4.51500000287363,12.7));
#1458=CARTESIAN_POINT('Origin',(-731.535000107098,4.51500017762707,12.7));
#1459=CARTESIAN_POINT('',(-734.035000214196,4.51500000287363,6.35));
#1460=CARTESIAN_POINT('',(-734.035000214196,4.51500035628571,6.35));
#1461=CARTESIAN_POINT('Origin',(-731.535000107098,4.51500017762707,6.35));
#1462=CARTESIAN_POINT('Origin',(-707.900000107098,81.6000001776271,6.35));
#1463=CARTESIAN_POINT('',(-710.400000214196,81.6000000028736,12.7));
#1464=CARTESIAN_POINT('Origin',(-707.900000107098,81.6000001776271,12.7));
#1465=CARTESIAN_POINT('',(-710.400000214196,81.6000000028736,6.35));
#1466=CARTESIAN_POINT('',(-710.400000214196,81.6000003562857,6.35));
#1467=CARTESIAN_POINT('Origin',(-707.900000107098,81.6000001776271,6.35));
#1468=CARTESIAN_POINT('Origin',(-295.200000107098,63.500000177627,6.35));
#1469=CARTESIAN_POINT('',(-297.700000214196,63.5000000028736,12.7));
#1470=CARTESIAN_POINT('Origin',(-295.200000107098,63.500000177627,12.7));
#1471=CARTESIAN_POINT('',(-297.700000214196,63.5000000028736,6.35));
#1472=CARTESIAN_POINT('',(-297.700000214196,63.5000003562857,6.35));
#1473=CARTESIAN_POINT('Origin',(-295.200000107098,63.500000177627,6.35));
#1474=CARTESIAN_POINT('Origin',(142.9,28.149999082837,6.35));
#1475=CARTESIAN_POINT('',(124.295,28.1500000023251,12.7));
#1476=CARTESIAN_POINT('Origin',(142.9,28.149999082837,12.7));
#1477=CARTESIAN_POINT('',(124.295,28.1500000023251,6.35));
#1478=CARTESIAN_POINT('',(124.295,28.1499981633488,6.35));
#1479=CARTESIAN_POINT('Origin',(142.9,28.149999082837,6.35));
#1480=CARTESIAN_POINT('Origin',(172.05,101.6,6.35));
#1481=CARTESIAN_POINT('',(172.05,101.6,6.35));
#1482=CARTESIAN_POINT('',(-737.05,101.6,6.35));
#1483=CARTESIAN_POINT('',(172.05,101.6,6.35));
#1484=CARTESIAN_POINT('',(-737.05,101.6,12.7));
#1485=CARTESIAN_POINT('',(-737.05,101.6,6.35));
#1486=CARTESIAN_POINT('',(172.05,101.6,12.7));
#1487=CARTESIAN_POINT('',(172.05,101.6,12.7));
#1488=CARTESIAN_POINT('',(172.05,101.6,6.35));
#1489=CARTESIAN_POINT('Origin',(172.05,0.,6.35));
#1490=CARTESIAN_POINT('',(172.05,0.,6.35));
#1491=CARTESIAN_POINT('',(172.05,0.,6.35));
#1492=CARTESIAN_POINT('',(172.05,0.,12.7));
#1493=CARTESIAN_POINT('',(172.05,0.,12.7));
#1494=CARTESIAN_POINT('',(172.05,0.,6.35));
#1495=CARTESIAN_POINT('Origin',(-737.05,0.,6.35));
#1496=CARTESIAN_POINT('',(-737.05,0.,6.35));
#1497=CARTESIAN_POINT('',(-737.05,0.,6.35));
#1498=CARTESIAN_POINT('',(-737.05,0.,12.7));
#1499=CARTESIAN_POINT('',(-737.05,0.,12.7));
#1500=CARTESIAN_POINT('',(-737.05,0.,6.35));
#1501=CARTESIAN_POINT('Origin',(-737.05,101.6,6.35));
#1502=CARTESIAN_POINT('',(-737.05,101.6,6.35));
#1503=CARTESIAN_POINT('',(-737.05,101.6,12.7));
#1504=CARTESIAN_POINT('Origin',(-282.5,50.8,12.7));
#1505=CARTESIAN_POINT('Origin',(-282.5,50.8,6.35));
#1506=UNCERTAINTY_MEASURE_WITH_UNIT(LENGTH_MEASURE(0.01),#1510,
'DISTANCE_ACCURACY_VALUE',
'Maximum model space distance between geometric entities at asserted c
onnectivities');
#1507=UNCERTAINTY_MEASURE_WITH_UNIT(LENGTH_MEASURE(0.01),#1510,
'DISTANCE_ACCURACY_VALUE',
'Maximum model space distance between geometric entities at asserted c
onnectivities');
#1508=(
GEOMETRIC_REPRESENTATION_CONTEXT(3)
GLOBAL_UNCERTAINTY_ASSIGNED_CONTEXT((#1506))
GLOBAL_UNIT_ASSIGNED_CONTEXT((#1510,#1513,#1512))
REPRESENTATION_CONTEXT('','3D')
);
#1509=(
GEOMETRIC_REPRESENTATION_CONTEXT(3)
GLOBAL_UNCERTAINTY_ASSIGNED_CONTEXT((#1507))
GLOBAL_UNIT_ASSIGNED_CONTEXT((#1510,#1513,#1512))
REPRESENTATION_CONTEXT('','3D')
);
#1510=(
LENGTH_UNIT()
NAMED_UNIT(*)
SI_UNIT(.MILLI.,.METRE.)
);
#1511=(
LENGTH_UNIT()
NAMED_UNIT(*)
SI_UNIT($,.METRE.)
);
#1512=(
NAMED_UNIT(*)
SI_UNIT($,.STERADIAN.)
SOLID_ANGLE_UNIT()
);
#1513=(
NAMED_UNIT(*)
PLANE_ANGLE_UNIT()
SI_UNIT($,.RADIAN.)
);
#1514=SHAPE_DEFINITION_REPRESENTATION(#1515,#1516);
#1515=PRODUCT_DEFINITION_SHAPE('',$,#1518);
#1516=SHAPE_REPRESENTATION('',(#902),#1508);
#1517=PRODUCT_DEFINITION_CONTEXT('part definition',#1522,'design');
#1518=PRODUCT_DEFINITION('Gantry Plate for 600mm printer',
'Gantry Plate for 600mm printer v2',#1519,#1517);
#1519=PRODUCT_DEFINITION_FORMATION('',$,#1524);
#1520=PRODUCT_RELATED_PRODUCT_CATEGORY(
'Gantry Plate for 600mm printer v2','Gantry Plate for 600mm printer v2',
(#1524));
#1521=APPLICATION_PROTOCOL_DEFINITION('international standard',
'automotive_design',2009,#1522);
#1522=APPLICATION_CONTEXT(
'Core Data for Automotive Mechanical Design Process');
#1523=PRODUCT_CONTEXT('part definition',#1522,'mechanical');
#1524=PRODUCT('Gantry Plate for 600mm printer',
'Gantry Plate for 600mm printer v2',$,(#1523));
#1525=PRESENTATION_STYLE_ASSIGNMENT((#1526));
#1526=SURFACE_STYLE_USAGE(.BOTH.,#1527);
#1527=SURFACE_SIDE_STYLE('',(#1528));
#1528=SURFACE_STYLE_FILL_AREA(#1529);
#1529=FILL_AREA_STYLE('Steel - Satin',(#1530));
#1530=FILL_AREA_STYLE_COLOUR('Steel - Satin',#1531);
#1531=COLOUR_RGB('Steel - Satin',0.627450980392157,0.627450980392157,0.627450980392157);
ENDSEC;
END-ISO-10303-21;
