ISO-10303-21;
HEADER;
/* Generated by software containing ST-Developer
 * from STEP Tools, Inc. (www.steptools.com) 
 */

FILE_DESCRIPTION(
/* description */ (''),
/* implementation_level */ '2;1');

FILE_NAME(
/* name */ 
'C:/Users/shane/Desktop/Workhorse XL Files/Gantry/z axis motor mounts 
nema 23.step',
/* time_stamp */ '2018-08-26T15:22:14-05:00',
/* author */ ('shane77304'),
/* organization */ (''),
/* preprocessor_version */ 'ST-DEVELOPER v17',
/* originating_system */ 'Autodesk Translation Framework v7.1.0.215',
/* authorisation */ '');

FILE_SCHEMA (('AUTOMOTIVE_DESIGN { 1 0 10303 214 3 1 1 }'));
ENDSEC;

DATA;
#10=MECHANICAL_DESIGN_GEOMETRIC_PRESENTATION_REPRESENTATION('',(#13),#838);
#11=SHAPE_REPRESENTATION_RELATIONSHIP('SRR','None',#848,#12);
#12=ADVANCED_BREP_SHAPE_REPRESENTATION('',(#14),#837);
#13=STYLED_ITEM('',(#857),#14);
#14=MANIFOLD_SOLID_BREP('Body1',#502);
#15=FACE_BOUND('',#103,.T.);
#16=FACE_BOUND('',#104,.T.);
#17=FACE_BOUND('',#105,.T.);
#18=FACE_BOUND('',#106,.T.);
#19=FACE_BOUND('',#107,.T.);
#20=FACE_BOUND('',#108,.T.);
#21=FACE_BOUND('',#109,.T.);
#22=FACE_BOUND('',#110,.T.);
#23=FACE_BOUND('',#111,.T.);
#24=FACE_BOUND('',#118,.T.);
#25=FACE_BOUND('',#119,.T.);
#26=FACE_BOUND('',#120,.T.);
#27=FACE_BOUND('',#121,.T.);
#28=FACE_BOUND('',#122,.T.);
#29=FACE_BOUND('',#123,.T.);
#30=FACE_BOUND('',#124,.T.);
#31=FACE_BOUND('',#125,.T.);
#32=FACE_BOUND('',#126,.T.);
#33=CIRCLE('',#519,0.098);
#34=CIRCLE('',#520,0.098);
#35=CIRCLE('',#521,0.098);
#36=CIRCLE('',#527,0.0984251968503937);
#37=CIRCLE('',#528,0.0984251968503937);
#38=CIRCLE('',#530,0.0984251968503937);
#39=CIRCLE('',#531,0.0984251968503937);
#40=CIRCLE('',#533,0.0984251968503937);
#41=CIRCLE('',#534,0.0984251968503937);
#42=CIRCLE('',#536,0.0984251968503937);
#43=CIRCLE('',#537,0.0984251968503937);
#44=CIRCLE('',#539,0.098);
#45=CIRCLE('',#540,0.098);
#46=CIRCLE('',#541,0.098);
#47=CIRCLE('',#543,0.098);
#48=CIRCLE('',#544,0.098);
#49=CIRCLE('',#545,0.098);
#50=CIRCLE('',#547,0.0979999999999999);
#51=CIRCLE('',#548,0.0979999999999999);
#52=CIRCLE('',#549,0.0979999999999999);
#53=CIRCLE('',#551,0.775);
#54=CIRCLE('',#552,0.775);
#55=CYLINDRICAL_SURFACE('',#518,0.098);
#56=CYLINDRICAL_SURFACE('',#526,0.0984251968503937);
#57=CYLINDRICAL_SURFACE('',#529,0.0984251968503937);
#58=CYLINDRICAL_SURFACE('',#532,0.0984251968503937);
#59=CYLINDRICAL_SURFACE('',#535,0.0984251968503937);
#60=CYLINDRICAL_SURFACE('',#538,0.098);
#61=CYLINDRICAL_SURFACE('',#542,0.098);
#62=CYLINDRICAL_SURFACE('',#546,0.0979999999999999);
#63=CYLINDRICAL_SURFACE('',#550,0.775);
#64=FACE_OUTER_BOUND('',#87,.T.);
#65=FACE_OUTER_BOUND('',#88,.T.);
#66=FACE_OUTER_BOUND('',#89,.T.);
#67=FACE_OUTER_BOUND('',#90,.T.);
#68=FACE_OUTER_BOUND('',#91,.T.);
#69=FACE_OUTER_BOUND('',#92,.T.);
#70=FACE_OUTER_BOUND('',#93,.T.);
#71=FACE_OUTER_BOUND('',#94,.T.);
#72=FACE_OUTER_BOUND('',#95,.T.);
#73=FACE_OUTER_BOUND('',#96,.T.);
#74=FACE_OUTER_BOUND('',#97,.T.);
#75=FACE_OUTER_BOUND('',#98,.T.);
#76=FACE_OUTER_BOUND('',#99,.T.);
#77=FACE_OUTER_BOUND('',#100,.T.);
#78=FACE_OUTER_BOUND('',#101,.T.);
#79=FACE_OUTER_BOUND('',#102,.T.);
#80=FACE_OUTER_BOUND('',#112,.T.);
#81=FACE_OUTER_BOUND('',#113,.T.);
#82=FACE_OUTER_BOUND('',#114,.T.);
#83=FACE_OUTER_BOUND('',#115,.T.);
#84=FACE_OUTER_BOUND('',#116,.T.);
#85=FACE_OUTER_BOUND('',#117,.T.);
#86=FACE_OUTER_BOUND('',#127,.T.);
#87=EDGE_LOOP('',(#331,#332,#333,#334));
#88=EDGE_LOOP('',(#335,#336,#337,#338));
#89=EDGE_LOOP('',(#339,#340,#341,#342,#343));
#90=EDGE_LOOP('',(#344,#345,#346,#347));
#91=EDGE_LOOP('',(#348,#349,#350,#351));
#92=EDGE_LOOP('',(#352,#353,#354,#355));
#93=EDGE_LOOP('',(#356,#357,#358,#359));
#94=EDGE_LOOP('',(#360,#361,#362,#363));
#95=EDGE_LOOP('',(#364,#365,#366,#367));
#96=EDGE_LOOP('',(#368,#369,#370,#371));
#97=EDGE_LOOP('',(#372,#373,#374,#375));
#98=EDGE_LOOP('',(#376,#377,#378,#379,#380));
#99=EDGE_LOOP('',(#381,#382,#383,#384,#385));
#100=EDGE_LOOP('',(#386,#387,#388,#389,#390));
#101=EDGE_LOOP('',(#391,#392,#393,#394));
#102=EDGE_LOOP('',(#395,#396,#397,#398,#399,#400,#401,#402,#403,#404,#405,
#406));
#103=EDGE_LOOP('',(#407,#408));
#104=EDGE_LOOP('',(#409,#410));
#105=EDGE_LOOP('',(#411,#412));
#106=EDGE_LOOP('',(#413));
#107=EDGE_LOOP('',(#414));
#108=EDGE_LOOP('',(#415));
#109=EDGE_LOOP('',(#416));
#110=EDGE_LOOP('',(#417));
#111=EDGE_LOOP('',(#418,#419));
#112=EDGE_LOOP('',(#420,#421,#422,#423));
#113=EDGE_LOOP('',(#424,#425,#426,#427));
#114=EDGE_LOOP('',(#428,#429,#430,#431));
#115=EDGE_LOOP('',(#432,#433,#434,#435,#436,#437,#438,#439));
#116=EDGE_LOOP('',(#440,#441,#442,#443));
#117=EDGE_LOOP('',(#444,#445,#446,#447));
#118=EDGE_LOOP('',(#448));
#119=EDGE_LOOP('',(#449));
#120=EDGE_LOOP('',(#450));
#121=EDGE_LOOP('',(#451));
#122=EDGE_LOOP('',(#452));
#123=EDGE_LOOP('',(#453));
#124=EDGE_LOOP('',(#454));
#125=EDGE_LOOP('',(#455));
#126=EDGE_LOOP('',(#456));
#127=EDGE_LOOP('',(#457,#458,#459,#460,#461,#462,#463,#464));
#128=LINE('',#702,#173);
#129=LINE('',#704,#174);
#130=LINE('',#706,#175);
#131=LINE('',#707,#176);
#132=LINE('',#710,#177);
#133=LINE('',#712,#178);
#134=LINE('',#713,#179);
#135=LINE('',#718,#180);
#136=LINE('',#725,#181);
#137=LINE('',#727,#182);
#138=LINE('',#729,#183);
#139=LINE('',#730,#184);
#140=LINE('',#733,#185);
#141=LINE('',#735,#186);
#142=LINE('',#736,#187);
#143=LINE('',#739,#188);
#144=LINE('',#740,#189);
#145=LINE('',#743,#190);
#146=LINE('',#744,#191);
#147=LINE('',#749,#192);
#148=LINE('',#755,#193);
#149=LINE('',#761,#194);
#150=LINE('',#767,#195);
#151=LINE('',#773,#196);
#152=LINE('',#781,#197);
#153=LINE('',#789,#198);
#154=LINE('',#797,#199);
#155=LINE('',#801,#200);
#156=LINE('',#803,#201);
#157=LINE('',#805,#202);
#158=LINE('',#806,#203);
#159=LINE('',#808,#204);
#160=LINE('',#810,#205);
#161=LINE('',#812,#206);
#162=LINE('',#813,#207);
#163=LINE('',#815,#208);
#164=LINE('',#817,#209);
#165=LINE('',#820,#210);
#166=LINE('',#822,#211);
#167=LINE('',#823,#212);
#168=LINE('',#826,#213);
#169=LINE('',#827,#214);
#170=LINE('',#830,#215);
#171=LINE('',#831,#216);
#172=LINE('',#833,#217);
#173=VECTOR('',#565,0.393700787401575);
#174=VECTOR('',#566,0.393700787401575);
#175=VECTOR('',#567,0.393700787401575);
#176=VECTOR('',#568,0.393700787401575);
#177=VECTOR('',#571,0.393700787401575);
#178=VECTOR('',#572,0.393700787401575);
#179=VECTOR('',#573,0.393700787401575);
#180=VECTOR('',#578,0.098);
#181=VECTOR('',#585,0.393700787401575);
#182=VECTOR('',#586,0.393700787401575);
#183=VECTOR('',#587,0.393700787401575);
#184=VECTOR('',#588,0.393700787401575);
#185=VECTOR('',#591,0.393700787401575);
#186=VECTOR('',#592,0.393700787401575);
#187=VECTOR('',#593,0.393700787401575);
#188=VECTOR('',#596,0.393700787401575);
#189=VECTOR('',#597,0.393700787401575);
#190=VECTOR('',#600,0.393700787401575);
#191=VECTOR('',#601,0.393700787401575);
#192=VECTOR('',#606,0.0984251968503937);
#193=VECTOR('',#613,0.0984251968503937);
#194=VECTOR('',#620,0.0984251968503937);
#195=VECTOR('',#627,0.0984251968503937);
#196=VECTOR('',#634,0.098);
#197=VECTOR('',#643,0.098);
#198=VECTOR('',#652,0.0979999999999999);
#199=VECTOR('',#661,0.775);
#200=VECTOR('',#666,0.393700787401575);
#201=VECTOR('',#667,0.393700787401575);
#202=VECTOR('',#668,0.393700787401575);
#203=VECTOR('',#669,0.393700787401575);
#204=VECTOR('',#670,0.393700787401575);
#205=VECTOR('',#671,0.393700787401575);
#206=VECTOR('',#672,0.393700787401575);
#207=VECTOR('',#673,0.393700787401575);
#208=VECTOR('',#676,0.393700787401575);
#209=VECTOR('',#679,0.393700787401575);
#210=VECTOR('',#682,0.393700787401575);
#211=VECTOR('',#683,0.393700787401575);
#212=VECTOR('',#684,0.393700787401575);
#213=VECTOR('',#687,0.393700787401575);
#214=VECTOR('',#688,0.393700787401575);
#215=VECTOR('',#691,0.393700787401575);
#216=VECTOR('',#692,0.393700787401575);
#217=VECTOR('',#695,0.393700787401575);
#218=VERTEX_POINT('',#700);
#219=VERTEX_POINT('',#701);
#220=VERTEX_POINT('',#703);
#221=VERTEX_POINT('',#705);
#222=VERTEX_POINT('',#709);
#223=VERTEX_POINT('',#711);
#224=VERTEX_POINT('',#715);
#225=VERTEX_POINT('',#717);
#226=VERTEX_POINT('',#719);
#227=VERTEX_POINT('',#723);
#228=VERTEX_POINT('',#724);
#229=VERTEX_POINT('',#726);
#230=VERTEX_POINT('',#728);
#231=VERTEX_POINT('',#732);
#232=VERTEX_POINT('',#734);
#233=VERTEX_POINT('',#738);
#234=VERTEX_POINT('',#742);
#235=VERTEX_POINT('',#746);
#236=VERTEX_POINT('',#748);
#237=VERTEX_POINT('',#752);
#238=VERTEX_POINT('',#754);
#239=VERTEX_POINT('',#758);
#240=VERTEX_POINT('',#760);
#241=VERTEX_POINT('',#764);
#242=VERTEX_POINT('',#766);
#243=VERTEX_POINT('',#770);
#244=VERTEX_POINT('',#772);
#245=VERTEX_POINT('',#774);
#246=VERTEX_POINT('',#778);
#247=VERTEX_POINT('',#780);
#248=VERTEX_POINT('',#782);
#249=VERTEX_POINT('',#786);
#250=VERTEX_POINT('',#788);
#251=VERTEX_POINT('',#790);
#252=VERTEX_POINT('',#794);
#253=VERTEX_POINT('',#796);
#254=VERTEX_POINT('',#800);
#255=VERTEX_POINT('',#802);
#256=VERTEX_POINT('',#804);
#257=VERTEX_POINT('',#807);
#258=VERTEX_POINT('',#809);
#259=VERTEX_POINT('',#811);
#260=VERTEX_POINT('',#819);
#261=VERTEX_POINT('',#821);
#262=VERTEX_POINT('',#825);
#263=VERTEX_POINT('',#829);
#264=EDGE_CURVE('',#218,#219,#128,.T.);
#265=EDGE_CURVE('',#218,#220,#129,.T.);
#266=EDGE_CURVE('',#221,#220,#130,.T.);
#267=EDGE_CURVE('',#219,#221,#131,.T.);
#268=EDGE_CURVE('',#221,#222,#132,.T.);
#269=EDGE_CURVE('',#222,#223,#133,.T.);
#270=EDGE_CURVE('',#223,#219,#134,.T.);
#271=EDGE_CURVE('',#224,#224,#33,.T.);
#272=EDGE_CURVE('',#224,#225,#135,.T.);
#273=EDGE_CURVE('',#226,#225,#34,.T.);
#274=EDGE_CURVE('',#225,#226,#35,.T.);
#275=EDGE_CURVE('',#227,#228,#136,.T.);
#276=EDGE_CURVE('',#229,#227,#137,.T.);
#277=EDGE_CURVE('',#229,#230,#138,.T.);
#278=EDGE_CURVE('',#228,#230,#139,.T.);
#279=EDGE_CURVE('',#231,#227,#140,.T.);
#280=EDGE_CURVE('',#232,#231,#141,.T.);
#281=EDGE_CURVE('',#232,#229,#142,.T.);
#282=EDGE_CURVE('',#228,#233,#143,.T.);
#283=EDGE_CURVE('',#231,#233,#144,.T.);
#284=EDGE_CURVE('',#230,#234,#145,.T.);
#285=EDGE_CURVE('',#233,#234,#146,.T.);
#286=EDGE_CURVE('',#235,#235,#36,.T.);
#287=EDGE_CURVE('',#235,#236,#147,.T.);
#288=EDGE_CURVE('',#236,#236,#37,.T.);
#289=EDGE_CURVE('',#237,#237,#38,.T.);
#290=EDGE_CURVE('',#237,#238,#148,.T.);
#291=EDGE_CURVE('',#238,#238,#39,.T.);
#292=EDGE_CURVE('',#239,#239,#40,.T.);
#293=EDGE_CURVE('',#239,#240,#149,.T.);
#294=EDGE_CURVE('',#240,#240,#41,.T.);
#295=EDGE_CURVE('',#241,#241,#42,.T.);
#296=EDGE_CURVE('',#241,#242,#150,.T.);
#297=EDGE_CURVE('',#242,#242,#43,.T.);
#298=EDGE_CURVE('',#243,#243,#44,.T.);
#299=EDGE_CURVE('',#243,#244,#151,.T.);
#300=EDGE_CURVE('',#245,#244,#45,.T.);
#301=EDGE_CURVE('',#244,#245,#46,.T.);
#302=EDGE_CURVE('',#246,#246,#47,.T.);
#303=EDGE_CURVE('',#246,#247,#152,.T.);
#304=EDGE_CURVE('',#248,#247,#48,.T.);
#305=EDGE_CURVE('',#247,#248,#49,.T.);
#306=EDGE_CURVE('',#249,#249,#50,.T.);
#307=EDGE_CURVE('',#249,#250,#153,.T.);
#308=EDGE_CURVE('',#251,#250,#51,.T.);
#309=EDGE_CURVE('',#250,#251,#52,.T.);
#310=EDGE_CURVE('',#252,#252,#53,.T.);
#311=EDGE_CURVE('',#252,#253,#154,.T.);
#312=EDGE_CURVE('',#253,#253,#54,.T.);
#313=EDGE_CURVE('',#254,#218,#155,.T.);
#314=EDGE_CURVE('',#255,#254,#156,.T.);
#315=EDGE_CURVE('',#256,#255,#157,.T.);
#316=EDGE_CURVE('',#234,#256,#158,.T.);
#317=EDGE_CURVE('',#257,#232,#159,.T.);
#318=EDGE_CURVE('',#258,#257,#160,.T.);
#319=EDGE_CURVE('',#259,#258,#161,.T.);
#320=EDGE_CURVE('',#220,#259,#162,.T.);
#321=EDGE_CURVE('',#222,#259,#163,.T.);
#322=EDGE_CURVE('',#254,#223,#164,.T.);
#323=EDGE_CURVE('',#257,#260,#165,.T.);
#324=EDGE_CURVE('',#260,#261,#166,.T.);
#325=EDGE_CURVE('',#261,#258,#167,.T.);
#326=EDGE_CURVE('',#262,#256,#168,.T.);
#327=EDGE_CURVE('',#260,#262,#169,.T.);
#328=EDGE_CURVE('',#255,#263,#170,.T.);
#329=EDGE_CURVE('',#263,#262,#171,.T.);
#330=EDGE_CURVE('',#261,#263,#172,.T.);
#331=ORIENTED_EDGE('',*,*,#264,.F.);
#332=ORIENTED_EDGE('',*,*,#265,.T.);
#333=ORIENTED_EDGE('',*,*,#266,.F.);
#334=ORIENTED_EDGE('',*,*,#267,.F.);
#335=ORIENTED_EDGE('',*,*,#267,.T.);
#336=ORIENTED_EDGE('',*,*,#268,.T.);
#337=ORIENTED_EDGE('',*,*,#269,.T.);
#338=ORIENTED_EDGE('',*,*,#270,.T.);
#339=ORIENTED_EDGE('',*,*,#271,.F.);
#340=ORIENTED_EDGE('',*,*,#272,.T.);
#341=ORIENTED_EDGE('',*,*,#273,.F.);
#342=ORIENTED_EDGE('',*,*,#274,.F.);
#343=ORIENTED_EDGE('',*,*,#272,.F.);
#344=ORIENTED_EDGE('',*,*,#275,.F.);
#345=ORIENTED_EDGE('',*,*,#276,.F.);
#346=ORIENTED_EDGE('',*,*,#277,.T.);
#347=ORIENTED_EDGE('',*,*,#278,.F.);
#348=ORIENTED_EDGE('',*,*,#276,.T.);
#349=ORIENTED_EDGE('',*,*,#279,.F.);
#350=ORIENTED_EDGE('',*,*,#280,.F.);
#351=ORIENTED_EDGE('',*,*,#281,.T.);
#352=ORIENTED_EDGE('',*,*,#275,.T.);
#353=ORIENTED_EDGE('',*,*,#282,.T.);
#354=ORIENTED_EDGE('',*,*,#283,.F.);
#355=ORIENTED_EDGE('',*,*,#279,.T.);
#356=ORIENTED_EDGE('',*,*,#278,.T.);
#357=ORIENTED_EDGE('',*,*,#284,.T.);
#358=ORIENTED_EDGE('',*,*,#285,.F.);
#359=ORIENTED_EDGE('',*,*,#282,.F.);
#360=ORIENTED_EDGE('',*,*,#286,.F.);
#361=ORIENTED_EDGE('',*,*,#287,.T.);
#362=ORIENTED_EDGE('',*,*,#288,.F.);
#363=ORIENTED_EDGE('',*,*,#287,.F.);
#364=ORIENTED_EDGE('',*,*,#289,.F.);
#365=ORIENTED_EDGE('',*,*,#290,.T.);
#366=ORIENTED_EDGE('',*,*,#291,.F.);
#367=ORIENTED_EDGE('',*,*,#290,.F.);
#368=ORIENTED_EDGE('',*,*,#292,.F.);
#369=ORIENTED_EDGE('',*,*,#293,.T.);
#370=ORIENTED_EDGE('',*,*,#294,.F.);
#371=ORIENTED_EDGE('',*,*,#293,.F.);
#372=ORIENTED_EDGE('',*,*,#295,.F.);
#373=ORIENTED_EDGE('',*,*,#296,.T.);
#374=ORIENTED_EDGE('',*,*,#297,.F.);
#375=ORIENTED_EDGE('',*,*,#296,.F.);
#376=ORIENTED_EDGE('',*,*,#298,.F.);
#377=ORIENTED_EDGE('',*,*,#299,.T.);
#378=ORIENTED_EDGE('',*,*,#300,.F.);
#379=ORIENTED_EDGE('',*,*,#301,.F.);
#380=ORIENTED_EDGE('',*,*,#299,.F.);
#381=ORIENTED_EDGE('',*,*,#302,.F.);
#382=ORIENTED_EDGE('',*,*,#303,.T.);
#383=ORIENTED_EDGE('',*,*,#304,.F.);
#384=ORIENTED_EDGE('',*,*,#305,.F.);
#385=ORIENTED_EDGE('',*,*,#303,.F.);
#386=ORIENTED_EDGE('',*,*,#306,.F.);
#387=ORIENTED_EDGE('',*,*,#307,.T.);
#388=ORIENTED_EDGE('',*,*,#308,.F.);
#389=ORIENTED_EDGE('',*,*,#309,.F.);
#390=ORIENTED_EDGE('',*,*,#307,.F.);
#391=ORIENTED_EDGE('',*,*,#310,.F.);
#392=ORIENTED_EDGE('',*,*,#311,.T.);
#393=ORIENTED_EDGE('',*,*,#312,.F.);
#394=ORIENTED_EDGE('',*,*,#311,.F.);
#395=ORIENTED_EDGE('',*,*,#313,.F.);
#396=ORIENTED_EDGE('',*,*,#314,.F.);
#397=ORIENTED_EDGE('',*,*,#315,.F.);
#398=ORIENTED_EDGE('',*,*,#316,.F.);
#399=ORIENTED_EDGE('',*,*,#284,.F.);
#400=ORIENTED_EDGE('',*,*,#277,.F.);
#401=ORIENTED_EDGE('',*,*,#281,.F.);
#402=ORIENTED_EDGE('',*,*,#317,.F.);
#403=ORIENTED_EDGE('',*,*,#318,.F.);
#404=ORIENTED_EDGE('',*,*,#319,.F.);
#405=ORIENTED_EDGE('',*,*,#320,.F.);
#406=ORIENTED_EDGE('',*,*,#265,.F.);
#407=ORIENTED_EDGE('',*,*,#273,.T.);
#408=ORIENTED_EDGE('',*,*,#274,.T.);
#409=ORIENTED_EDGE('',*,*,#308,.T.);
#410=ORIENTED_EDGE('',*,*,#309,.T.);
#411=ORIENTED_EDGE('',*,*,#300,.T.);
#412=ORIENTED_EDGE('',*,*,#301,.T.);
#413=ORIENTED_EDGE('',*,*,#288,.T.);
#414=ORIENTED_EDGE('',*,*,#291,.T.);
#415=ORIENTED_EDGE('',*,*,#294,.T.);
#416=ORIENTED_EDGE('',*,*,#297,.T.);
#417=ORIENTED_EDGE('',*,*,#312,.T.);
#418=ORIENTED_EDGE('',*,*,#304,.T.);
#419=ORIENTED_EDGE('',*,*,#305,.T.);
#420=ORIENTED_EDGE('',*,*,#266,.T.);
#421=ORIENTED_EDGE('',*,*,#320,.T.);
#422=ORIENTED_EDGE('',*,*,#321,.F.);
#423=ORIENTED_EDGE('',*,*,#268,.F.);
#424=ORIENTED_EDGE('',*,*,#264,.T.);
#425=ORIENTED_EDGE('',*,*,#270,.F.);
#426=ORIENTED_EDGE('',*,*,#322,.F.);
#427=ORIENTED_EDGE('',*,*,#313,.T.);
#428=ORIENTED_EDGE('',*,*,#318,.T.);
#429=ORIENTED_EDGE('',*,*,#323,.T.);
#430=ORIENTED_EDGE('',*,*,#324,.T.);
#431=ORIENTED_EDGE('',*,*,#325,.T.);
#432=ORIENTED_EDGE('',*,*,#317,.T.);
#433=ORIENTED_EDGE('',*,*,#280,.T.);
#434=ORIENTED_EDGE('',*,*,#283,.T.);
#435=ORIENTED_EDGE('',*,*,#285,.T.);
#436=ORIENTED_EDGE('',*,*,#316,.T.);
#437=ORIENTED_EDGE('',*,*,#326,.F.);
#438=ORIENTED_EDGE('',*,*,#327,.F.);
#439=ORIENTED_EDGE('',*,*,#323,.F.);
#440=ORIENTED_EDGE('',*,*,#315,.T.);
#441=ORIENTED_EDGE('',*,*,#328,.T.);
#442=ORIENTED_EDGE('',*,*,#329,.T.);
#443=ORIENTED_EDGE('',*,*,#326,.T.);
#444=ORIENTED_EDGE('',*,*,#324,.F.);
#445=ORIENTED_EDGE('',*,*,#327,.T.);
#446=ORIENTED_EDGE('',*,*,#329,.F.);
#447=ORIENTED_EDGE('',*,*,#330,.F.);
#448=ORIENTED_EDGE('',*,*,#286,.T.);
#449=ORIENTED_EDGE('',*,*,#289,.T.);
#450=ORIENTED_EDGE('',*,*,#292,.T.);
#451=ORIENTED_EDGE('',*,*,#295,.T.);
#452=ORIENTED_EDGE('',*,*,#298,.T.);
#453=ORIENTED_EDGE('',*,*,#302,.T.);
#454=ORIENTED_EDGE('',*,*,#271,.T.);
#455=ORIENTED_EDGE('',*,*,#306,.T.);
#456=ORIENTED_EDGE('',*,*,#310,.T.);
#457=ORIENTED_EDGE('',*,*,#319,.T.);
#458=ORIENTED_EDGE('',*,*,#325,.F.);
#459=ORIENTED_EDGE('',*,*,#330,.T.);
#460=ORIENTED_EDGE('',*,*,#328,.F.);
#461=ORIENTED_EDGE('',*,*,#314,.T.);
#462=ORIENTED_EDGE('',*,*,#322,.T.);
#463=ORIENTED_EDGE('',*,*,#269,.F.);
#464=ORIENTED_EDGE('',*,*,#321,.T.);
#465=PLANE('',#516);
#466=PLANE('',#517);
#467=PLANE('',#522);
#468=PLANE('',#523);
#469=PLANE('',#524);
#470=PLANE('',#525);
#471=PLANE('',#553);
#472=PLANE('',#554);
#473=PLANE('',#555);
#474=PLANE('',#556);
#475=PLANE('',#557);
#476=PLANE('',#558);
#477=PLANE('',#559);
#478=PLANE('',#560);
#479=ADVANCED_FACE('',(#64),#465,.F.);
#480=ADVANCED_FACE('',(#65),#466,.T.);
#481=ADVANCED_FACE('',(#66),#55,.F.);
#482=ADVANCED_FACE('',(#67),#467,.F.);
#483=ADVANCED_FACE('',(#68),#468,.F.);
#484=ADVANCED_FACE('',(#69),#469,.T.);
#485=ADVANCED_FACE('',(#70),#470,.F.);
#486=ADVANCED_FACE('',(#71),#56,.F.);
#487=ADVANCED_FACE('',(#72),#57,.F.);
#488=ADVANCED_FACE('',(#73),#58,.F.);
#489=ADVANCED_FACE('',(#74),#59,.F.);
#490=ADVANCED_FACE('',(#75),#60,.F.);
#491=ADVANCED_FACE('',(#76),#61,.F.);
#492=ADVANCED_FACE('',(#77),#62,.F.);
#493=ADVANCED_FACE('',(#78),#63,.F.);
#494=ADVANCED_FACE('',(#79,#15,#16,#17,#18,#19,#20,#21,#22,#23),#471,.F.);
#495=ADVANCED_FACE('',(#80),#472,.F.);
#496=ADVANCED_FACE('',(#81),#473,.F.);
#497=ADVANCED_FACE('',(#82),#474,.T.);
#498=ADVANCED_FACE('',(#83),#475,.T.);
#499=ADVANCED_FACE('',(#84),#476,.T.);
#500=ADVANCED_FACE('',(#85,#24,#25,#26,#27,#28,#29,#30,#31,#32),#477,.T.);
#501=ADVANCED_FACE('',(#86),#478,.T.);
#502=CLOSED_SHELL('',(#479,#480,#481,#482,#483,#484,#485,#486,#487,#488,
#489,#490,#491,#492,#493,#494,#495,#496,#497,#498,#499,#500,#501));
#503=DERIVED_UNIT_ELEMENT(#505,1.);
#504=DERIVED_UNIT_ELEMENT(#842,3.);
#505=(
MASS_UNIT()
NAMED_UNIT(*)
SI_UNIT(.KILO.,.GRAM.)
);
#506=DERIVED_UNIT((#503,#504));
#507=MEASURE_REPRESENTATION_ITEM('density measure',
POSITIVE_RATIO_MEASURE(7850.),#506);
#508=PROPERTY_DEFINITION_REPRESENTATION(#513,#510);
#509=PROPERTY_DEFINITION_REPRESENTATION(#514,#511);
#510=REPRESENTATION('material name',(#512),#837);
#511=REPRESENTATION('density',(#507),#837);
#512=DESCRIPTIVE_REPRESENTATION_ITEM('Steel','Steel');
#513=PROPERTY_DEFINITION('material property','material name',#850);
#514=PROPERTY_DEFINITION('material property','density of part',#850);
#515=AXIS2_PLACEMENT_3D('placement',#698,#561,#562);
#516=AXIS2_PLACEMENT_3D('',#699,#563,#564);
#517=AXIS2_PLACEMENT_3D('',#708,#569,#570);
#518=AXIS2_PLACEMENT_3D('',#714,#574,#575);
#519=AXIS2_PLACEMENT_3D('',#716,#576,#577);
#520=AXIS2_PLACEMENT_3D('',#720,#579,#580);
#521=AXIS2_PLACEMENT_3D('',#721,#581,#582);
#522=AXIS2_PLACEMENT_3D('',#722,#583,#584);
#523=AXIS2_PLACEMENT_3D('',#731,#589,#590);
#524=AXIS2_PLACEMENT_3D('',#737,#594,#595);
#525=AXIS2_PLACEMENT_3D('',#741,#598,#599);
#526=AXIS2_PLACEMENT_3D('',#745,#602,#603);
#527=AXIS2_PLACEMENT_3D('',#747,#604,#605);
#528=AXIS2_PLACEMENT_3D('',#750,#607,#608);
#529=AXIS2_PLACEMENT_3D('',#751,#609,#610);
#530=AXIS2_PLACEMENT_3D('',#753,#611,#612);
#531=AXIS2_PLACEMENT_3D('',#756,#614,#615);
#532=AXIS2_PLACEMENT_3D('',#757,#616,#617);
#533=AXIS2_PLACEMENT_3D('',#759,#618,#619);
#534=AXIS2_PLACEMENT_3D('',#762,#621,#622);
#535=AXIS2_PLACEMENT_3D('',#763,#623,#624);
#536=AXIS2_PLACEMENT_3D('',#765,#625,#626);
#537=AXIS2_PLACEMENT_3D('',#768,#628,#629);
#538=AXIS2_PLACEMENT_3D('',#769,#630,#631);
#539=AXIS2_PLACEMENT_3D('',#771,#632,#633);
#540=AXIS2_PLACEMENT_3D('',#775,#635,#636);
#541=AXIS2_PLACEMENT_3D('',#776,#637,#638);
#542=AXIS2_PLACEMENT_3D('',#777,#639,#640);
#543=AXIS2_PLACEMENT_3D('',#779,#641,#642);
#544=AXIS2_PLACEMENT_3D('',#783,#644,#645);
#545=AXIS2_PLACEMENT_3D('',#784,#646,#647);
#546=AXIS2_PLACEMENT_3D('',#785,#648,#649);
#547=AXIS2_PLACEMENT_3D('',#787,#650,#651);
#548=AXIS2_PLACEMENT_3D('',#791,#653,#654);
#549=AXIS2_PLACEMENT_3D('',#792,#655,#656);
#550=AXIS2_PLACEMENT_3D('',#793,#657,#658);
#551=AXIS2_PLACEMENT_3D('',#795,#659,#660);
#552=AXIS2_PLACEMENT_3D('',#798,#662,#663);
#553=AXIS2_PLACEMENT_3D('',#799,#664,#665);
#554=AXIS2_PLACEMENT_3D('',#814,#674,#675);
#555=AXIS2_PLACEMENT_3D('',#816,#677,#678);
#556=AXIS2_PLACEMENT_3D('',#818,#680,#681);
#557=AXIS2_PLACEMENT_3D('',#824,#685,#686);
#558=AXIS2_PLACEMENT_3D('',#828,#689,#690);
#559=AXIS2_PLACEMENT_3D('',#832,#693,#694);
#560=AXIS2_PLACEMENT_3D('',#834,#696,#697);
#561=DIRECTION('axis',(0.,0.,1.));
#562=DIRECTION('refdir',(1.,0.,0.));
#563=DIRECTION('center_axis',(-1.,0.,0.));
#564=DIRECTION('ref_axis',(0.,0.,1.));
#565=DIRECTION('',(0.,-1.,0.));
#566=DIRECTION('',(0.,0.,1.));
#567=DIRECTION('',(0.,1.,0.));
#568=DIRECTION('',(0.,0.,1.));
#569=DIRECTION('center_axis',(0.,-1.,0.));
#570=DIRECTION('ref_axis',(-1.,0.,0.));
#571=DIRECTION('',(-1.,0.,0.));
#572=DIRECTION('',(0.,0.,-1.));
#573=DIRECTION('',(1.,0.,0.));
#574=DIRECTION('center_axis',(0.,-1.,0.));
#575=DIRECTION('ref_axis',(-1.,0.,0.));
#576=DIRECTION('center_axis',(0.,-1.,0.));
#577=DIRECTION('ref_axis',(-1.,0.,0.));
#578=DIRECTION('',(0.,-1.,0.));
#579=DIRECTION('center_axis',(0.,1.,0.));
#580=DIRECTION('ref_axis',(-1.,0.,0.));
#581=DIRECTION('center_axis',(0.,1.,0.));
#582=DIRECTION('ref_axis',(-1.,0.,0.));
#583=DIRECTION('center_axis',(1.,0.,0.));
#584=DIRECTION('ref_axis',(0.,0.,-1.));
#585=DIRECTION('',(0.,0.,-1.));
#586=DIRECTION('',(0.,-1.,0.));
#587=DIRECTION('',(0.,0.,-1.));
#588=DIRECTION('',(0.,1.,0.));
#589=DIRECTION('center_axis',(0.,0.,-1.));
#590=DIRECTION('ref_axis',(-1.,0.,0.));
#591=DIRECTION('',(-1.,0.,0.));
#592=DIRECTION('',(0.,-1.,0.));
#593=DIRECTION('',(-1.,0.,0.));
#594=DIRECTION('center_axis',(0.,-1.,0.));
#595=DIRECTION('ref_axis',(-1.,0.,0.));
#596=DIRECTION('',(1.,0.,0.));
#597=DIRECTION('',(0.,0.,-1.));
#598=DIRECTION('center_axis',(0.,0.,1.));
#599=DIRECTION('ref_axis',(1.,0.,0.));
#600=DIRECTION('',(1.,0.,0.));
#601=DIRECTION('',(0.,1.,0.));
#602=DIRECTION('center_axis',(0.,-1.,0.));
#603=DIRECTION('ref_axis',(-1.,0.,0.));
#604=DIRECTION('center_axis',(0.,-1.,0.));
#605=DIRECTION('ref_axis',(-1.,0.,0.));
#606=DIRECTION('',(0.,-1.,0.));
#607=DIRECTION('center_axis',(0.,1.,0.));
#608=DIRECTION('ref_axis',(-1.,0.,0.));
#609=DIRECTION('center_axis',(0.,-1.,0.));
#610=DIRECTION('ref_axis',(-1.,0.,0.));
#611=DIRECTION('center_axis',(0.,-1.,0.));
#612=DIRECTION('ref_axis',(-1.,0.,0.));
#613=DIRECTION('',(0.,-1.,0.));
#614=DIRECTION('center_axis',(0.,1.,0.));
#615=DIRECTION('ref_axis',(-1.,0.,0.));
#616=DIRECTION('center_axis',(0.,-1.,0.));
#617=DIRECTION('ref_axis',(-1.,0.,0.));
#618=DIRECTION('center_axis',(0.,-1.,0.));
#619=DIRECTION('ref_axis',(-1.,0.,0.));
#620=DIRECTION('',(0.,-1.,0.));
#621=DIRECTION('center_axis',(0.,1.,0.));
#622=DIRECTION('ref_axis',(-1.,0.,0.));
#623=DIRECTION('center_axis',(0.,-1.,0.));
#624=DIRECTION('ref_axis',(-1.,0.,0.));
#625=DIRECTION('center_axis',(0.,-1.,0.));
#626=DIRECTION('ref_axis',(-1.,0.,0.));
#627=DIRECTION('',(0.,-1.,0.));
#628=DIRECTION('center_axis',(0.,1.,0.));
#629=DIRECTION('ref_axis',(-1.,0.,0.));
#630=DIRECTION('center_axis',(0.,-1.,0.));
#631=DIRECTION('ref_axis',(-1.,0.,0.));
#632=DIRECTION('center_axis',(0.,-1.,0.));
#633=DIRECTION('ref_axis',(-1.,0.,0.));
#634=DIRECTION('',(0.,-1.,0.));
#635=DIRECTION('center_axis',(0.,1.,0.));
#636=DIRECTION('ref_axis',(-1.,0.,0.));
#637=DIRECTION('center_axis',(0.,1.,0.));
#638=DIRECTION('ref_axis',(-1.,0.,0.));
#639=DIRECTION('center_axis',(0.,-1.,0.));
#640=DIRECTION('ref_axis',(-1.,0.,0.));
#641=DIRECTION('center_axis',(0.,-1.,0.));
#642=DIRECTION('ref_axis',(-1.,0.,0.));
#643=DIRECTION('',(0.,-1.,0.));
#644=DIRECTION('center_axis',(0.,1.,0.));
#645=DIRECTION('ref_axis',(-1.,0.,0.));
#646=DIRECTION('center_axis',(0.,1.,0.));
#647=DIRECTION('ref_axis',(-1.,0.,0.));
#648=DIRECTION('center_axis',(0.,-1.,0.));
#649=DIRECTION('ref_axis',(-1.,0.,0.));
#650=DIRECTION('center_axis',(0.,-1.,0.));
#651=DIRECTION('ref_axis',(-1.,0.,0.));
#652=DIRECTION('',(0.,-1.,0.));
#653=DIRECTION('center_axis',(0.,1.,0.));
#654=DIRECTION('ref_axis',(-1.,0.,0.));
#655=DIRECTION('center_axis',(0.,1.,0.));
#656=DIRECTION('ref_axis',(-1.,0.,0.));
#657=DIRECTION('center_axis',(0.,-1.,0.));
#658=DIRECTION('ref_axis',(-1.,0.,0.));
#659=DIRECTION('center_axis',(0.,-1.,0.));
#660=DIRECTION('ref_axis',(-1.,0.,0.));
#661=DIRECTION('',(0.,-1.,0.));
#662=DIRECTION('center_axis',(0.,1.,0.));
#663=DIRECTION('ref_axis',(-1.,0.,0.));
#664=DIRECTION('center_axis',(0.,1.,0.));
#665=DIRECTION('ref_axis',(0.,0.,1.));
#666=DIRECTION('',(1.,0.,0.));
#667=DIRECTION('',(0.,0.,1.));
#668=DIRECTION('',(-1.,0.,0.));
#669=DIRECTION('',(0.,0.,-1.));
#670=DIRECTION('',(0.,0.,-1.));
#671=DIRECTION('',(1.,0.,0.));
#672=DIRECTION('',(0.,0.,1.));
#673=DIRECTION('',(-1.,0.,0.));
#674=DIRECTION('center_axis',(0.,0.,-1.));
#675=DIRECTION('ref_axis',(-1.,0.,0.));
#676=DIRECTION('',(0.,1.,0.));
#677=DIRECTION('center_axis',(0.,0.,1.));
#678=DIRECTION('ref_axis',(1.,0.,0.));
#679=DIRECTION('',(0.,-1.,0.));
#680=DIRECTION('center_axis',(0.,0.,1.));
#681=DIRECTION('ref_axis',(1.,0.,0.));
#682=DIRECTION('',(0.,1.,0.));
#683=DIRECTION('',(-1.,0.,0.));
#684=DIRECTION('',(0.,-1.,0.));
#685=DIRECTION('center_axis',(1.,0.,0.));
#686=DIRECTION('ref_axis',(0.,-1.,0.));
#687=DIRECTION('',(0.,-1.,0.));
#688=DIRECTION('',(0.,0.,-1.));
#689=DIRECTION('center_axis',(0.,0.,-1.));
#690=DIRECTION('ref_axis',(-1.,0.,0.));
#691=DIRECTION('',(0.,1.,0.));
#692=DIRECTION('',(1.,0.,0.));
#693=DIRECTION('center_axis',(0.,1.,0.));
#694=DIRECTION('ref_axis',(1.,0.,0.));
#695=DIRECTION('',(0.,0.,-1.));
#696=DIRECTION('center_axis',(-1.,0.,0.));
#697=DIRECTION('ref_axis',(0.,1.,0.));
#698=CARTESIAN_POINT('',(0.,0.,0.));
#699=CARTESIAN_POINT('Origin',(0.2,0.,-3.19321754955912));
#700=CARTESIAN_POINT('',(0.2,0.5,-3.1496062992126));
#701=CARTESIAN_POINT('',(0.2,0.,-3.1496062992126));
#702=CARTESIAN_POINT('',(0.2,0.,-3.1496062992126));
#703=CARTESIAN_POINT('',(0.2,0.5,-0.78740157480315));
#704=CARTESIAN_POINT('',(0.2,0.5,-0.78740157480315));
#705=CARTESIAN_POINT('',(0.2,0.,-0.78740157480315));
#706=CARTESIAN_POINT('',(0.2,0.,-0.78740157480315));
#707=CARTESIAN_POINT('',(0.2,0.,-1.59660877477956));
#708=CARTESIAN_POINT('Origin',(2.5,0.,0.));
#709=CARTESIAN_POINT('',(0.,0.,-0.78740157480315));
#710=CARTESIAN_POINT('',(2.50000003989287,0.,-0.78740157480315));
#711=CARTESIAN_POINT('',(0.,0.,-3.1496062992126));
#712=CARTESIAN_POINT('',(0.,0.,0.));
#713=CARTESIAN_POINT('',(1.25,0.,-3.1496062992126));
#714=CARTESIAN_POINT('Origin',(0.319507874015748,0.75,-1.01978346456693));
#715=CARTESIAN_POINT('',(0.417507874015748,0.75,-1.01978346456693));
#716=CARTESIAN_POINT('Origin',(0.319507874015748,0.75,-1.01978346456693));
#717=CARTESIAN_POINT('',(0.417507874015748,0.5,-1.01978346456693));
#718=CARTESIAN_POINT('',(0.417507874015748,0.75,-1.01978346456693));
#719=CARTESIAN_POINT('',(0.25,0.5,-1.08886787271964));
#720=CARTESIAN_POINT('Origin',(0.319507874015748,0.5,-1.01978346456693));
#721=CARTESIAN_POINT('Origin',(0.319507874015748,0.5,-1.01978346456693));
#722=CARTESIAN_POINT('Origin',(2.30000007978574,0.,-0.78740157480315));
#723=CARTESIAN_POINT('',(2.30000007978574,0.,-0.78740157480315));
#724=CARTESIAN_POINT('',(2.30000007978574,0.,-3.1496062992126));
#725=CARTESIAN_POINT('',(2.30000007978574,0.,-0.393700787401575));
#726=CARTESIAN_POINT('',(2.30000007978574,0.5,-0.78740157480315));
#727=CARTESIAN_POINT('',(2.30000007978574,0.,-0.78740157480315));
#728=CARTESIAN_POINT('',(2.30000007978574,0.5,-3.1496062992126));
#729=CARTESIAN_POINT('',(2.30000007978574,0.5,-0.78740157480315));
#730=CARTESIAN_POINT('',(2.30000007978574,0.,-3.1496062992126));
#731=CARTESIAN_POINT('Origin',(2.50000007978574,0.,-0.78740157480315));
#732=CARTESIAN_POINT('',(2.50000007978574,0.,-0.78740157480315));
#733=CARTESIAN_POINT('',(2.50000003989287,0.,-0.78740157480315));
#734=CARTESIAN_POINT('',(2.50000007978574,0.5,-0.78740157480315));
#735=CARTESIAN_POINT('',(2.5,0.375,-0.78740157480315));
#736=CARTESIAN_POINT('',(2.50000007978574,0.5,-0.78740157480315));
#737=CARTESIAN_POINT('Origin',(2.5,0.,0.));
#738=CARTESIAN_POINT('',(2.50000007978574,0.,-3.1496062992126));
#739=CARTESIAN_POINT('',(1.25,0.,-3.1496062992126));
#740=CARTESIAN_POINT('',(2.5,0.,0.));
#741=CARTESIAN_POINT('Origin',(0.,0.,-3.1496062992126));
#742=CARTESIAN_POINT('',(2.50000007978574,0.5,-3.1496062992126));
#743=CARTESIAN_POINT('',(2.50000007978574,0.5,-3.1496062992126));
#744=CARTESIAN_POINT('',(2.5,0.375,-3.1496062992126));
#745=CARTESIAN_POINT('Origin',(2.10629921259842,0.75,-3.54330708661417));
#746=CARTESIAN_POINT('',(2.20472440944882,0.75,-3.54330708661417));
#747=CARTESIAN_POINT('Origin',(2.10629921259842,0.75,-3.54330708661417));
#748=CARTESIAN_POINT('',(2.20472440944882,0.5,-3.54330708661417));
#749=CARTESIAN_POINT('',(2.20472440944882,0.75,-3.54330708661417));
#750=CARTESIAN_POINT('Origin',(2.10629921259842,0.5,-3.54330708661417));
#751=CARTESIAN_POINT('Origin',(2.10629921259842,0.75,-0.393700787401575));
#752=CARTESIAN_POINT('',(2.20472440944882,0.75,-0.393700787401575));
#753=CARTESIAN_POINT('Origin',(2.10629921259842,0.75,-0.393700787401575));
#754=CARTESIAN_POINT('',(2.20472440944882,0.5,-0.393700787401575));
#755=CARTESIAN_POINT('',(2.20472440944882,0.75,-0.393700787401575));
#756=CARTESIAN_POINT('Origin',(2.10629921259842,0.5,-0.393700787401575));
#757=CARTESIAN_POINT('Origin',(0.393700787401575,0.75,-3.54330708661417));
#758=CARTESIAN_POINT('',(0.492125984251968,0.75,-3.54330708661417));
#759=CARTESIAN_POINT('Origin',(0.393700787401575,0.75,-3.54330708661417));
#760=CARTESIAN_POINT('',(0.492125984251968,0.5,-3.54330708661417));
#761=CARTESIAN_POINT('',(0.492125984251968,0.75,-3.54330708661417));
#762=CARTESIAN_POINT('Origin',(0.393700787401575,0.5,-3.54330708661417));
#763=CARTESIAN_POINT('Origin',(0.393700787401575,0.75,-0.393700787401575));
#764=CARTESIAN_POINT('',(0.492125984251968,0.75,-0.393700787401575));
#765=CARTESIAN_POINT('Origin',(0.393700787401575,0.75,-0.393700787401575));
#766=CARTESIAN_POINT('',(0.492125984251968,0.5,-0.393700787401575));
#767=CARTESIAN_POINT('',(0.492125984251968,0.75,-0.393700787401575));
#768=CARTESIAN_POINT('Origin',(0.393700787401575,0.5,-0.393700787401575));
#769=CARTESIAN_POINT('Origin',(2.18049212598425,0.75,-1.01978346456693));
#770=CARTESIAN_POINT('',(2.27849212598425,0.75,-1.01978346456693));
#771=CARTESIAN_POINT('Origin',(2.18049212598425,0.75,-1.01978346456693));
#772=CARTESIAN_POINT('',(2.27849212598425,0.5,-1.01978346456693));
#773=CARTESIAN_POINT('',(2.27849212598425,0.75,-1.01978346456693));
#774=CARTESIAN_POINT('',(2.25000007978574,0.5,-0.950699136689114));
#775=CARTESIAN_POINT('Origin',(2.18049212598425,0.5,-1.01978346456693));
#776=CARTESIAN_POINT('Origin',(2.18049212598425,0.5,-1.01978346456693));
#777=CARTESIAN_POINT('Origin',(2.18049212598425,0.75,-2.88076771653543));
#778=CARTESIAN_POINT('',(2.27849212598425,0.75,-2.88076771653543));
#779=CARTESIAN_POINT('Origin',(2.18049212598425,0.75,-2.88076771653543));
#780=CARTESIAN_POINT('',(2.27849212598425,0.5,-2.88076771653543));
#781=CARTESIAN_POINT('',(2.27849212598425,0.75,-2.88076771653543));
#782=CARTESIAN_POINT('',(2.25000007978574,0.5,-2.81168338865762));
#783=CARTESIAN_POINT('Origin',(2.18049212598425,0.5,-2.88076771653543));
#784=CARTESIAN_POINT('Origin',(2.18049212598425,0.5,-2.88076771653543));
#785=CARTESIAN_POINT('Origin',(0.319507874015748,0.75,-2.88076771653543));
#786=CARTESIAN_POINT('',(0.417507874015748,0.75,-2.88076771653543));
#787=CARTESIAN_POINT('Origin',(0.319507874015748,0.75,-2.88076771653543));
#788=CARTESIAN_POINT('',(0.417507874015748,0.5,-2.88076771653543));
#789=CARTESIAN_POINT('',(0.417507874015748,0.75,-2.88076771653543));
#790=CARTESIAN_POINT('',(0.25,0.5,-2.94985212468815));
#791=CARTESIAN_POINT('Origin',(0.319507874015748,0.5,-2.88076771653543));
#792=CARTESIAN_POINT('Origin',(0.319507874015748,0.5,-2.88076771653543));
#793=CARTESIAN_POINT('Origin',(1.25,0.75,-1.95027559055118));
#794=CARTESIAN_POINT('',(2.025,0.75,-1.95027559055118));
#795=CARTESIAN_POINT('Origin',(1.25,0.75,-1.95027559055118));
#796=CARTESIAN_POINT('',(2.025,0.5,-1.95027559055118));
#797=CARTESIAN_POINT('',(2.025,0.75,-1.95027559055118));
#798=CARTESIAN_POINT('Origin',(1.25,0.5,-1.95027559055118));
#799=CARTESIAN_POINT('Origin',(1.25000003989287,0.5,-0.393700787401575));
#800=CARTESIAN_POINT('',(0.,0.5,-3.1496062992126));
#801=CARTESIAN_POINT('',(2.50000007978574,0.5,-3.1496062992126));
#802=CARTESIAN_POINT('',(0.,0.5,-3.93700787401575));
#803=CARTESIAN_POINT('',(0.,0.5,-1.77165354330709));
#804=CARTESIAN_POINT('',(2.50000007978574,0.5,-3.93700787401575));
#805=CARTESIAN_POINT('',(1.25000001994644,0.5,-3.93700787401575));
#806=CARTESIAN_POINT('',(2.5,0.5,-1.77165354330709));
#807=CARTESIAN_POINT('',(2.50000007978574,0.5,0.));
#808=CARTESIAN_POINT('',(2.5,0.5,-0.196850393700787));
#809=CARTESIAN_POINT('',(0.,0.5,0.));
#810=CARTESIAN_POINT('',(1.25000001994644,0.5,0.));
#811=CARTESIAN_POINT('',(0.,0.5,-0.78740157480315));
#812=CARTESIAN_POINT('',(0.,0.5,-0.196850393700787));
#813=CARTESIAN_POINT('',(2.50000007978574,0.5,-0.78740157480315));
#814=CARTESIAN_POINT('Origin',(2.50000007978574,0.,-0.78740157480315));
#815=CARTESIAN_POINT('',(0.,0.,-0.78740157480315));
#816=CARTESIAN_POINT('Origin',(0.,0.,-3.1496062992126));
#817=CARTESIAN_POINT('',(0.,0.,-3.1496062992126));
#818=CARTESIAN_POINT('Origin',(1.25,0.375,0.));
#819=CARTESIAN_POINT('',(2.5,0.75,0.));
#820=CARTESIAN_POINT('',(2.5,0.,0.));
#821=CARTESIAN_POINT('',(0.,0.75,0.));
#822=CARTESIAN_POINT('',(2.5,0.75,0.));
#823=CARTESIAN_POINT('',(0.,0.75,0.));
#824=CARTESIAN_POINT('Origin',(2.5,0.75,0.));
#825=CARTESIAN_POINT('',(2.5,0.75,-3.93700787401575));
#826=CARTESIAN_POINT('',(2.5,0.,-3.93700787401575));
#827=CARTESIAN_POINT('',(2.5,0.75,0.));
#828=CARTESIAN_POINT('Origin',(1.25,0.375,-3.93700787401575));
#829=CARTESIAN_POINT('',(0.,0.75,-3.93700787401575));
#830=CARTESIAN_POINT('',(0.,0.75,-3.93700787401575));
#831=CARTESIAN_POINT('',(2.5,0.75,-3.93700787401575));
#832=CARTESIAN_POINT('Origin',(0.,0.75,0.));
#833=CARTESIAN_POINT('',(0.,0.75,0.));
#834=CARTESIAN_POINT('Origin',(0.,0.,0.));
#835=UNCERTAINTY_MEASURE_WITH_UNIT(LENGTH_MEASURE(0.000393700787401575),
#840,'DISTANCE_ACCURACY_VALUE',
'Maximum model space distance between geometric entities at asserted c
onnectivities');
#836=UNCERTAINTY_MEASURE_WITH_UNIT(LENGTH_MEASURE(0.000393700787401575),
#840,'DISTANCE_ACCURACY_VALUE',
'Maximum model space distance between geometric entities at asserted c
onnectivities');
#837=(
GEOMETRIC_REPRESENTATION_CONTEXT(3)
GLOBAL_UNCERTAINTY_ASSIGNED_CONTEXT((#835))
GLOBAL_UNIT_ASSIGNED_CONTEXT((#840,#845,#844))
REPRESENTATION_CONTEXT('','3D')
);
#838=(
GEOMETRIC_REPRESENTATION_CONTEXT(3)
GLOBAL_UNCERTAINTY_ASSIGNED_CONTEXT((#836))
GLOBAL_UNIT_ASSIGNED_CONTEXT((#840,#845,#844))
REPRESENTATION_CONTEXT('','3D')
);
#839=DIMENSIONAL_EXPONENTS(1.,0.,0.,0.,0.,0.,0.);
#840=(
CONVERSION_BASED_UNIT('inch',#843)
LENGTH_UNIT()
NAMED_UNIT(#839)
);
#841=(
LENGTH_UNIT()
NAMED_UNIT(*)
SI_UNIT(.MILLI.,.METRE.)
);
#842=(
LENGTH_UNIT()
NAMED_UNIT(*)
SI_UNIT($,.METRE.)
);
#843=LENGTH_MEASURE_WITH_UNIT(LENGTH_MEASURE(25.4),#841);
#844=(
NAMED_UNIT(*)
SI_UNIT($,.STERADIAN.)
SOLID_ANGLE_UNIT()
);
#845=(
NAMED_UNIT(*)
PLANE_ANGLE_UNIT()
SI_UNIT($,.RADIAN.)
);
#846=SHAPE_DEFINITION_REPRESENTATION(#847,#848);
#847=PRODUCT_DEFINITION_SHAPE('',$,#850);
#848=SHAPE_REPRESENTATION('',(#515),#837);
#849=PRODUCT_DEFINITION_CONTEXT('part definition',#854,'design');
#850=PRODUCT_DEFINITION('z axis motor mounts nema 23',
'z axis motor mounts nema 23 v10',#851,#849);
#851=PRODUCT_DEFINITION_FORMATION('',$,#856);
#852=PRODUCT_RELATED_PRODUCT_CATEGORY('z axis motor mounts nema 23 v10',
'z axis motor mounts nema 23 v10',(#856));
#853=APPLICATION_PROTOCOL_DEFINITION('international standard',
'automotive_design',2009,#854);
#854=APPLICATION_CONTEXT(
'Core Data for Automotive Mechanical Design Process');
#855=PRODUCT_CONTEXT('part definition',#854,'mechanical');
#856=PRODUCT('z axis motor mounts nema 23',
'z axis motor mounts nema 23 v10',$,(#855));
#857=PRESENTATION_STYLE_ASSIGNMENT((#858));
#858=SURFACE_STYLE_USAGE(.BOTH.,#859);
#859=SURFACE_SIDE_STYLE('',(#860));
#860=SURFACE_STYLE_FILL_AREA(#861);
#861=FILL_AREA_STYLE('Steel - Satin',(#862));
#862=FILL_AREA_STYLE_COLOUR('Steel - Satin',#863);
#863=COLOUR_RGB('Steel - Satin',0.627450980392157,0.627450980392157,0.627450980392157);
ENDSEC;
END-ISO-10303-21;
